<?xml version="1.0" encoding="UTF-8" standalone="no"?>
<!-- Created with Inkscape (http://www.inkscape.org/) -->

<svg
   version="1.1"
   id="svg2"
   width="74.763947"
   height="149.10797"
   viewBox="0 0 74.763946 149.10797"
   sodipodi:docname="(수정가능)채원파벨_청첩장_최종_3종.ai"
   xmlns:inkscape="http://www.inkscape.org/namespaces/inkscape"
   xmlns:sodipodi="http://sodipodi.sourceforge.net/DTD/sodipodi-0.dtd"
   xmlns="http://www.w3.org/2000/svg"
   xmlns:svg="http://www.w3.org/2000/svg">
  <defs
     id="defs6">
    <clipPath
       clipPathUnits="userSpaceOnUse"
       id="clipPath52">
      <path
         d="M 289.094,0 H 583.937 V 583.937 H 289.094 Z"
         id="path50" />
    </clipPath>
    <clipPath
       clipPathUnits="userSpaceOnUse"
       id="clipPath1556">
      <path
         d="m 355.696,110.762 h 56.073 V -1.06969 h -56.073 z"
         id="path1554" />
    </clipPath>
  </defs>
  <sodipodi:namedview
     id="namedview4"
     pagecolor="#ffffff"
     bordercolor="#999999"
     borderopacity="1"
     inkscape:showpageshadow="0"
     inkscape:pageopacity="0"
     inkscape:pagecheckerboard="0"
     inkscape:deskcolor="#d1d1d1"
     showgrid="false" />
  <g
     id="g10"
     inkscape:groupmode="layer"
     inkscape:label="Page 1"
     transform="matrix(1.3333333,0,0,-1.3333333,-474.26138,147.68216)">
    <g
       id="g46"
       style="display:inline">
      <g
         id="g48"
         clip-path="url(#clipPath52)">
        <g
           id="g1550">
          <g
             id="g1552" />
          <g
             id="g1820">
            <g
               clip-path="url(#clipPath1556)"
               id="g1818">
              <g
                 transform="translate(366.9786,95.8039)"
                 id="g1560">
                <path
                   d="M 0,0 C 0,-0.256 0.158,-0.044 0.543,-0.639 0.863,-1.133 1.124,-1.258 0.881,-0.801 0.454,0.001 0,0.413 0,0"
                   style="fill:#aaabab;fill-opacity:1;fill-rule:nonzero;stroke:none"
                   id="path1558" />
              </g>
              <g
                 transform="translate(363.5809,99.7119)"
                 id="g1564">
                <path
                   d="m 0,0 c -0.079,0 -0.099,-0.384 0.047,-0.384 0.189,0 2.254,-1.998 2.637,-2.55 C 2.987,-3.371 3.398,-3.637 3.398,-3.396 3.398,-3.162 0.234,0 0,0"
                   style="fill:#aaabab;fill-opacity:1;fill-rule:nonzero;stroke:none"
                   id="path1562" />
              </g>
              <g
                 transform="translate(370.2099,93.1772)"
                 id="g1568">
                <path
                   d="M 0,0 C 0.14,0 -0.424,0.769 -0.568,0.769 -0.708,0.769 -0.144,0 0,0"
                   style="fill:#aaabab;fill-opacity:1;fill-rule:nonzero;stroke:none"
                   id="path1566" />
              </g>
              <g
                 transform="translate(369.8659,94.7788)"
                 id="g1572">
                <path
                   d="M 0,0 C -2.233,2.113 -0.47,0.152 0.284,-0.48 1.23,-1.274 1.082,-1.024 0,0"
                   style="fill:#aaabab;fill-opacity:1;fill-rule:nonzero;stroke:none"
                   id="path1570" />
              </g>
              <g
                 transform="translate(367.2349,96.9605)"
                 id="g1576">
                <path
                   d="m 0,0 c 0,0.143 -1.204,1.206 -1.28,1.13 -0.095,-0.095 0.896,-0.908 0.896,-1.006 0,-0.11 2.391,-2.989 2.605,-3.003 C 2.532,-2.9 0,-0.246 0,0"
                   style="fill:#aaabab;fill-opacity:1;fill-rule:nonzero;stroke:none"
                   id="path1574" />
              </g>
              <g
                 transform="translate(369.4691,91.9272)"
                 id="g1580">
                <path
                   d="M 0,0 C -0.449,0.496 -0.415,0.549 -0.534,0.43 -0.689,0.275 0.95,-1.05 0,0"
                   style="fill:#aaabab;fill-opacity:1;fill-rule:nonzero;stroke:none"
                   id="path1578" />
              </g>
              <g
                 transform="translate(371.5914,91.8276)"
                 id="g1584">
                <path
                   d="M 0,0 C 0,0.09 -0.893,0.965 -0.985,0.965 -1.135,0.965 0,-0.282 0,0"
                   style="fill:#aaabab;fill-opacity:1;fill-rule:nonzero;stroke:none"
                   id="path1582" />
              </g>
              <g
                 transform="translate(365.0118,86.5143)"
                 id="g1588">
                <path
                   d="M 0,0 C 0.293,-0.588 0.85,-0.49 0.296,0.104 -0.076,0.503 -0.225,0.451 0,0"
                   style="fill:#aaabab;fill-opacity:1;fill-rule:nonzero;stroke:none"
                   id="path1586" />
              </g>
              <g
                 transform="translate(375.0566,85.4252)"
                 id="g1592">
                <path
                   d="M 0,0 C 0,0.011 -0.05,-0.948 0.151,-0.393 0.814,1.431 -1.637,6.787 -1.872,6.174 -2.065,5.671 -0.07,3.675 0,0"
                   style="fill:#aaabab;fill-opacity:1;fill-rule:nonzero;stroke:none"
                   id="path1590" />
              </g>
              <g
                 transform="translate(368.498,90.74)"
                 id="g1596">
                <path
                   d="M 0,0 C -0.395,0.534 -0.492,0.217 -0.102,-0.198 0.297,-0.623 0.364,-0.493 0,0"
                   style="fill:#aaabab;fill-opacity:1;fill-rule:nonzero;stroke:none"
                   id="path1594" />
              </g>
              <g
                 transform="translate(364.8672,92.1117)"
                 id="g1600">
                <path
                   d="m 0,0 c -0.241,0.452 -2.203,2.489 -0.387,-0.088 0.658,-0.933 1.473,-1.853 1.473,-1.997 0,-0.076 0.202,-0.332 0.213,-0.332 0.52,-0.573 0.242,0.168 -0.296,0.792 C 0.756,-1.339 0.45,-0.844 0,0"
                   style="fill:#aaabab;fill-opacity:1;fill-rule:nonzero;stroke:none"
                   id="path1598" />
              </g>
              <g
                 transform="translate(378.4701,80.1528)"
                 id="g1604">
                <path
                   d="M 0,0 C 0.095,0.095 -0.083,1.028 -0.175,0.935 -0.27,0.84 -0.093,-0.093 0,0"
                   style="fill:#aaabab;fill-opacity:1;fill-rule:nonzero;stroke:none"
                   id="path1602" />
              </g>
              <g
                 transform="translate(374.1725,70.3354)"
                 id="g1608">
                <path
                   d="M 0,0 C -0.039,1.032 -1.151,5.415 -1.162,4.583 -1.164,4.442 -1.113,4.125 -1.05,3.878 -0.334,1.109 0.077,-2.04 0,0"
                   style="fill:#aaabab;fill-opacity:1;fill-rule:nonzero;stroke:none"
                   id="path1606" />
              </g>
              <g
                 transform="translate(368.6973,88.0502)"
                 id="g1612">
                <path
                   d="m 0,0 c -0.189,0.189 -1.604,1.027 -1.734,1.027 -0.36,0 0.117,-0.456 0.884,-0.845 C -0.926,0.182 0.373,-0.373 0,0"
                   style="fill:#aaabab;fill-opacity:1;fill-rule:nonzero;stroke:none"
                   id="path1610" />
              </g>
              <g
                 transform="translate(370.018,87.6078)"
                 id="g1616">
                <path
                   d="M 0,0 C -0.51,0.128 -0.342,-0.203 0.263,-0.518 1.016,-0.91 1.756,-1.396 1.868,-1.573 2.089,-1.921 2.565,-1.84 2.908,-2.562 3.079,-2.923 3.53,-3.528 3.776,-3.528 4.467,-3.528 0.945,-0.237 0,0"
                   style="fill:#aaabab;fill-opacity:1;fill-rule:nonzero;stroke:none"
                   id="path1614" />
              </g>
              <g
                 transform="translate(383.4858,60.7907)"
                 id="g1620">
                <path
                   d="m 0,0 v 0 c -0.103,-0.231 -1.26,-0.934 -1.26,-0.765 0,0.616 3.097,2.23 3.68,2.922 C 2.878,2.702 5.056,3.35 6.117,3.838 6.727,4.119 8.288,3.817 8.747,4.31 9.066,4.652 9.793,4.667 9.184,4.408 8.713,4.206 9.178,4.003 9.677,4.192 c 0.151,0.058 0.708,0.204 1.236,0.325 3.574,0.818 5.185,1.719 3.94,1.326 C 13.785,5.506 9.751,4.506 9.693,4.564 9.507,4.75 13.86,5.71 13.86,6.007 13.86,6.142 13.682,6.156 13.557,6.031 13.508,5.982 13.398,5.929 13.312,5.914 12.123,5.702 10.306,5.014 9.067,4.825 8.651,4.761 8.247,4.659 8.17,4.599 7.997,4.463 7.582,4.461 7.582,4.596 c 0,0.321 0.519,0.162 3.416,1.148 1.244,0.424 1.203,0.245 1.099,0.373 C 11.918,6.338 8.486,5.197 8.344,5.179 7.342,5.054 4.374,3.452 4.38,3.788 4.382,3.899 5.226,4.454 5.394,4.454 5.498,4.454 6.081,4.893 4.891,4.481 4.574,4.371 5.275,4.946 5.674,5.122 6.222,5.365 5.926,5.48 6.293,5.48 6.43,5.48 6.577,5.537 6.621,5.608 6.712,5.756 7.2,5.783 7.192,5.64 7.183,5.48 6.3,4.967 6.035,4.967 5.899,4.967 5.788,4.909 5.788,4.839 c 0,-0.314 0.38,0.068 2.691,0.848 3.202,1.082 1.535,0.825 1.263,0.68 -0.914,-0.49 -3.618,-0.873 -1.22,0.128 1.109,0.463 2.404,1.102 3.177,0.948 0.58,-0.116 0.297,0.32 -0.188,0.367 -0.576,0.056 -0.529,0.394 0.075,0.543 0.264,0.065 0.48,0.161 0.48,0.213 0,0.109 -1.274,-0.169 -1.545,-0.337 -0.24,-0.149 -1.434,-0.168 -1.286,-0.02 0.336,0.335 3.928,1.263 4.241,1.45 0.412,0.248 0.442,0.22 0,0.121 C 13.465,9.777 11.245,9.575 7.265,7.711 5.177,6.733 6.776,7.808 7.192,8.138 c 0.54,0.429 3.38,1.375 3.597,1.709 0.129,0.2 3.591,0.12 3.84,0.129 1.814,0.066 2.947,-1.026 2.947,-0.49 0,0.263 -1.98,0.726 -3.235,0.757 -1.709,0.042 -1.153,0.468 0.898,0.689 1.754,0.188 5.339,1.291 4.893,0.754 -0.175,-0.212 0.115,-0.274 0.333,-0.072 0.363,0.334 2.185,0.635 2.517,1.363 0.078,0.171 0.18,0.286 0.228,0.257 0.228,-0.141 2.158,1.587 2.168,1.596 1,0.847 0.27,0.889 0.27,0.649 0,-0.32 -1.046,-0.989 -1.295,-1.19 -2.811,-2.279 -4.16,-2.074 -3.705,-1.883 0.975,0.41 5.178,3.317 4.921,3.733 -0.103,0.167 -0.033,-0.201 0.838,0.693 0.848,0.871 0.966,0.806 0.306,-0.167 -0.712,-1.05 -0.767,-1.169 -0.381,-0.817 0.399,0.364 0.462,0.188 0.08,-0.222 -0.396,-0.426 0.074,-0.153 -0.426,-0.546 -0.43,-0.338 -0.444,-0.602 -0.017,-0.323 0.361,0.236 0.39,0.197 0.16,-0.214 -0.968,-1.728 -5.99,-4.006 -5.99,-4.51 0,-0.115 2.191,1.09 2.904,1.673 0.294,0.24 0.586,0.436 0.648,0.436 0.22,0 1.618,1.417 1.489,0.926 -0.323,-1.235 -5.298,-3.789 -5.298,-3.934 0,-0.107 1.318,0.474 1.87,0.824 0.645,0.409 0.821,0.467 0.821,0.272 0,-0.312 -2.947,-1.938 -2.947,-2.085 0,-0.245 0.812,0.464 1.281,0.6 0.62,0.18 2.695,2.064 2.336,1.406 C 22.494,8.778 18.974,7.478 18.821,6.892 18.694,6.405 15.976,5.476 15.341,5.169 12.232,3.662 12.296,4.562 12.085,4.234 11.845,3.859 7.051,3.183 5.97,3.001 4.729,2.792 0.239,0.535 0,0 M 5.692,5.421 C 5.293,5.3 5.319,5.574 5.724,5.759 6.244,5.996 6.415,5.639 5.692,5.421 m 1.98,1.722 C 6.704,6.666 6.568,6.566 6.557,6.566 5.984,6.233 5.767,6.326 6.153,6.739 7.028,7.675 10.009,8.293 7.672,7.143 M 6.508,6.094 C 6.304,6.425 9.964,7.978 10.325,7.714 10.603,7.51 10.523,7.46 9.042,6.905 6.365,5.901 6.607,5.935 6.508,6.094 M -1.364,0.293 c 2.598,3.549 -0.512,-0.175 -0.92,-0.836 -0.353,-0.57 -0.176,0.104 0.266,1.015 0.284,0.585 0.49,1.09 0.458,1.122 -0.14,0.139 -2.321,-4.177 -2.329,-4.187 -0.325,-0.408 -1.277,-3.77 -1.28,-3.78 -0.226,-0.691 0.55,0.907 0.359,-0.268 -0.087,-0.535 -0.78,-1.877 -0.924,-1.788 -0.054,0.033 -0.231,-0.212 -0.393,-0.544 -0.71,-1.453 -0.732,-0.947 -0.848,-0.347 -1.147,-2.106 -1.447,-1.909 -1.141,-1.177 0.54,1.293 -0.272,0.133 -0.489,-0.329 0.01,-0.005 -0.243,-0.48 -0.348,-0.48 -0.173,0 -0.144,0.266 0.07,0.64 0.248,0.434 0.255,0.725 0.012,0.523 -0.138,-0.114 -0.193,-0.111 -0.239,0.017 -0.032,0.092 -0.162,-0.048 -0.293,-0.318 -0.212,-0.437 -0.556,-0.604 -0.47,-0.227 0.106,0.459 0.139,1.543 0.047,1.543 -0.124,0 -0.403,-0.87 -0.403,-1.257 0,-0.146 -0.06,-0.303 -0.134,-0.349 -0.092,-0.056 -0.114,0.185 -0.068,0.749 0.074,0.924 -0.163,1.253 -0.528,0.732 -0.385,-0.551 -0.452,-0.292 -0.221,0.858 0.118,0.587 -0.43,-0.202 -0.303,0.459 0.035,0.186 0.015,0.307 -0.045,0.27 -0.152,-0.094 -0.038,-0.231 -0.305,-0.743 -0.106,-0.204 -0.182,-0.434 -0.17,-0.513 0.067,-0.415 -0.19,-1.103 -0.412,-1.103 -0.417,0 0.031,0.194 0.181,1.541 0.186,1.67 1.814,3.342 2.062,5.986 0.043,0.456 0.2,0.296 0.2,0.767 0,0.637 0.532,0.811 0.984,5.032 0.103,0.958 0.425,1.589 0.425,1.986 0,0.405 0.385,0.553 0.385,0.712 0,0.037 1.457,3.054 2.274,3.997 0.55,0.635 0.361,0.736 0.597,0.736 0.459,0 1.573,1.667 6.482,3.003 1.939,0.527 1.979,0.693 4.292,1.049 0.787,0.122 1.846,0.817 2.239,0.817 0.135,0 0.281,0.058 0.324,0.128 0.351,0.568 0.849,-0.04 0.532,-0.648 C 8.324,14.625 8.266,13.76 8.101,13.45 7.298,11.943 6.442,10.134 6.362,8.977 6.289,7.919 4.01,3.743 2.979,3.163 2.274,2.767 2.492,2.46 2.037,2.287 1.562,2.106 1.117,1.507 0.772,1.507 0.641,1.507 0.534,1.45 0.534,1.38 c 0,-0.22 -1.423,-1.089 -1.863,-1.507 -0.401,-0.381 -0.424,-0.112 -0.035,0.42 m -0.94,-1.65 c -0.024,-0.015 -0.146,-0.105 -0.269,-0.199 -0.266,-0.204 -0.288,-0.044 -0.04,0.284 0.257,0.338 0.342,-0.064 0.309,-0.085 m -1.753,-2.902 c -0.359,-0.746 -0.398,-0.218 -0.041,0.568 0.335,0.739 0.475,1.226 0.724,1.226 0.246,0 0.066,-0.24 -0.683,-1.794 m -5.594,-8.154 c -0.255,-0.489 -0.26,-0.025 -0.006,0.53 0.149,0.325 0.178,0.342 0.187,0.111 -0.01,0 0.017,-0.261 -0.181,-0.641 m -3.137,-0.175 c -0.091,-0.528 -0.307,-1.386 -0.482,-1.907 -0.488,-1.457 -0.271,-1.808 -0.444,-1.808 -0.056,0 -0.092,-0.044 -0.08,-0.097 0.03,-0.127 -0.245,-1.128 -0.475,-1.725 -0.26,-0.677 0.033,-0.869 -0.166,-0.869 -0.109,0 -0.139,-0.386 -0.122,-0.386 0.019,-0.678 -0.397,-0.798 -0.098,0.463 1.632,6.895 2.033,7.603 1.747,7.426 -0.065,-0.04 -0.103,0.024 -0.086,0.141 0.046,0.314 0.587,0.492 0.587,0.193 0,-0.498 -0.114,0.134 -0.381,-1.431 m -1.911,-8.106 c -0.575,-1.809 -1.358,-9.771 -1.36,-9.781 -0.3,-2.067 -0.225,-2.834 -0.324,-2.101 -0.155,1.154 0.521,8.456 0.867,9.353 0.004,0.01 0.546,2.683 0.546,2.846 0,0.626 0.503,0.412 0.271,-0.317 m 0.822,6.841 c 0.218,0.699 0.655,0.385 0.349,0.276 -0.172,-0.061 -0.16,-0.263 -0.16,-0.231 0,-0.202 -0.331,-0.5 -0.189,-0.045 m 0.059,7.992 c 0.102,0.455 0.109,2.016 0.008,1.794 -0.176,-0.385 -0.072,-0.779 -0.281,-0.908 -0.286,-0.176 0.015,1.94 0.475,3.343 0.791,2.414 0.184,1.907 0.184,1.617 0,-0.132 -0.092,-0.316 -0.203,-0.409 -0.181,-0.15 -0.193,-0.113 -0.117,0.337 0.15,0.887 0.195,0.982 0.384,0.825 0.287,-0.238 0.519,1.753 0.254,2.182 -0.181,0.293 0.005,1.41 -0.19,0.957 -0.218,-0.506 -0.009,0.281 -0.256,0.128 -0.211,-0.13 -0.01,0.631 -0.629,1.368 -0.276,0.328 -0.425,1.7 -0.14,1.259 0.103,-0.159 0.125,-0.149 0.129,0.064 0.006,0.303 0.503,-0.237 0.509,-0.552 0.001,-0.095 0.067,-0.128 0.152,-0.075 0.228,0.14 -0.072,-0.184 0.11,-0.663 0.211,-0.553 -0.213,-0.002 -0.113,-0.303 0.071,-0.213 0.064,-0.034 0.462,-0.248 0.802,-0.429 -0.418,1.393 0.03,1.393 0.174,0 0.205,-0.527 0.472,-1.057 0.672,-1.334 0.601,-4.926 -0.144,-7.274 -0.089,-0.282 -0.984,-4.146 -0.678,-4.269 0.128,-0.052 0.128,-0.067 0,-0.075 -0.231,-0.015 -0.099,-0.395 -0.289,-0.395 -0.115,0 -0.202,0.641 -0.129,0.961 m 2.577,8.265 c 0.148,1.111 0.098,-1.41 0.065,-1.41 -0.1,0 -0.14,0.849 -0.065,1.41 m -0.857,2.658 c 0.184,0.184 0.392,-0.608 0.221,-0.608 -0.151,0 -0.332,0.497 -0.221,0.608 m -0.614,-12.909 c -0.245,0 0.004,1.816 0.034,0.609 0.008,-0.335 -0.007,-0.609 -0.034,-0.609 m 0.892,6.811 c -0.053,-0.332 -0.182,-1.402 -0.342,-1.5 -0.064,-0.04 -0.117,-0.24 -0.117,-0.445 0,-0.941 -1.145,-2.354 -0.312,0.196 0.818,2.499 0.951,5.874 0.781,6.044 -0.046,0.046 -0.083,0.262 -0.081,0.48 0.011,1.117 0.671,-0.957 0.071,-4.775 m -0.071,-5.329 c -0.156,-0.41 -0.449,-0.445 -0.34,-0.04 0.111,0.417 0.026,0.608 0.273,0.608 0.224,0 0.238,-0.117 0.067,-0.568 m -0.353,1.631 c 0.071,-0.125 -0.277,-0.978 -0.285,-0.641 -0.009,0.336 0.395,1.928 0.524,2.07 0.061,0.067 0.111,0.255 0.111,0.417 0,0.384 0.311,0.4 0.216,0.006 -0.455,-1.868 -0.663,-1.755 -0.566,-1.852 m -9.389,15.214 c -0.388,0.33 -0.836,0.641 -0.995,0.691 -0.514,0.164 -2.208,2.058 -2.208,2.47 0,0.225 -0.546,0.707 -0.793,1.63 -0.233,0.871 -0.421,0.393 -0.519,0.903 -0.103,0.541 0.287,-0.048 0.1,0.399 -0.149,0.359 -0.355,1.892 -0.557,2.386 -0.26,0.634 -0.095,1.51 -0.409,1.513 -0.167,0.002 -0.168,0.018 -0.006,0.12 0.157,0.1 0.162,0.216 0.032,0.735 -0.292,1.169 -0.349,2.475 -0.109,2.475 0.116,0 0.211,-0.06 0.211,-0.134 0,-0.187 0.378,-0.021 0.344,-0.141 -0.04,-0.141 0.475,-0.529 0.329,-0.675 -0.13,-0.13 0.335,-0.458 0.54,-0.379 0.089,0.034 0.192,-0.049 0.227,-0.184 0.105,-0.402 0.981,-0.328 1.122,-0.52 0.174,-0.236 0.824,-0.557 0.867,-0.428 0.026,0.077 0.13,0.109 0.23,0.07 0.297,-0.114 -0.079,-0.23 0.421,-0.248 0.547,-0.019 4.346,-1.557 7.004,-3.575 0.661,-0.502 3.009,-2.908 3.01,-3.084 10e-4,-0.281 0.844,-0.573 1.586,-2.577 1.243,-3.352 0.811,-2.755 1.196,-3.819 0.224,-0.619 0.352,-2.424 0.165,-2.308 -0.233,0.144 0.007,0.746 -0.857,2.143 -0.057,0.093 -0.652,1.349 -1.577,2.081 -0.517,0.41 -1.017,0.965 -1.087,0.965 -0.023,0 -0.488,0.303 -1.033,0.673 -1.045,0.709 -1.061,0.731 -1.935,2.658 -0.985,2.173 -1.52,2.114 -1.908,2.831 -0.155,0.288 -0.512,0.512 -0.728,0.663 1.631,-2.592 0.43,-0.086 2.246,-3.43 1.129,-2.079 0.864,-1.747 -0.53,-0.96 -0.949,0.536 -4.009,2.69 -4.246,2.69 -0.061,0 -0.13,0.044 -0.154,0.098 -0.112,0.258 -1.256,1.055 -1.513,1.055 -0.22,0 -0.258,0.04 -0.156,0.163 0.097,0.117 0.067,0.25 -0.11,0.48 -0.336,0.438 -0.272,0.615 -0.122,0.382 0.204,-0.314 0.148,0.257 0.014,0.257 -0.12,0 -0.573,0.741 0.136,0.381 0.295,-0.151 0.295,-0.149 -0.022,0.162 -0.235,0.231 -0.331,0.267 -0.363,0.135 -0.071,-0.3 -0.344,-0.095 -0.309,0.233 0.026,0.239 0.005,0.264 -0.092,0.114 -0.26,-0.4 -0.992,0.489 -0.677,0.604 0.212,0.077 0.201,0.333 0.032,0.229 -0.183,-0.114 -0.042,0.217 -0.32,0.448 -0.262,0.218 -0.251,0.527 0.016,0.425 0.571,-0.22 -0.849,1.227 -0.849,0.662 0,-0.105 0.067,-0.19 0.149,-0.19 0.199,0 -0.079,-0.083 0.151,-0.438 0.241,-0.374 0.662,-2.177 1.082,-2.619 0.34,-0.359 -0.296,-0.227 -0.163,-1.592 0.116,-1.191 0.153,-1.295 0.53,-1.468 0.486,-0.222 0.51,-0.122 0.101,0.414 -0.349,0.458 -0.621,1.987 -0.353,1.987 0.15,0 0.732,-0.599 1.317,-1.355 1.223,-1.58 2.064,-1.427 1.412,-1.078 -0.279,0.15 -1.535,1.355 -1.535,1.474 0,0.22 0.429,-0.045 1.122,-0.692 1.419,-1.327 4.003,-2.761 4.003,-2.975 0,-0.174 -0.095,-0.037 -1.433,0.141 -1.574,0.211 -1.712,0.304 -1.516,0.067 0.336,-0.405 2.76,0.005 6.152,-1.975 0.401,-0.233 0.674,-0.268 1.282,-0.801 0.645,-0.567 1.28,-1.003 1.025,-1.003 -0.268,0.002 -0.75,0.664 -0.91,0.565 -0.203,-0.125 0.072,0.151 -0.468,0.28 -0.282,0.067 -0.731,0.258 -0.736,0.259 -2.101,0.411 -2.115,0.535 -2.115,0.302 0,-0.07 0.116,-0.128 0.258,-0.128 1.044,0 4.466,-1.512 4.719,-2.084 0.024,-0.054 0.123,-0.178 0.22,-0.275 0.879,-0.879 1.908,-4.113 1.769,-5.56 -0.119,-1.241 -0.106,-1.698 -0.208,-1.947 -0.363,-0.889 -0.648,-3.756 -0.864,-4.292 -0.122,-0.301 -0.253,-0.892 -0.263,-0.897 -0.369,-1.486 -0.47,-1.053 -0.124,0.531 0.935,4.287 1.411,7.665 -1.443,9.956 -0.337,0.271 -0.692,0.462 -0.789,0.425 -0.255,-0.098 -0.486,0.427 -0.947,0.427 -0.385,0 -4.213,0.65 -7.069,3.079 m 14.638,4.013 c 0.064,0.101 0.098,0.087 0.108,-0.045 0.263,-3.556 -0.403,-0.416 -0.108,0.045 m 0.12,3.287 c 0.185,0 -0.115,-0.1 0.159,-0.606 0.257,-0.474 0.191,-0.467 0.198,0.077 0.009,0.753 0.631,0.183 0.398,-1.65 -0.195,-1.531 0.263,-1.434 0.019,-3.174 C -6.206,11.68 -6.203,11.418 -6.088,11.345 -5.984,11.279 -6,11.248 -6.14,11.247 -6.339,11.245 -6.519,10.696 -6.506,10.7 c -0.988,-3.314 0.543,2.743 -0.216,4.709 -0.384,0.995 -0.473,2.371 -0.153,2.371 m 1.859,-4.233 c 0.097,0.089 -0.088,-2.131 -0.361,-1.858 -0.077,0.078 0.249,1.756 0.361,1.858 m 3.103,0.773 c 0.021,-1.089 -0.542,-0.761 -0.172,0.076 0.219,0.496 0.161,0.522 0.172,-0.076 m 0.418,0.739 c -0.435,-0.435 -0.207,4.194 0.034,1.233 0.054,-0.668 0.04,-1.159 -0.034,-1.233 m -1.659,-1.764 c 0.397,0.859 0.612,3.814 0.455,4.573 -0.274,1.322 -0.177,2.036 0.231,1.698 0.152,-0.126 0.183,-0.084 0.183,0.248 0,0.473 0.032,0.483 0.433,0.134 0.597,-0.519 0.528,-1.399 -0.189,-2.434 -0.175,-0.253 -0.221,-0.535 -0.196,-1.217 0.042,-1.159 -0.072,-0.856 -0.353,-2.205 -0.366,-1.753 -1.175,-2.121 -0.564,-0.797 m 1.984,2.516 c -0.201,0.201 -0.044,3.411 0.22,1.075 0.047,0 0.082,-1.377 -0.22,-1.075 m -2.161,5.718 c -0.31,1.287 -0.201,1.714 0.147,0.575 0.259,-0.847 0.314,-0.306 0.08,0.784 -0.802,3.728 -0.814,2.711 -0.602,1.869 0.162,-0.642 0.124,-1.051 0.113,-1.404 -0.228,0.578 -0.305,0.705 -0.37,0.705 -0.129,0 -0.459,1.328 -0.64,1.73 -2.363,5.254 1.155,12.03 0.997,12.633 -0.09,0.345 0.133,0.073 0.473,0.661 0.99,1.71 2.046,3.4 3.988,4.837 1.929,1.429 2.519,3.153 2.778,1.354 C 3.766,44.347 3.998,44.08 3.984,43.419 3.972,42.888 3.928,42.983 3.547,44.349 3.229,45.49 3.191,45.138 3.48,43.732 3.992,41.246 3.521,41.319 3.451,41.834 3.379,42.36 3.497,39.803 3.257,39.722 3.056,39.655 3.105,38.939 3.108,38.729 c 0.395,0.729 0.437,0.886 0.626,0.416 0.297,-0.739 -0.021,2.245 0.457,0.865 0.245,-0.704 0.195,-0.759 0.12,0.321 -0.094,1.347 -0.272,1.922 -0.07,1.922 0.279,0 0.239,-0.383 0.5,-2.409 C 4.848,39.016 4.726,38.672 4.514,39.201 4.415,39.448 4.393,39.395 4.387,38.889 4.379,38.29 4.021,37.955 3.976,38.505 3.966,38.628 3.923,38.503 3.88,38.226 3.797,37.69 3.542,37.474 3.443,37.857 3.381,38.098 3.193,36.89 3.71,37.407 c 0.213,0.213 0.265,0.119 0.326,-0.599 0.073,-0.852 0.409,-0.807 0.293,-0.505 -0.31,0.807 -0.25,1.305 0.215,1.783 0.388,0.4 0.462,0.434 0.514,0.235 0.102,-0.398 -0.021,0.791 0.613,1.241 0.304,0.215 0.003,0.912 -0.137,1.217 0.064,-1.037 -0.251,-1.365 -0.373,-1.289 -0.133,0.082 -0.02,0.24 -0.454,2.442 -0.641,3.26 -0.225,3.537 0.739,-0.897 0.056,-0.254 0.204,0.477 -0.241,2.05 -0.496,1.757 -0.459,1.952 -0.817,2.86 -0.73,1.85 0.331,0.847 1.089,-2.283 0.25,-1.033 0.695,-2.118 0.695,-2.447 0,-0.489 1.029,-1.268 -1.354,5.074 -0.46,1.225 -0.481,1.309 -0.381,1.567 0.13,0.334 0.454,-0.14 0.454,-0.663 0,-0.475 1.252,-3.243 1.717,-3.795 0.183,-0.218 0.333,-0.458 0.333,-0.535 0,-0.353 0.497,-0.27 1.489,-3.173 0.824,-2.411 0.21,-7.876 -1.046,-9.315 -2.925,-3.35 -1.615,-2.395 -3.635,-5.041 -0.272,1.01 -0.613,2.104 -0.124,2.298 0.796,0.316 3.444,3.774 3.444,3.923 0,0.63 -2.662,-3.141 -3.255,-3.141 -0.078,0 -0.219,-0.122 -0.312,-0.271 -0.256,-0.409 -0.917,1.312 -0.917,2.385 0,0.521 -0.773,1.373 0.008,-1.106 0.361,-1.146 0.445,-1.905 0.211,-1.905 -0.522,0 -1.972,6.436 -1.514,6.719 0.362,0.223 0.148,-1.337 0.547,-1.337 0.157,0 0.011,0.096 -0.076,0.587 -0.037,0.206 -0.127,0.688 -0.2,1.071 -0.138,0.73 0.007,1.178 0.253,0.779 0.15,-0.242 0.362,-0.071 0.17,0.236 -0.148,0.238 -0.083,0.915 0.089,0.915 0.142,0 0.255,-0.344 0.255,-0.772 0,-0.481 0.309,-0.633 0.218,-0.302 C 1.93,37.639 2.51,38.077 2.652,37.436 2.786,36.835 2.821,36.783 2.818,37.191 2.815,37.728 2.492,38.967 2.471,38.518 2.45,38.034 2.072,38.149 2.072,37.78 2.072,37.521 1.855,37.301 1.727,37.429 1.567,37.59 1.144,41.545 1.215,42.221 1.377,43.769 0.224,41.977 1.474,37.451 1.674,36.726 1.083,34.474 0.729,34.61 0.609,34.656 0.562,34.45 0.549,33.832 0.523,32.646 0.15,31.609 0.15,32.724 c 0,0.853 -2.039,2.876 -2.052,5.284 -0.01,1.886 -1.408,0.944 0.927,-3.631 1.517,-2.972 0.79,-2.829 0.924,-4.283 0.246,-2.664 -0.107,-2.551 -0.559,0.178 -0.272,1.645 -0.017,-1.645 0.182,-2.366 0.267,-0.969 0.164,-2.021 0.103,-1.702 -0.069,0.36 -0.359,0.432 -0.238,-0.064 0.753,-3.101 0.285,-3.721 -0.599,1.153 -0.136,0.751 -0.354,1.003 -0.354,0.409 0,-0.488 -0.204,-0.27 -0.372,0.395 -0.081,0.322 -0.197,0.554 -0.258,0.516 -0.239,-0.148 -1.124,2.017 -1.348,3.296 -0.148,0.844 -0.507,0.338 -0.071,-0.932 0.2,-0.583 0.456,-1.718 0.677,-1.946 1.389,-1.431 0.975,-3.571 1.797,-6.319 1.198,-4.006 0.59,-4.75 0.423,-3.552 -0.15,1.079 -1.686,7.872 -1.772,7.926 -0.172,0.106 -0.011,0.047 0.091,-0.983 0.219,-2.216 1.568,-6.017 1.095,-6.017 -0.572,0 -2.034,7.072 -2.036,6.342 -0.003,-1.157 0.782,-3.238 0.665,-3.429 -0.036,-0.058 -0.012,-0.175 0.055,-0.26 0.098,-0.126 0.67,-2.119 0.67,-2.336 0,-0.063 -0.256,-0.14 -0.256,0.139 0,0.307 -0.177,-0.076 -0.383,0.309 -0.209,0.39 -0.349,0.313 -0.285,-0.157 0.106,-0.774 -0.267,-0.161 -0.507,0.835 m 7.114,25.208 c 0.193,0 0.321,-0.595 0.331,-0.595 0.302,-1.202 -0.376,-0.689 -0.376,-0.302 0,0.113 -0.065,0.271 -0.145,0.351 -0.181,0.18 -0.054,0.546 0.19,0.546 M 0.076,20.067 c 0.082,-0.617 -0.023,-0.994 -0.223,-0.795 -0.219,0.22 -0.015,2.595 0.223,0.795 m 0.285,1.31 c 0.093,-0.884 -0.017,-1.061 -0.144,-0.234 -0.341,2.212 0.053,1.11 0.144,0.234 m 0.296,4.773 c 0.222,-1.273 0.717,-2.348 0.565,-1.227 -0.06,0.445 -0.051,0.463 0.129,0.242 0.267,-0.33 0.783,-2.634 0.625,-2.792 C 1.898,22.295 1.825,22.484 1.777,22.894 1.608,24.32 1.094,24.312 1.431,23.29 1.795,22.188 1.532,19.127 1.27,21.46 1.168,22.369 0.869,23.392 0.976,22.456 1.01,22.154 1.257,19.061 1.134,19.061 c -0.182,0 -0.314,0.517 -0.391,1.538 -0.138,1.804 -0.831,4.1 -0.49,4.1 0.304,0 0.291,-1.193 0.567,-1.364 0.179,-0.11 0.034,1.025 -0.225,1.758 -0.104,0.294 -0.189,0.701 -0.189,0.903 0,0.499 -0.256,0.254 -0.256,0.689 0,0.702 0.357,0.325 0.507,-0.535 m 0.358,-0.352 c -0.098,0.098 -0.18,0.916 0.044,0.53 0.146,-0.25 0.11,-0.686 -0.044,-0.53 m 0.354,1.947 c 0.105,-0.821 0.319,-0.617 0.319,-1.132 0.01,0 0.013,-0.377 -0.193,-0.377 -0.29,0 -0.111,0.448 -0.322,0.578 -0.189,0.117 0.078,0.262 -0.097,0.485 -0.752,0.959 -0.596,7.387 0.293,0.446 M 2.31,27.047 C 1.454,26.016 0.803,33.168 0.964,33.019 1.079,32.912 1.257,31.057 1.488,30.598 1.716,30.145 2.138,28.178 2.329,27.592 2.412,27.337 2.406,27.162 2.31,27.047 M 2.36,22.94 C 2.097,22.847 2.301,23.649 2.046,23.904 1.847,24.103 2.105,23.865 1.867,24.655 1.66,25.343 1.698,25.776 1.706,26.172 1.715,26.148 2.094,25.191 2.008,25.105 1.901,24.997 2.305,24.813 2.376,24.203 2.523,22.945 2.773,24.359 2.307,25.404 1.95,26.202 2.112,26.914 2.551,26.475 2.634,26.392 2.705,26.487 2.758,26.752 2.856,27.243 3.123,27.2 3.242,26.675 3.289,26.469 3.392,26.023 3.47,25.684 3.613,25.066 3.372,24.253 3.185,24.722 3.072,25.004 3.224,23.418 2.59,23.418 2.434,23.417 2.591,23.021 2.36,22.94 m -2.698,-1.75 c -0.129,-0.08 -0.281,0.495 -0.281,1.065 0,0.188 -0.065,0.407 -0.144,0.486 -0.2,0.2 -0.678,2.838 -0.83,3.352 -0.14,0.477 0.264,0.216 0.314,-0.06 0.002,-0.01 1.497,-4.499 0.941,-4.843 m -0.006,-3.823 c -0.042,0.324 0.512,1.577 0.591,1.338 0.028,-0.083 0.041,-0.188 0.03,-0.235 -0.055,-0.226 0.49,-0.057 0.015,-0.699 -0.489,-0.662 0.139,-0.154 -0.342,-1.241 0,-0.022 -0.316,-0.672 -0.426,-0.672 -0.156,0 -0.12,0.758 0.048,1.025 0.067,0.105 0.105,0.323 0.084,0.484 M 1.88,15.858 c 0.313,0.605 0.643,0.463 0.249,-0.1 -0.295,-0.42 -0.48,-0.346 -0.249,0.1 M 9.6,32.035 c 0.44,0.359 0.801,0.691 0.801,0.738 0,0.124 0.66,0.405 0.747,0.318 0.113,-0.113 -0.954,-0.925 -0.861,-1.018 0.021,-0.021 2.251,1.676 2.273,1.697 0.258,0.242 0.345,0.077 0.092,-0.175 -0.436,-0.436 -0.051,-0.342 0.41,0.1 0.391,0.376 1.04,0.814 2.38,1.605 0.132,0.078 -0.124,-0.477 -0.337,-0.483 -0.234,-0.006 -3.053,-2.923 -1.057,-1.118 0.529,0.479 0.725,0.289 0.625,0.551 -0.086,0.225 -0.155,-0.066 1.547,1.058 0.77,0.507 1.447,0.923 1.506,0.923 0.154,0 0.13,-0.181 -0.048,-0.359 -0.607,-0.608 1.36,0.616 1.578,0.61 0.216,-0.006 -0.781,-0.887 -1.007,-0.89 -0.089,-10e-4 -0.161,-0.058 -0.161,-0.126 0,-0.177 -1.133,-0.918 -1.793,-1.579 -2.349,-2.347 -1.626,-2.017 -0.961,-1.305 1.461,1.563 6.432,5.446 5.637,4.161 -0.116,-0.188 0.159,-0.156 0.649,0.077 0.774,0.367 0.765,0.11 -0.015,-0.403 -1.68,-1.106 -4.931,-4.333 -4.924,-4.745 0.003,-0.168 0.213,0.286 0.31,0.189 0.057,-0.057 -0.581,-1.043 -0.82,-1.268 -1.157,-1.088 -0.906,-1.639 -3.915,-4.032 -1.206,-0.959 -2.057,-1.959 -2.176,-1.841 -0.077,0.077 0.577,1.312 0.777,1.466 0.132,0.103 1.825,3.273 1.888,3.512 0.346,1.323 -1.681,-2.921 -3.162,-4.627 C 7.905,23.138 9.729,24.914 8.07,22.918 8.061,22.908 5.403,19.495 5.403,19.055 5.403,18.653 5.108,19.075 4.558,18.26 4.044,17.498 3.187,16.361 3.096,16.18 2.023,14.026 1.528,14.429 2.054,15.104 c 0.451,0.578 0.829,1.594 1.78,2.949 0.418,0.596 0.518,0.83 0.298,0.694 C 3.96,18.641 2.999,17.179 2.904,16.879 2.778,16.485 1.855,15.938 2.76,17.395 3.288,18.247 3.423,18.886 4.345,20.214 4.731,20.77 4.212,20.318 3.725,19.532 1.574,16.06 0.134,13.185 0.343,14.281 c 0.149,0.787 0.14,0.167 0.773,1.467 1,2.053 1.852,3.147 1.403,2.974 -0.248,-0.095 -0.2,-0.379 -0.685,-1.135 -1.212,-1.889 -1.642,-3.138 -1.844,-3.138 -0.089,-10e-4 -0.102,-0.196 -0.096,-0.185 0,-0.25 -0.524,-0.717 -0.01,0.482 0.343,0.801 0.054,0.626 0.327,0.853 0.286,0.237 0.132,0.515 0.321,0.515 0.168,0 0.683,1.025 0.528,1.025 -0.182,0 -0.246,-0.459 -0.259,0.07 -0.014,0.526 0.126,0.344 0.512,1.468 1.932,5.618 2.168,4.618 2.168,5.116 0,0.067 3.57,6.166 6.119,8.242 m 13.229,4.861 c 0,-0.191 -5.697,-5.663 -5.452,-5.663 0.687,0 6.127,6.023 6.474,6.023 0.618,0 -1.658,-1.875 -2.816,-3.318 -0.975,-1.217 -4.095,-4.108 -4.321,-4.108 -0.707,-0.376 -1.159,-0.716 -1.505,-0.964 0.102,0.144 0.562,0.83 0.701,0.83 0.178,0 0.037,0.23 0.74,0.997 0.7,0.765 0.46,0.929 0.746,1.091 0.099,0.057 0.18,0.184 0.18,0.284 0,0.822 5.253,5.236 5.253,4.828 M 3.866,16.169 c 0,-0.327 -1.153,-2.027 -1.153,-1.289 0,0.256 0.971,1.547 1.421,2.447 C 4.845,18.751 4.571,17.55 4.127,16.799 3.984,16.555 3.866,16.272 3.866,16.169 M 25.2,37.128 c -0.129,-0.208 0.216,-0.147 0.47,0.084 0.218,0.197 0.234,0.197 0.234,0 0,-0.117 -0.043,-0.214 -0.096,-0.214 C 25.67,36.997 24.89,36.225 24.367,35.573 22.72,33.52 17.685,28.88 18.729,29.645 c 3.852,2.823 6.601,6.963 6.962,6.968 1.116,0.018 -9.808,-10.739 -6.641,-7.845 0.01,0.009 3.139,2.65 3.139,2.893 0,0.099 1.415,1.49 1.953,2.231 1.031,1.418 0.004,-0.687 -0.183,-0.929 -0.312,-0.403 -0.952,-1.164 -1.296,-1.656 -0.32,-0.458 -0.603,-0.253 -0.603,-0.516 0,-0.254 -1.067,-1.158 -1.645,-1.786 -1.231,-1.338 -2.126,-1.967 -1.238,-1.463 1.415,0.801 4.316,4.577 4.397,4.167 0.18,-0.918 -3.268,-4.133 -3.73,-4.915 -0.145,-0.245 -0.474,-0.118 -0.474,-0.301 0,-0.324 1.576,1.059 2.337,2.05 0.631,0.822 1.371,1.603 1.375,1.453 0.006,-0.26 -3.92,-4.967 -1.822,-2.734 1.757,1.869 1.034,0.355 -0.041,-0.807 -0.486,-0.525 -0.807,-0.976 -0.767,-1.08 0.038,-0.1 -0.183,-0.446 -0.507,-0.792 -0.552,-0.59 -0.784,-0.985 -0.383,-0.653 0.477,0.396 -0.024,-0.76 -0.254,-0.388 -0.107,0.172 -0.421,0.016 -0.188,-0.128 0.12,-0.075 0.058,-0.231 -0.239,-0.607 -0.603,-0.761 -0.114,-0.671 -0.387,-0.671 -0.27,0 -3.161,-2.491 -4.314,-3.288 -2.2,-1.521 -3.038,-1.821 -3.969,-2.49 -0.85,-0.61 -1.154,-0.456 -0.511,0.258 0.31,0.345 0.404,0.509 0.241,0.423 C 9.576,16.844 9.173,16.228 8.942,16.601 8.907,16.658 9.051,16.889 9.262,17.114 9.849,17.742 9.504,17.6 8.868,16.952 7.907,15.973 7.212,15.877 8.106,16.846 9.017,17.835 8.503,17.629 7.533,16.617 7.023,16.085 6.54,15.671 6.46,15.698 6.178,15.792 6.418,16.164 7.517,17.346 9.209,19.162 8.152,18.478 6.127,16.071 5.017,14.752 5.116,15.705 5.511,16.176 5.715,16.42 5.714,16.423 5.468,16.24 5.096,15.964 4.891,15.76 4.891,15.666 c 0,-0.076 -0.193,-0.28 -0.183,-0.266 -0.851,-0.85 0.439,1.202 0.439,1.312 0,0.05 0.11,0.209 0.244,0.355 0.351,0.38 0.944,1.489 0.751,1.404 -0.672,-0.297 -2.276,-3.714 -2.276,-3.02 0,0.409 2.27,3.918 2.409,4.187 0.421,0.812 1.306,1.586 1.306,1.762 0,0.053 0.087,0.096 0.193,0.096 0.349,0 0.201,-0.358 -0.643,-1.55 -1.554,-2.196 -0.19,-0.942 -0.19,-0.703 0,0.151 1.516,2.03 1.886,2.782 0.629,1.281 3.825,3.717 7.845,4.395 0.102,0.017 0.209,0.102 0.238,0.188 0.057,0.174 -0.76,0.098 -1.344,-0.124 -0.175,-0.067 -0.365,-0.092 -0.423,-0.056 -0.213,0.132 -3.78,-1.534 -4.093,-1.91 -0.236,-0.285 -0.258,-0.09 -0.812,-0.484 -0.525,-0.374 -0.494,-0.415 -0.091,0.128 0.401,0.543 0.55,0.369 0.446,0.537 -0.087,0.141 0.019,-0.078 1.409,1.153 1.548,1.372 1.474,0.967 1.474,1.19 0,0.218 0.452,0.369 1.431,1.155 1.698,1.363 2.242,1.405 2.87,1.88 0.277,0.21 0.551,0.383 0.609,0.385 0.283,0.009 3.322,2.61 3.439,2.942 0.057,0.162 5.651,6.003 1.773,2.399 -0.528,-0.491 -3.203,-3.711 -3.203,-3.208 0,0.144 -0.375,-0.464 -0.381,-0.25 -0.01,0.378 3.92,4.26 4.312,4.535 0.517,0.363 1.036,0.51 0.874,0.248 M 7.349,9.437 C 6.725,9.197 6.674,9.54 8.211,10.323 8.005,10.042 7.695,9.57 7.349,9.437 M 7.838,9.268 c 0,0.264 2.198,1.464 2.681,1.464 0.185,0 1.547,0.694 1.547,0.4 0,-0.148 -0.848,-0.656 -1.094,-0.656 -0.298,0 -3.134,-1.471 -3.134,-1.208 m 4.741,1.365 c -0.569,-0.144 -0.719,0.014 -0.16,0.17 0.959,0.266 0.8,-0.007 0.16,-0.17 m -3.932,1.744 c 0.882,0.484 1.59,1.044 1.065,0.843 -0.146,-0.057 -0.19,-0.027 -0.143,0.096 0.152,0.397 3.685,1.781 4.95,1.939 0.257,0.032 0.523,0.093 0.591,0.135 0.527,0.326 3.482,-0.298 6.56,0.527 2.016,0.541 -0.916,-0.682 -0.487,-0.694 0.378,-0.011 2.893,1.626 1.604,0.428 -1.799,-1.673 2.071,1.344 2.582,1.837 0.216,0.209 0.322,0.211 0.198,0.003 -0.775,-1.295 -4.216,-3.683 -4.558,-3.683 -0.106,0 -0.254,-0.315 0.251,-0.102 0.505,0.213 2.466,1.523 2.466,1.646 0,0.057 0.11,0.139 0.245,0.182 0.508,0.161 2.937,3.087 3.228,2.796 0.133,-0.132 -0.364,-0.807 -0.594,-0.807 -0.057,0 -0.628,-0.533 -1.271,-1.185 -2.495,-2.533 -3.961,-3.424 -7.299,-4.439 -1.169,-0.356 -2.939,-0.682 -3.377,-0.624 -0.637,0.086 0.367,0.106 0.932,0.357 0.427,0.189 -0.511,0.055 -1.716,-0.247 -1.306,-0.326 -1.259,-0.325 -0.975,-0.012 0.39,0.432 4.458,2.593 3.566,2.559 -0.154,-0.006 -0.527,-0.381 -0.804,-0.381 -0.278,0 -1.054,-0.768 -1.19,-0.768 -0.139,-10e-4 -1.478,-0.873 -1.571,-1.024 -0.115,-0.186 -0.137,0.045 -1.714,-0.578 -1.822,-0.721 -2.304,-0.418 -0.594,0.372 0.884,0.408 1.275,0.679 0.737,0.51 -0.139,-0.043 -0.09,0.045 0.128,0.234 0.872,0.75 -0.331,0.444 -1.233,-0.422 -0.907,-0.87 -1.977,-1.207 -1.847,-1.207 -2.802,-1.576 0.102,0.705 0.463,0.705 0.065,0 0.191,0.087 0.279,0.192 0.218,0.264 0.64,0.153 0.64,0.289 0,0.14 0.816,0.412 0.707,0.52 -0.197,0.198 -2.99,-1.579 -3.123,-1.446 -0.209,0.21 2.443,1.379 2.739,1.857 0.116,0.189 -0.48,-0.064 -1.117,-0.474 -1.52,-0.979 -1.546,-0.608 -0.318,0.066 m 18.034,6.3 c 0.171,0 -0.084,-0.287 -0.084,-0.277 -1.669,-1.895 -0.396,0.277 0.084,0.277 m -37.033,-33.562 c -0.219,-0.408 -0.033,-0.601 -0.328,-0.978 -0.181,-0.23 -0.189,-0.212 -0.111,0.264 0.191,1.172 0.649,1.106 0.439,0.714 m -2.71,-3.661 c -0.023,-0.522 -0.215,-0.957 -0.227,-0.512 -0.014,0.476 0.244,0.912 0.227,0.512 m -4.064,-22.847 c -0.112,-0.55 -0.029,-0.521 -0.309,-0.046 -0.194,0.329 0.116,0.748 0.368,0.496 0.015,-0.015 -0.011,-0.218 -0.059,-0.45 m -0.057,1.93 c 0.067,-0.546 -0.052,-1.542 -0.052,-0.417 0,0.458 0.023,0.646 0.052,0.417 m -0.029,-16.946 c 0.259,0.42 0.39,-0.356 0.38,-0.356 0.116,-0.691 -0.279,-1.658 -0.195,-0.252 0.044,0.725 -0.325,0.382 -0.185,0.608 m 0.425,0.983 c 0.371,-0.336 0.47,0.197 0.501,-0.215 0,0.034 0.018,-0.255 -0.073,-0.255 -0.172,0 -0.661,0.399 -0.661,0.539 0,0.078 0.105,0.047 0.233,-0.069 m 0.094,-2.777 c 0.105,0 0.148,-0.078 0.104,-0.192 -0.129,-0.336 -0.431,-0.22 -0.421,0.16 0.014,0.48 0.054,0.032 0.317,0.032 m -0.249,10.432 c 0.149,0.389 0.481,0.165 0.193,-0.291 -0.143,-0.224 -0.3,0.013 -0.193,0.291 m -3.537,78.398 0.266,-0.338 c 0.311,-0.396 0.288,-0.637 -0.042,-0.451 -0.261,0.147 -0.224,0.547 -0.224,0.789 m 1.998,3.778 c -0.173,0.304 0.151,0.159 0.361,-0.16 0.301,-0.46 -0.014,-0.446 -0.361,0.16 m -1.457,3.307 c 0.061,0.061 0.876,-0.715 0.604,-0.709 -0.187,0.005 -0.703,0.61 -0.604,0.709 M 8.415,2.913 c 6.724,0.691 10.572,3.455 11.82,4.027 0.557,0.256 0.073,0.181 1.439,1.11 1.327,0.903 0.727,0.532 1.681,1.542 2.424,2.567 1.928,3.062 2.295,3.062 0.179,0 0.075,0.466 0.247,0.572 0.198,0.122 1.138,1.995 1.28,2.119 0.011,0.009 0.735,1.842 0.888,2.216 0.551,1.351 0.002,2.381 -1.003,1.882 -1.58,-0.784 -2.165,-1.137 -2.562,-1.545 -1.145,-1.176 -3.936,-1.955 -6.835,-1.909 -4.345,0.069 -5.157,-0.926 -6.137,-1.057 -0.501,-0.067 -0.571,-0.371 -1.262,-0.66 -0.791,-0.331 -2.07,-1.819 -1.862,-1.282 0.345,0.893 0.776,2.868 1.93,2.868 0.402,0 -0.243,0.037 0.926,0.572 3.515,1.609 8.588,6.361 9.27,7.67 0.145,0.278 0.569,0.975 0.943,1.548 1.735,2.663 1.549,3.538 2.523,5.483 0.235,0.47 0.393,2.615 2.503,5.626 0.752,1.073 0.559,1.994 -0.248,1.186 -0.045,-0.045 -0.617,-0.1 -1.271,-0.124 -3.694,-0.133 -4.938,-0.743 -6.065,-0.875 -0.996,-0.116 -1.467,-0.221 -1.467,-0.326 0,-0.054 -0.195,-0.129 -0.434,-0.168 -0.887,-0.144 -5.442,-2.075 -6.774,-3.253 -0.264,-0.234 -0.524,-0.426 -0.578,-0.426 -0.315,0 -1.174,-1.391 -0.738,0.077 0.283,0.952 0.216,4.025 0.331,3.955 0.095,-0.059 -0.29,3.505 -1.361,5.322 -0.395,0.67 -0.725,1.409 -0.852,1.409 -0.728,0 -2.376,5.523 -1.815,6.083 0.114,0.114 0.169,0.246 0.122,0.293 C 4.823,50.436 4.206,47.469 0.514,44.388 -3.644,40.917 -5.751,35.396 -5.795,30.315 -5.812,28.303 -6,28.666 -6,28.858 c 0,0.36 -0.96,1.714 -1.898,2.678 -1.964,2.017 -5.763,3.62 -7.359,5.518 -0.361,0.43 -0.623,-0.131 -0.353,-0.759 0.061,-0.141 0.114,-0.184 0.119,-0.096 0.013,0.237 0.236,0.194 0.326,-0.064 0.043,-0.124 0.321,-0.343 0.617,-0.489 0.968,-0.473 0.264,-0.701 0.932,-1.138 0.358,-0.235 0.425,-0.126 0.088,0.145 -0.391,0.315 1.693,-0.822 3.136,-1.711 2.67,-1.644 4.011,-4.311 4.128,-4.399 0.73,-0.555 0.928,-2.47 1.149,-2.746 0.423,-0.527 1.091,-3.2 1.283,-5.134 0.089,-0.893 0.364,-0.822 0.408,0.104 0.023,0.511 0.485,-1.266 -0.109,-1.111 -0.207,0.054 -0.226,-0.103 -0.243,-1.937 -0.022,-2.306 -0.142,-4.037 -0.295,-4.227 -0.204,-0.256 -0.363,-1.863 -0.746,-1.863 -0.107,0 -0.149,0.088 -0.108,0.225 0.373,1.25 0.576,5.983 0.269,6.29 -0.028,0.028 0.038,0.14 0.147,0.248 0.319,0.32 -10e-4,4.129 -0.347,4.129 -0.053,0 -0.017,-0.332 0.08,-0.737 0.215,-0.9 0.239,-3.676 0.025,-3.011 -0.162,0.506 -0.37,0.553 -0.284,0.064 0.69,-3.946 0.044,-6.109 -0.034,-4.517 -0.24,4.941 -0.579,4.597 -0.474,3.966 0.119,-0.709 0.156,-2.47 0.058,-2.74 -0.146,-0.403 -0.401,0.502 -0.306,1.092 0.051,0.321 0.006,0.673 -0.13,1.012 -0.332,0.83 -0.189,2.093 0.175,1.539 0.099,-0.151 0.127,-0.118 0.128,0.153 0.003,0.51 -0.27,0.36 -0.171,0.779 0.099,0.419 0.129,3.613 0.234,4.033 0.051,0.205 0.015,0.289 -0.123,0.289 -0.553,0 0.217,-1.41 -0.6,-5.061 -0.492,0.835 -0.404,0.78 -0.302,0.256 0.306,-1.567 0.081,-2.285 -0.248,-0.79 -0.066,0.299 -0.113,0.337 -0.265,0.211 -0.187,-0.156 -0.445,0.254 -0.445,0.707 0,1.095 -2.407,5.861 -2.93,6.422 -0.131,0.142 -0.305,0.382 -0.387,0.534 -0.237,0.444 -1.317,1.565 -1.507,1.565 -0.631,0 0.98,-1.217 0.98,-1.601 0,-0.089 0.096,-0.241 0.214,-0.338 0.36,-0.296 0.939,-1.162 0.861,-1.287 -0.102,-0.167 0.591,-0.654 0.591,-0.933 0,-0.504 0.029,0.769 1.406,-3.2 0.743,-2.142 0.635,-2.413 0.793,-2.571 0.102,-0.102 -0.172,-1.218 -0.299,-1.218 -0.176,0 -0.12,-0.307 0.116,-0.644 0.485,-0.691 0.311,-4.148 0.258,-4.18 -0.134,-0.083 -0.047,1.32 -0.224,1.429 -0.193,0.119 -0.063,0.671 -0.267,0.961 -0.194,0.277 -0.061,0.126 0.141,-1.395 0.235,-1.767 0.639,-1.339 0.445,-1.532 -0.042,-0.042 -0.13,0.008 -0.196,0.112 -0.099,0.157 -0.119,0.15 -0.121,-0.04 -0.004,-0.443 0.62,-0.269 0.204,-0.502 -0.447,-0.25 0.059,-2.054 -0.462,-2.19 -0.473,-0.124 -0.083,-0.866 -0.405,-1.064 -0.259,-0.161 0.103,0.65 -0.121,0.789 -0.073,0.045 -0.105,0.153 -0.072,0.24 0.105,0.274 -0.168,2.271 -0.452,3.308 -0.332,1.211 -0.47,1.215 -0.186,0.006 0.777,-3.306 0.452,-6.701 0.186,-6.701 -0.217,0 0.043,1.092 -0.074,1.208 C -9.159,7.057 -9.074,8.571 -9.268,8.522 -9.419,8.485 -9.44,8.229 -9.329,7.786 -9.234,7.409 -9.384,6.712 -9.494,7.017 c -0.209,0.576 -0.191,1.72 -0.735,3.313 -0.601,1.76 -0.741,4.765 -4.028,8.267 -2.704,2.88 -4.717,6.327 -3.603,5.013 0.18,-0.212 0.327,-0.317 0.327,-0.234 0.001,0.206 -0.64,0.864 -0.64,1.037 0,0.135 -0.492,0.636 -0.346,0.247 0.118,-0.314 -0.206,-0.158 -0.095,0.189 0.073,0.231 -0.367,0.729 -0.584,0.661 -0.035,-0.012 -0.072,0.11 -0.081,0.271 -0.026,0.425 -0.838,2.121 -0.589,2.121 0.203,0 0.603,-1.263 0.881,-0.984 0.112,0.111 -0.536,0.723 -0.668,1.144 -0.146,0.466 -0.991,1.25 -0.593,1.25 0.1,0 0.922,-1.094 0.922,-1.227 0,-0.147 1.065,-1.464 1.184,-1.464 0.111,0 -0.073,0.318 -0.297,0.512 -0.113,0.099 -0.636,1.154 -0.783,1.154 -0.057,0 -0.104,0.077 -0.104,0.172 0,0.281 -0.655,0.795 -0.544,1.084 0.156,0.406 0.944,-1.096 2.045,-2.395 0.426,-0.502 0.351,-0.251 -0.092,0.306 -0.211,0.266 -0.384,0.562 -0.384,0.658 0,0.265 -0.256,0.087 -0.256,0.34 0,0.254 -0.755,0.978 -0.764,1.165 -0.003,0.062 -0.11,0.206 -0.237,0.32 -0.63,0.562 -1.404,2.065 -1.064,2.065 0.131,0 0.527,-0.57 0.527,-0.758 0,-0.07 0.13,-0.268 0.288,-0.441 0.921,-1.002 0.998,-1.553 1.399,-1.847 0.122,-0.089 0.312,-0.252 0.421,-0.361 1.158,-1.158 -2.524,3.269 -3.013,4.973 -0.136,0.473 0.296,0.274 0.575,-0.265 0.177,-0.342 0.586,-0.773 0.586,-0.618 0,0.345 -0.641,1.114 -0.636,1.281 0.013,0.423 3.499,-4.119 3.638,-4.462 0.181,-0.447 0.838,-0.225 -3.034,4.411 -0.367,0.44 -0.062,0.371 -0.608,0.694 -0.558,0.329 -0.22,0.303 -0.641,0.754 -0.409,0.439 -0.333,1.245 0.258,0.289 0.42,-0.679 1.152,-1.024 1.152,-1.294 0,-0.258 0.191,0.01 0.465,-0.647 0.252,-0.603 0.722,-1.02 1.522,-1.876 0.836,-0.895 0.675,-0.287 1.129,-0.7 1.09,-0.992 0.929,-0.138 -0.197,1.044 -0.486,0.509 -0.114,0.488 -0.533,0.762 -0.321,0.211 -0.581,0.807 -0.274,0.631 0.267,-0.155 1.347,-1.402 1.347,-1.556 0,-0.078 0.058,-0.142 0.128,-0.142 0.187,0 -0.038,-0.057 0.545,-0.664 5.92,-6.17 0.653,-0.14 0.537,-0.072 -0.24,0.141 -1.414,1.945 -1.899,2.392 -0.52,0.481 -0.154,0.435 -0.664,0.914 -0.512,0.481 -0.706,1.02 -1.109,1.459 -0.34,0.369 -0.122,0.382 -0.44,0.734 -0.45,0.497 0.251,0.492 2.242,-2.158 1.382,-1.84 3.043,-3.683 1.633,-1.851 -0.873,1.135 -0.833,1.425 -0.984,1.425 -0.055,0 -0.134,0.107 -0.175,0.239 -0.073,0.229 -0.456,0.675 -1.681,1.954 -0.817,0.854 -0.481,1.01 -0.709,1.01 -0.206,0 -2.007,1.866 -2.098,1.774 -0.088,-0.087 0.831,-0.888 0.831,-1.019 0,-0.179 -0.524,0.051 -0.65,0.286 -0.127,0.238 -0.375,0.331 -0.375,0.141 0,-0.157 1.028,-1.072 0.941,-1.214 -0.033,-0.053 -0.002,-0.096 0.067,-0.096 0.07,0 0.164,-0.116 0.209,-0.257 0.126,-0.398 0.384,-0.1 0.384,-0.576 0,-0.389 -0.061,-0.397 -0.424,-0.059 -0.366,0.34 -0.375,0.119 -0.022,-0.199 0.367,-0.333 2.945,-4.045 2.945,-4.101 0,-0.207 -1.568,0.903 -2.158,2.182 -0.175,0.378 -0.904,1.013 -1.491,1.796 -0.533,0.71 -1.609,1.561 -1.349,1.981 0.16,0.258 1.534,-1.455 1.639,-1.35 0.091,0.091 -0.281,0.838 -0.42,0.844 -0.305,0.011 -1.855,1.737 -1.939,2.158 -0.112,0.56 -0.175,0.488 0.253,0.208 0.351,-0.23 0.461,-0.118 0.179,0.182 -0.088,0.094 -0.001,0.07 0.193,-0.053 0.828,-0.526 0.222,0.644 1.661,-0.681 0.27,-0.249 0.387,-0.288 0.523,-0.175 0.179,0.148 0.473,-0.058 1.75,-1.226 0.543,-0.496 0.7,-0.301 0.188,0.233 -0.799,0.833 0.214,0.159 1.336,-0.89 0.596,-0.556 0.76,-0.461 0.386,-0.15 -0.409,0.341 -0.077,0.304 0.108,0.119 0.104,-0.104 0.179,-0.073 0.279,0.115 0.142,0.265 -0.81,1.146 -1.463,1.353 -0.45,0.143 -1.373,0.91 -1.963,1.04 -0.634,0.139 -1.694,0.99 -1.957,0.827 -0.266,-0.164 -0.127,0.161 -0.775,0.236 -0.446,0.051 -0.969,0.083 -1.087,0.2 -0.341,0.342 -0.398,-0.318 -0.109,-1.27 0.105,-0.346 0.191,-0.75 0.192,-0.898 0.003,-0.504 0.275,-0.025 0.902,-2.015 0.528,-1.673 0.534,-1.515 0.59,-2.393 0.066,-1.009 0.819,-5.295 0.957,-5.439 0.063,-0.067 0.115,-0.245 0.115,-0.395 0,-1.328 2.05,-5.196 2.05,-5.355 0,-0.23 0.513,-0.395 0.513,-0.634 0,-0.716 5.173,-5.696 5.779,-7.48 0.166,-0.489 0.782,-1.455 0.588,-1.455 -0.103,0 -1.248,2.052 -2.447,3.062 -0.4,0.337 -1.433,1.423 -1.612,1.423 -0.072,0 -0.13,0.048 -0.13,0.108 0,0.128 -1.672,1.095 -1.682,1.101 -0.535,0.303 -0.323,0.585 -0.857,0.585 -0.521,0 -0.643,0.46 -1.222,0.585 -0.632,0.137 -2.311,1.095 -2.568,0.923 -0.108,-0.073 -0.584,0.586 -0.598,0.274 -0.012,-0.26 -0.151,0.395 -0.469,0.398 -0.286,0.002 -0.541,0.189 -1.537,0.697 -1.25,0.637 -1.142,0.864 -1.323,0.577 -0.15,-0.237 -0.128,-0.132 -0.184,0.159 -0.042,0.218 -1.358,1.64 -1.518,1.64 -0.348,0 0.363,-5.766 0.662,-5.866 0.082,-0.027 0.148,-0.272 0.148,-0.543 0,-0.747 0.182,-0.271 0.308,-1.382 0.118,-1.048 0.589,-1.969 0.589,-2.301 0,-0.312 0.641,-1.353 0.641,-1.612 0,-0.262 0.293,-0.177 0.56,-0.692 0.624,-1.207 3.131,-2.704 4.52,-3.89 0.921,-0.786 1.358,-0.667 2.694,-1.3 1.458,-0.691 0.93,0.088 1.948,-0.869 0.358,-0.337 0.71,-0.579 0.618,-0.426 -0.048,0.081 -0.007,0.178 0.093,0.217 0.177,0.067 0.402,-0.27 0.269,-0.403 -0.037,-0.037 -0.071,0.015 -0.076,0.114 -0.005,0.105 -0.051,0.074 -0.108,-0.072 -0.1,-0.256 0.223,-1.418 0.535,-1.924 0.178,-0.289 0.242,-4.004 0.078,-4.549 -0.141,-0.468 -0.402,-1.507 -0.769,-2.755 -0.43,-1.463 -0.311,-3.966 0.235,-4.954 0.609,-1.101 0.367,-1.307 0.771,-1.365 0.364,-0.051 0.288,-0.925 -0.157,-1.817 -0.916,-1.836 -1.899,-6.356 -1.791,-6.762 0.051,-0.192 0.12,-0.277 0.152,-0.189 0.114,0.308 0.46,0.185 0.36,-0.128 -2.649,-8.279 -2.678,-37.086 -2.174,-41.675 0.177,-1.608 0.489,-2.1 0.966,-1.524 0.21,0.252 0.293,1.716 0.098,1.716 -0.087,0 -0.046,0.087 0.09,0.192 0.238,0.184 0.239,0.199 0.018,0.331 -0.153,0.091 -0.191,0.19 -0.114,0.288 0.333,0.424 0.295,1.286 -0.05,1.153 -0.204,-0.078 -0.233,0.063 -0.066,0.327 0.169,0.266 0.407,-0.114 0.377,0.232 -0.075,0.86 0.405,0.641 0.405,0.531 0,-0.21 -0.266,0.131 -0.124,-0.642 0.208,-1.141 -0.005,-4.77 0.391,-4.374 0.266,0.265 -0.121,6.762 0.018,10.483 0.019,0.486 -0.558,9.413 -0.281,9.417 0.126,10e-4 -0.369,13.784 -0.3,-0.288 0.036,-7.549 -0.008,-8.853 0.167,-8.745 0.167,0.103 0.185,-0.32 -0.032,-0.32 -0.118,0 -0.148,-0.276 -0.115,-1.072 0.039,-0.949 -0.572,-1.975 -0.63,-1.057 -0.021,0.323 -0.223,-0.755 -0.239,0.175 -0.006,0.413 0.04,0.544 0.192,0.544 0.375,0 -0.149,-0.442 0.318,-0.477 0.205,-0.016 0.245,0.034 0.184,0.229 -0.209,0.659 0.014,4.069 -0.438,3.336 -0.197,-0.317 -0.286,1.529 0.132,0.869 0.162,-0.255 0.141,1.522 0.008,1.574 -0.166,0.066 -0.303,0.748 -0.151,0.748 0.471,0 -0.36,1.069 -0.403,0.825 -0.068,-0.386 -0.16,2.037 -0.106,2.803 0.146,2.073 0.076,-2.223 0.451,-2.598 0.166,-0.166 0.189,-0.143 0.187,0.192 -0.002,0.292 -0.031,0.335 -0.126,0.187 -0.207,-0.32 -0.126,0.345 -0.052,0.418 0.147,0.148 0.333,11.006 0.332,11.016 -0.011,0.298 0.229,0.551 0.242,-0.183 0.041,-2.291 0.282,-2.249 0.325,0.056 0.23,12.519 4.497,22.904 3.62,22.904 -0.061,0 -0.111,0.058 -0.111,0.129 0,0.247 0.581,0.125 0.761,-0.161 0.195,-0.308 0.193,-1.233 -0.002,-1.435 -0.199,-0.205 -0.013,-0.848 -0.319,-1.102 -0.564,-0.468 0.726,2.418 0.137,1.929 -0.044,-0.037 -2.892,-10.174 -3.464,-18.643 -0.896,-13.253 0.205,-12.82 0.196,-29.08 0,-0.199 0.033,-0.217 0.159,-0.091 0.257,0.257 0.197,12.32 -0.062,12.465 -0.347,0.193 -0.62,5.863 -0.294,13.182 0.406,9.095 1.461,11.258 1.65,12.931 0.104,0.924 0.318,1.121 0.262,0.242 -0.147,-2.33 1.163,5.07 2.138,8.336 0.134,0.449 0.212,0.868 0.173,0.93 -0.135,0.219 0.284,0.247 0.754,0.05 0.658,-0.275 0.486,-0.345 0.345,-0.258 -0.071,0.044 -0.164,-0.01 -0.206,-0.12 -0.119,-0.309 -0.291,-0.237 -0.211,0.088 0.367,1.49 -1.303,-3.492 -1.005,-3.492 0.258,0 0.88,3.075 1.234,3.075 0.234,0 0.231,-0.178 -0.015,-0.833 -0.584,-1.553 -1.216,-4.511 -0.875,-4.092 0.32,0.392 0.112,0.196 -0.077,-0.905 -0.081,-0.472 -1.407,-6.659 -1.407,-8.811 0,-0.708 -0.188,-0.52 -0.306,-2.272 -0.133,-1.968 -0.284,-2.533 -0.4,-4.741 -0.628,-11.937 0.295,-27.373 0.305,-27.367 0.864,0.534 -0.643,23.274 0.096,26.598 0.039,0.176 0.155,1.445 0.257,2.819 0.949,12.772 3.636,18.269 3.636,19.518 0,0.311 1.134,0.261 1.561,0.485 0.345,0.181 0.609,-0.376 0.627,-0.184 0.043,0.479 0.184,0.746 0.616,1.166 0.754,0.731 1.809,3.242 1.809,4.305 0,0.286 0.808,1.621 0.718,1.711 -0.243,0.243 1.28,1.822 1.399,1.959 1.446,1.667 4.337,3.434 4.371,3.521 0.107,0.279 0.193,-0.029 0.603,0.165 2.759,1.306 3.983,1.518 5.658,1.69"
                   style="fill:#aaabab;fill-opacity:1;fill-rule:nonzero;stroke:none"
                   id="path1618" />
              </g>
              <g
                 transform="translate(405.6496,75.8189)"
                 id="g1624">
                <path
                   d="M 0,0 C -0.071,0.071 -1,-0.291 -1,-0.389 -1,-0.578 0.076,-0.075 0,0"
                   style="fill:#aaabab;fill-opacity:1;fill-rule:nonzero;stroke:none"
                   id="path1622" />
              </g>
              <g
                 transform="translate(395.3278,81.4045)"
                 id="g1628">
                <path
                   d="m 0,0 c -1.415,0.096 -5.798,-2.06 -5.798,-3.459 0,-0.165 -0.384,-0.379 -0.384,-0.544 0,-0.705 1.606,2.194 2.133,2.194 0.407,0 1.558,1.081 3.466,1.443 C 0.185,-0.221 0.483,-0.033 0,0"
                   style="fill:#aaabab;fill-opacity:1;fill-rule:nonzero;stroke:none"
                   id="path1626" />
              </g>
              <g
                 transform="translate(399.962,95.74)"
                 id="g1632">
                <path
                   d="m 0,0 c -0.258,0 -1.694,-1.409 -1.789,-1.409 -0.207,0 -1.142,-1.306 -1.266,-1.474 C 3.24,2.43 0.02,0 0,0"
                   style="fill:#aaabab;fill-opacity:1;fill-rule:nonzero;stroke:none"
                   id="path1630" />
              </g>
              <g
                 transform="translate(385.9333,80.4924)"
                 id="g1636">
                <path
                   d="m 0,0 c -0.289,-0.358 -1.163,-2.114 -1.118,-2.114 -0.059,-0.167 0.48,0.484 0.483,0.596 C -0.629,-1.359 0.808,0.998 0,0"
                   style="fill:#aaabab;fill-opacity:1;fill-rule:nonzero;stroke:none"
                   id="path1634" />
              </g>
              <g
                 transform="translate(400.5421,93.8501)"
                 id="g1640">
                <path
                   d="M 0,0 C 1.672,1.617 3.794,3.423 3.757,3.424 2.624,3.452 -4.324,-4.182 0,0"
                   style="fill:#aaabab;fill-opacity:1;fill-rule:nonzero;stroke:none"
                   id="path1638" />
              </g>
              <g
                 transform="translate(382.5703,89.2503)"
                 id="g1644">
                <path
                   d="M 0,0 C 0.095,0.095 -0.083,1.028 -0.175,0.935 -0.27,0.84 -0.093,-0.093 0,0"
                   style="fill:#aaabab;fill-opacity:1;fill-rule:nonzero;stroke:none"
                   id="path1642" />
              </g>
              <g
                 transform="translate(391.2689,99.8403)"
                 id="g1648">
                <path
                   d="M 0,0 C -0.262,0.795 -0.21,0.839 -0.121,-0.32 0.064,-2.746 0.327,-0.993 0,0"
                   style="fill:#aaabab;fill-opacity:1;fill-rule:nonzero;stroke:none"
                   id="path1646" />
              </g>
              <g
                 transform="translate(382.5275,88.8209)"
                 id="g1652">
                <path
                   d="M 0,0 C 0.114,-0.459 0.106,-0.807 0.176,-0.337 0.248,0.142 -0.119,0.479 0,0"
                   style="fill:#aaabab;fill-opacity:1;fill-rule:nonzero;stroke:none"
                   id="path1650" />
              </g>
              <g
                 transform="translate(390.6234,99.6481)"
                 id="g1656">
                <path
                   d="M 0,0 C 0.342,-1.476 0.099,2.003 -0.203,2.475 -0.421,2.815 0,-0.163 0,0"
                   style="fill:#aaabab;fill-opacity:1;fill-rule:nonzero;stroke:none"
                   id="path1654" />
              </g>
              <g
                 transform="translate(386.0764,92.7052)"
                 id="g1660">
                <path
                   d="M 0,0 C -0.016,-0.743 0.62,-1.474 0.201,-0.277 0.078,0.074 0.004,0.176 0,0"
                   style="fill:#aaabab;fill-opacity:1;fill-rule:nonzero;stroke:none"
                   id="path1658" />
              </g>
              <g
                 transform="translate(386.7973,94.511)"
                 id="g1664">
                <path
                   d="m 0,0 c 0.086,-0.224 -0.116,-0.173 -0.31,-0.188 -0.178,-0.014 -0.256,0.903 -0.276,0.04 -0.012,-0.528 -0.269,-0.803 -0.269,-0.289 0,0.141 -0.052,0.257 -0.115,0.257 -0.229,0 0.091,-0.862 -0.301,-0.796 -0.233,0.04 -0.301,-0.267 -0.147,-0.667 0.114,-0.298 0.338,-0.248 0.243,0.053 -0.062,0.193 -0.006,0.285 0.227,0.374 0.759,0.288 3.681,3.326 3.681,3.826 0,0.204 0.365,0.201 0.225,0.352 C 2.835,3.094 1.195,1.205 1.195,1.108 1.195,0.89 0.711,0.569 0.642,0.741 0.605,0.833 0.57,0.78 0.565,0.623 0.547,0.121 -0.129,0.336 0,0"
                   style="fill:#aaabab;fill-opacity:1;fill-rule:nonzero;stroke:none"
                   id="path1662" />
              </g>
              <g
                 transform="translate(386.327,96.926)"
                 id="g1668">
                <path
                   d="m 0,0 c 0.215,-1.018 0.213,-1.792 0.416,-1.589 0.101,0.101 0.102,0.225 0.002,0.444 C 0.223,-0.718 0.137,0.629 -0.001,0.543 -0.057,0.509 -0.056,0.265 0,0"
                   style="fill:#aaabab;fill-opacity:1;fill-rule:nonzero;stroke:none"
                   id="path1666" />
              </g>
              <g
                 transform="translate(379.4661,87.5396)"
                 id="g1672">
                <path
                   d="M 0,0 C 0.1,-0.486 0.026,-0.897 0.2,-0.897 0.464,-0.897 -0.15,0.727 0,0"
                   style="fill:#aaabab;fill-opacity:1;fill-rule:nonzero;stroke:none"
                   id="path1670" />
              </g>
              <g
                 transform="translate(387.1118,96.0482)"
                 id="g1676">
                <path
                   d="M 0,0 C 0.444,-1.763 0.045,1.339 -0.086,1.47 -0.267,1.651 0,-0.242 0,0"
                   style="fill:#aaabab;fill-opacity:1;fill-rule:nonzero;stroke:none"
                   id="path1674" />
              </g>
              <g
                 transform="translate(361.6611,80.4165)"
                 id="g1680">
                <path
                   d="m 0,0 c 0,0.058 1.089,-0.712 1.089,-0.438 0,0.182 -2.078,1.135 -2.178,1.28 C -1.339,1.203 -3.311,1.779 0,0"
                   style="fill:#aaabab;fill-opacity:1;fill-rule:nonzero;stroke:none"
                   id="path1678" />
              </g>
              <g
                 transform="translate(359.5169,81.0011)"
                 id="g1684">
                <path
                   d="M 0,0 C -0.01,0.01 1.028,-0.838 0.222,0.004 -0.271,0.519 -0.555,0.505 0,0"
                   style="fill:#aaabab;fill-opacity:1;fill-rule:nonzero;stroke:none"
                   id="path1682" />
              </g>
              <g
                 transform="translate(361.2127,81.2984)"
                 id="g1688">
                <path
                   d="m 0,0 c 0.594,-0.286 0.769,-0.339 0.769,-0.232 0,0.111 -1.305,0.727 -1.38,0.652 C -0.698,0.332 -0.717,0.345 0,0"
                   style="fill:#aaabab;fill-opacity:1;fill-rule:nonzero;stroke:none"
                   id="path1686" />
              </g>
              <g
                 transform="translate(361.0029,74.9827)"
                 id="g1692">
                <path
                   d="M 0,0 C 0.24,0 -0.882,1.139 -1.13,1.149 -1.287,1.154 -0.168,0 0,0"
                   style="fill:#aaabab;fill-opacity:1;fill-rule:nonzero;stroke:none"
                   id="path1690" />
              </g>
              <g
                 transform="translate(361.0846,75.8216)"
                 id="g1696">
                <path
                   d="M 0,0 C 0,0.097 -1.018,1.075 -1.563,1.721 -2.014,2.257 -2.188,2.072 -1.025,0.831 -0.267,0.022 0,-0.194 0,0"
                   style="fill:#aaabab;fill-opacity:1;fill-rule:nonzero;stroke:none"
                   id="path1694" />
              </g>
              <g
                 transform="translate(360.4119,80.4714)"
                 id="g1700">
                <path
                   d="m 0,0 c -0.343,0.289 -0.596,-0.032 1.582,-1.193 0,0.01 0.814,-0.436 0.949,-0.444 C 3.084,-1.666 0.177,-0.149 0,0"
                   style="fill:#aaabab;fill-opacity:1;fill-rule:nonzero;stroke:none"
                   id="path1698" />
              </g>
              <g
                 transform="translate(362.0962,72.0357)"
                 id="g1704">
                <path
                   d="M 0,0 C -0.496,0 -1.48,1.579 -0.291,0.459 0.009,0.176 0.12,0 0,0 m -0.838,1.286 c -2.06,2.028 -1.377,1.842 -0.919,1.309 0.854,-0.993 0.894,-0.573 0.521,-0.228 -0.826,0.762 -1.34,1.333 -1.475,1.637 -0.392,0.88 -0.57,-0.224 0.034,-1.205 0.211,-0.344 0.384,-0.67 0.384,-0.725 0,-0.107 1.067,-1.206 1.057,-1.216 1.118,-1.18 1.169,-1.213 1.441,-0.941 0.145,0.145 -0.023,0.365 -1.043,1.369"
                   style="fill:#aaabab;fill-opacity:1;fill-rule:nonzero;stroke:none"
                   id="path1702" />
              </g>
              <g
                 transform="translate(370.7924,71.7794)"
                 id="g1708">
                <path
                   d="M 0,0 C 0.7,0 -2.556,4.622 -1.318,2.423 -0.825,1.549 -0.059,0 0,0"
                   style="fill:#aaabab;fill-opacity:1;fill-rule:nonzero;stroke:none"
                   id="path1706" />
              </g>
              <g
                 transform="translate(364.0316,79.2646)"
                 id="g1712">
                <path
                   d="M 0,0 C 0,0.106 -0.912,0.615 -0.98,0.547 -1.063,0.464 0,-0.137 0,0"
                   style="fill:#aaabab;fill-opacity:1;fill-rule:nonzero;stroke:none"
                   id="path1710" />
              </g>
              <g
                 transform="translate(362.784,77.193)"
                 id="g1716">
                <path
                   d="M 0,0 C -0.494,0.346 -0.63,0.631 -0.378,0.79 -0.232,0.883 -0.32,1.008 -0.795,1.384 -2.537,2.761 -2.243,1.958 -1.816,1.822 -1.471,1.713 -1.764,1.639 -1.06,1.302 -0.578,1.071 -0.418,0.831 -0.65,0.688 -0.747,0.628 -0.893,0.693 -1.568,1.1 -1.953,1.332 -1.942,1.394 -1.559,0.876 -1.179,0.362 -1.323,0.647 -0.45,0.099 0.26,-0.347 0.602,-0.422 0,0"
                   style="fill:#aaabab;fill-opacity:1;fill-rule:nonzero;stroke:none"
                   id="path1714" />
              </g>
              <g
                 transform="translate(369.9998,57.3075)"
                 id="g1720">
                <path
                   d="m 0,0 c 0.117,0.669 1.079,2.969 1.079,4.891 0,3.4 -0.665,3.512 -0.372,2.149 C 0.897,6.154 0.803,3.764 0.558,3.257 0.284,2.69 0.426,1.915 0.295,1.915 0.181,1.915 -0.136,0.74 -0.094,0.473 -0.04,0.137 -0.266,0.38 -0.296,-0.015 -0.318,-0.308 -0.052,-0.295 0,0"
                   style="fill:#aaabab;fill-opacity:1;fill-rule:nonzero;stroke:none"
                   id="path1718" />
              </g>
              <g
                 transform="translate(387.6321,72.1232)"
                 id="g1724">
                <path
                   d="M 0,0 C 1.503,2.07 3.05,3.595 2.152,3.115 1.368,2.695 -1.502,-2.069 0,0"
                   style="fill:#aaabab;fill-opacity:1;fill-rule:nonzero;stroke:none"
                   id="path1722" />
              </g>
              <g
                 transform="translate(388.6329,72.4699)"
                 id="g1728">
                <path
                   d="m 0,0 c 0,-0.054 -1.403,-2.228 -1.229,-2.228 0.151,0 0.716,0.719 0.716,0.912 0,0.115 0.091,0.285 0.202,0.377 0.308,0.256 0.638,1.145 0.826,1.145 0.175,0 0.081,0.385 0.237,0.385 0.166,0 0.799,1.231 1.33,1.834 C 2.276,2.646 2.433,2.914 2.431,3.022 2.427,3.203 1.422,2.175 1.413,1.981 1.408,1.867 0,0.103 0,0"
                   style="fill:#aaabab;fill-opacity:1;fill-rule:nonzero;stroke:none"
                   id="path1726" />
              </g>
              <g
                 transform="translate(390.8341,74.6038)"
                 id="g1732">
                <path
                   d="m 0,0 c -0.263,-0.678 -1.217,-1.366 -1.367,-2.049 -0.096,-0.435 -0.831,-1.398 -1.444,-2.89 0,-0.274 0.744,1.02 0.872,1.282 0.969,1.991 2.3,3.152 2.3,3.843 C 0.361,0.437 0.122,0.314 0,0"
                   style="fill:#aaabab;fill-opacity:1;fill-rule:nonzero;stroke:none"
                   id="path1730" />
              </g>
              <g
                 transform="translate(388.8253,74.7729)"
                 id="g1736">
                <path
                   d="M 0,0 C 0.911,1.391 -1.988,-1.695 -1.986,-2.046 -1.985,-2.192 -0.296,-0.451 0,0"
                   style="fill:#aaabab;fill-opacity:1;fill-rule:nonzero;stroke:none"
                   id="path1734" />
              </g>
              <g
                 transform="translate(378.8521,70.5916)"
                 id="g1740">
                <path
                   d="M 0,0 C 0.109,-0.177 0.549,0.468 0.483,0.534 0.38,0.637 -0.079,0.129 0,0"
                   style="fill:#aaabab;fill-opacity:1;fill-rule:nonzero;stroke:none"
                   id="path1738" />
              </g>
              <g
                 transform="translate(378.0704,55.3739)"
                 id="g1744">
                <path
                   d="M 0,0 C 0,-0.041 -0.116,-0.484 0.046,-0.252 0.236,0.021 0.131,0.469 0.312,0.581 0.566,0.738 0.404,2.036 0,0"
                   style="fill:#aaabab;fill-opacity:1;fill-rule:nonzero;stroke:none"
                   id="path1742" />
              </g>
              <g
                 transform="translate(375.6026,54.4391)"
                 id="g1748">
                <path
                   d="m 0,0 c 0.133,-0.35 0.039,-0.726 0.217,-0.726 0.208,0 0.147,0.512 -0.089,0.746 C -0.075,0.221 -0.083,0.22 0,0"
                   style="fill:#aaabab;fill-opacity:1;fill-rule:nonzero;stroke:none"
                   id="path1746" />
              </g>
              <g
                 transform="translate(378.8948,58.0052)"
                 id="g1752">
                <path
                   d="m 0,0 c 0,-0.436 -0.26,-0.342 -0.248,-0.744 0.009,-0.267 0.016,-0.265 0.149,0.039 0.206,0.471 0.484,1.001 0.484,1.272 0,0.314 0.64,1.065 0.64,1.287 0,0.192 0.79,1.819 0.722,1.888 C 1.594,3.895 0,0.465 0,0"
                   style="fill:#aaabab;fill-opacity:1;fill-rule:nonzero;stroke:none"
                   id="path1750" />
              </g>
              <g
                 transform="translate(382.6553,66.3978)"
                 id="g1756">
                <path
                   d="m 0,0 c -0.24,0 -0.814,-1.556 -1.465,-2.114 -0.399,-0.342 -0.373,-0.374 -0.077,0.096 0.633,1.004 -0.732,-0.179 -2.222,-3.016 -0.601,-1.144 -0.953,-1.082 -0.757,-1.318 0.208,-0.25 -0.19,-0.062 -0.331,-0.719 -0.099,-0.461 -1.028,-3.237 -1.148,-3.433 -1.036,-1.675 1.16,5.975 1.952,7.797 0.762,1.755 -0.347,0.474 -1.636,-4.276 -1.553,-5.724 -0.939,-3.267 -0.536,-3.986 0.134,-0.24 0.436,0.058 0.503,0.497 0.192,1.258 0.932,2.057 0.932,2.249 0,0.27 0.554,1.421 0.654,1.36 0.06,-0.038 0.06,-0.166 0,-0.286 -0.17,-0.34 -1.682,-4.767 -1.481,-4.767 0.253,0 1.222,3.225 1.401,3.908 0.993,3.806 1.558,3.989 2.633,5.189 0.341,0.38 0.392,0.405 0.339,0.16 -0.035,-0.159 -0.018,-0.26 0.038,-0.226 0.153,0.095 0.252,0.579 0.118,0.579 -0.129,0 0.42,0.936 0.789,1.345 C -0.035,-0.673 0.171,0 0,0"
                   style="fill:#aaabab;fill-opacity:1;fill-rule:nonzero;stroke:none"
                   id="path1754" />
              </g>
              <g
                 transform="translate(375.7769,56.1424)"
                 id="g1760">
                <path
                   d="M 0,0 C 0,0.643 0.265,0.39 0.814,3.066 1.249,5.185 1.387,5.515 1.224,5.515 0.997,5.515 0.185,1.161 -0.071,0.684 -0.896,-0.852 0,-0.569 0,0"
                   style="fill:#aaabab;fill-opacity:1;fill-rule:nonzero;stroke:none"
                   id="path1758" />
              </g>
              <g
                 transform="translate(382.639,73.1888)"
                 id="g1764">
                <path
                   d="M 0,0 C -0.411,0 -1.941,-2.212 -0.534,-0.826 0.07,-0.231 0.22,0 0,0"
                   style="fill:#aaabab;fill-opacity:1;fill-rule:nonzero;stroke:none"
                   id="path1762" />
              </g>
              <g
                 transform="translate(383.3994,72.7185)"
                 id="g1768">
                <path
                   d="M 0,0 C 0.328,0.205 0.196,0.382 0.335,0.297 0.445,0.228 0.822,0.855 0.558,0.855 0.316,0.855 0.325,0.47 0.063,0.47 -0.127,0.47 -0.177,0.134 -0.177,0.161 -0.229,-0.112 -0.209,-0.13 0,0"
                   style="fill:#aaabab;fill-opacity:1;fill-rule:nonzero;stroke:none"
                   id="path1766" />
              </g>
              <g
                 transform="translate(380.7528,71.9075)"
                 id="g1772">
                <path
                   d="M 0,0 C 0.498,0.482 0.678,1.145 0.192,0.705 0.051,0.577 -0.064,0.402 -0.064,0.316 c 0,-0.215 -0.384,-0.423 -0.384,-0.613 0,-0.076 0.201,0.058 0.448,0.297"
                   style="fill:#aaabab;fill-opacity:1;fill-rule:nonzero;stroke:none"
                   id="path1770" />
              </g>
              <g
                 transform="translate(385.3815,73.9576)"
                 id="g1776">
                <path
                   d="M 0,0 C -0.194,0 -1.105,-0.98 -1.105,-1.189 -1.105,-1.389 0.453,0 0,0"
                   style="fill:#aaabab;fill-opacity:1;fill-rule:nonzero;stroke:none"
                   id="path1774" />
              </g>
              <g
                 transform="translate(385.0626,72.7403)"
                 id="g1780">
                <path
                   d="M 0,0 C -0.151,-0.352 1.5,1.409 1.624,1.285 1.728,1.18 1.392,0.994 1.392,0.718 c 0,-0.255 1.482,1.238 1.37,1.35 C 2.618,2.212 2.15,1.44 1.698,1.499 1.019,1.588 0,0.264 0,0"
                   style="fill:#aaabab;fill-opacity:1;fill-rule:nonzero;stroke:none"
                   id="path1778" />
              </g>
              <g
                 transform="translate(377.2452,62.8742)"
                 id="g1784">
                <path
                   d="M 0,0 C -0.292,-1.181 -0.223,-0.731 -0.223,-0.833 -0.375,-1.341 0.057,-0.896 0.174,-0.207 0.305,0.569 0.915,1.822 0.841,2.031 0.78,2.205 0.368,1.283 0.368,0.971 0.368,0.656 0.181,0.731 0,0"
                   style="fill:#aaabab;fill-opacity:1;fill-rule:nonzero;stroke:none"
                   id="path1782" />
              </g>
              <g
                 transform="translate(374.7946,59.2865)"
                 id="g1788">
                <path
                   d="M 0,0 C 0.209,0.487 0.12,-0.391 0,-0.577 -0.163,-0.829 -0.163,-0.379 0,0 m -0.37,-2.045 c 0,-0.181 -0.527,-1.248 -0.527,-0.732 0,0.478 1.181,2.828 0.527,0.732 M 2.627,5.83 C 2.521,5.742 2.435,5.573 2.435,5.454 2.435,4.91 1.926,4.761 1.401,2.242 0.461,-2.274 -0.343,-3.046 0.258,-1.089 1.059,1.517 0.414,1.46 2.495,7.175 2.649,7.598 1.202,5.371 0.627,2.01 0.546,1.539 0.425,1.047 0.358,0.918 -0.21,-0.173 0.484,3.628 1.18,5.418 1.757,6.904 0.908,6.552 -0.076,1.281 -0.401,-0.458 -0.641,-1.391 -0.9,-1.922 c -0.356,-0.731 -1.277,-3.094 -1.272,-3.264 0.011,-0.31 0.392,0.312 0.772,1.259 0.427,1.068 0.849,1.322 0.491,0.297 -0.284,-0.816 0.073,-0.952 0.581,0.766 0.153,0.519 0.456,0.833 0.456,0.472 0,-0.189 -0.438,-1.416 -0.666,-1.868 -0.37,-0.731 0.428,-0.88 1.631,4.324 1.199,5.191 2.105,6.24 1.534,5.766"
                   style="fill:#aaabab;fill-opacity:1;fill-rule:nonzero;stroke:none"
                   id="path1786" />
              </g>
              <g
                 transform="translate(406.4558,73.0675)"
                 id="g1792">
                <path
                   d="M 0,0 C 0.347,0.186 0.194,0.423 0.353,0.325 0.449,0.266 1.012,0.687 1.837,1.434 2.381,1.926 1.799,1.623 1.202,1.103 0.346,0.357 -0.087,0.468 -0.177,0.125 -0.234,-0.093 -0.208,-0.111 0,0"
                   style="fill:#aaabab;fill-opacity:1;fill-rule:nonzero;stroke:none"
                   id="path1790" />
              </g>
              <g
                 transform="translate(405.2195,72.2986)"
                 id="g1796">
                <path
                   d="M 0,0 C 0.505,0.504 -1.339,-0.57 -1.339,-0.705 -1.471,-0.837 -0.194,-0.193 0,0"
                   style="fill:#aaabab;fill-opacity:1;fill-rule:nonzero;stroke:none"
                   id="path1794" />
              </g>
              <g
                 transform="translate(372.0446,45.6139)"
                 id="g1800">
                <path
                   d="M 0,0 C -0.098,0.098 -0.297,-0.517 -0.454,-1.403 -1.072,-4.877 0.161,-0.161 0,0"
                   style="fill:#aaabab;fill-opacity:1;fill-rule:nonzero;stroke:none"
                   id="path1798" />
              </g>
              <g
                 transform="translate(395.6161,67.8529)"
                 id="g1804">
                <path
                   d="m 0,0 c -1.513,-0.177 -1.83,-0.877 -1.095,-0.497 0.57,0.295 0.764,0.11 1.351,0.389 C 0.633,0.071 0.628,0.074 0,0"
                   style="fill:#aaabab;fill-opacity:1;fill-rule:nonzero;stroke:none"
                   id="path1802" />
              </g>
              <g
                 transform="translate(372.5701,82.7665)"
                 id="g1808">
                <path
                   d="m 0,0 c -0.942,0.826 -0.763,0.393 0.239,-0.579 1.05,-1.019 2.114,-2.364 2.114,-2.674 0,0.05 -0.013,-0.175 0.135,-0.175 0.075,0 0.112,0.044 0.083,0.096 C 1.585,-1.546 1.212,-1.062 0,0"
                   style="fill:#aaabab;fill-opacity:1;fill-rule:nonzero;stroke:none"
                   id="path1806" />
              </g>
              <g
                 transform="translate(375.6258,78.2819)"
                 id="g1812">
                <path
                   d="M 0,0 C -0.089,0.87 -0.96,1.457 -0.351,0.233 -0.106,-0.258 0.036,-0.353 0,0"
                   style="fill:#aaabab;fill-opacity:1;fill-rule:nonzero;stroke:none"
                   id="path1810" />
              </g>
              <g
                 transform="translate(375.473,71.4821)"
                 id="g1816">
                <path
                   d="M 0,0 C 0.145,0.089 0.005,0.485 -0.232,2.009 -0.475,3.581 -0.59,3.369 -0.518,2.859 -0.445,2.335 -0.15,-0.093 0,0"
                   style="fill:#aaabab;fill-opacity:1;fill-rule:nonzero;stroke:none"
                   id="path1814" />
              </g>
            </g>
          </g>
        </g>
      </g>
    </g>
  </g>
</svg>
