<?xml version="1.0" encoding="UTF-8" standalone="no"?>
<!-- Created with Inkscape (http://www.inkscape.org/) -->

<svg
   version="1.1"
   id="svg2"
   width="81.279266"
   height="70.684753"
   viewBox="0 0 81.279266 70.684753"
   sodipodi:docname="(수정가능)채원파벨_청첩장_최종_3종.ai"
   xmlns:inkscape="http://www.inkscape.org/namespaces/inkscape"
   xmlns:sodipodi="http://sodipodi.sourceforge.net/DTD/sodipodi-0.dtd"
   xmlns="http://www.w3.org/2000/svg"
   xmlns:svg="http://www.w3.org/2000/svg">
  <defs
     id="defs6">
    <clipPath
       clipPathUnits="userSpaceOnUse"
       id="clipPath52">
      <path
         d="M 289.094,0 H 583.937 V 583.937 H 289.094 Z"
         id="path50" />
    </clipPath>
    <clipPath
       clipPathUnits="userSpaceOnUse"
       id="clipPath1828">
      <path
         d="m 287.48,293.879 h 60.96 v -53.014 h -60.96 z"
         id="path1826" />
    </clipPath>
  </defs>
  <sodipodi:namedview
     id="namedview4"
     pagecolor="#ffffff"
     bordercolor="#999999"
     borderopacity="1"
     inkscape:showpageshadow="0"
     inkscape:pageopacity="0"
     inkscape:pagecheckerboard="0"
     inkscape:deskcolor="#d1d1d1"
     showgrid="false" />
  <g
     id="g10"
     inkscape:groupmode="layer"
     inkscape:label="Page 1"
     transform="matrix(1.3333333,0,0,-1.3333333,-383.3074,391.83865)">
    <g
       id="g46"
       style="display:inline">
      <g
         id="g48"
         clip-path="url(#clipPath52)">
        <g
           id="g1822">
          <g
             id="g1824" />
          <g
             id="g1844">
            <g
               clip-path="url(#clipPath1828)"
               id="g1842">
              <g
                 transform="translate(338.7809,289.5496)"
                 id="g1832">
                <path
                   d="M 0,0 C -1.016,-1.088 -1.194,-0.645 -1.404,-1.194 -1.799,-2.223 0.744,0.274 0.744,0.554 0.743,0.687 0.409,0.438 0,0"
                   style="fill:#aaabab;fill-opacity:1;fill-rule:nonzero;stroke:none"
                   id="path1830" />
              </g>
              <g
                 transform="translate(343.3335,284.5638)"
                 id="g1836">
                <path
                   d="m 0,0 c 1.082,0.937 0.939,1.429 -0.182,0.63 -1.007,-0.717 -1.321,-0.464 -1.321,-0.776 0,-0.13 -0.368,-0.317 -0.818,-0.416 C -4.311,-0.999 -3.483,-2.07 -4.145,-1.816 -4.577,-1.65 -5.556,-2.503 -5.414,-2.921 -5.233,-3.448 -1.911,-1.655 0,0"
                   style="fill:#aaabab;fill-opacity:1;fill-rule:nonzero;stroke:none"
                   id="path1834" />
              </g>
              <g
                 transform="translate(322.5359,283.337)"
                 id="g1840">
                <path
                   d="m 0,0 c -0.593,-10.677 -7.881,-11.199 -7.392,-14.232 0.075,-0.461 -0.477,-0.481 -0.477,-0.856 0,-0.548 3.722,2.845 5.235,2.466 0.384,-0.097 0.959,-0.017 1.365,0.188 0.75,0.378 1.453,0.297 1.185,-0.137 -0.107,-0.172 0.133,-0.194 0.703,-0.065 1.87,0.426 7.676,-1.062 6.955,-1.782 -0.266,-0.266 0.488,0.283 0.961,-0.286 0.975,-1.175 -2.708,1.174 -6.935,-0.11 -3.669,-1.114 -11.741,-0.193 -11.169,-1.683 0.061,0 0.246,-0.868 -0.68,0.058 -0.297,0.297 -0.439,0.334 -0.439,0.113 0,-0.179 -0.116,-0.255 -0.257,-0.168 -0.324,0.201 -0.337,1.154 -0.015,1.154 0.496,0 1.87,1.513 2.469,2.72 3.216,6.483 6.765,10.194 7.789,13.373 C -0.117,2.569 0.128,2.306 0,0 m -7.228,-19.355 c -1.181,0 -2.615,1.63 -1.987,2.258 0.161,0.161 0.397,-0.063 0.669,-0.635 0.502,-1.06 1.528,-1.624 0.837,-0.569 -1.044,1.594 0.272,1.948 0.85,0.59 0.692,-1.624 0.986,-1.644 -0.369,-1.644 m -3.134,0.326 c -0.279,-0.279 -0.56,-0.165 -0.83,0.34 -0.345,0.645 -0.334,0.786 0.058,0.786 0.38,0 0.998,-0.9 0.772,-1.126 m -1.857,4.444 c -0.184,0.344 -0.15,0.557 0.127,0.786 0.285,0.237 0.379,0.24 0.379,0.012 0,-0.166 0.108,-0.236 0.241,-0.154 0.249,0.154 -0.112,1.542 -0.545,2.099 -0.283,0.364 -0.582,1.568 -0.704,2.011 0.263,-0.316 0.942,-1.09 1.081,-1.477 0.117,-0.33 0.671,-0.372 0.087,1.087 -0.483,1.206 -0.494,1.287 -0.188,1.287 0.126,0 0.429,-0.49 0.674,-1.089 0.473,-1.156 0.869,-0.906 0.426,0.269 -0.408,1.085 -0.571,2.357 -0.302,2.357 0.367,0 0.369,-1.102 0.965,-1.591 0.353,-0.289 0.382,-0.25 0.231,0.31 -0.622,2.307 -0.37,3.491 0.381,1.794 0.33,-0.744 0.813,-1.098 0.613,-0.449 -0.054,0.177 -0.171,0.651 -0.26,1.054 -0.213,0.968 -0.337,0.924 0.512,0 0.868,-0.946 0.418,-0.437 0.258,0.838 -0.069,0.545 -0.061,0.847 0.018,0.671 0.252,-0.567 0.627,-0.341 0.47,0.283 -0.239,0.955 0.265,0.456 1.929,3.881 0.997,2.051 0.79,2.006 0.618,0.128 -0.195,-2.134 -0.665,-3.403 -0.467,-3.92 0.208,-0.542 -1.169,-2.138 -1.169,-2.555 0,-0.361 -1.563,-3.565 -1.986,-4.07 -0.239,-0.287 -0.266,-0.477 -0.081,-0.592 0.351,-0.216 0.361,-0.931 0.029,-0.404 -0.463,0.731 -0.981,-1.19 -1.739,-0.899 -0.455,0.174 -0.267,-0.379 -0.247,-0.379 0.21,-0.803 -0.995,-1.953 -1.351,-1.288 m 18.102,8.57 c 0.663,0.664 1.125,0.76 1.285,0.268 C 7.293,-6.131 3.82,-8.078 5.883,-6.015 m 2.008,0.964 c 0.766,0.451 0.737,0.827 1.115,0.697 1.041,-0.357 -2.298,-1.394 -1.115,-0.697 m 3.011,2.547 c 0.594,0.159 0.705,0.109 0.705,-0.317 0,-0.278 -0.116,-0.434 -0.256,-0.347 -0.363,0.224 -0.049,-0.26 -0.785,-0.315 -0.795,-0.06 -0.516,0.751 0.336,0.979 M 0.683,1.977 C 0.598,12.981 -0.648,0.292 -2.019,0.292 c -0.117,0 -0.213,-0.155 -0.213,-0.344 0,-0.326 -2.355,-4.419 -2.8,-4.865 -0.321,-0.321 -0.15,1.9 0.213,2.774 0.52,1.254 0.902,6.772 0.531,7.688 -0.412,1.019 -0.194,1.134 -0.763,-0.641 -1.491,-4.654 -0.998,-5.543 -4.42,-9.095 -2.683,-2.786 -2.409,-3.538 -3.162,-4.13 -0.519,-0.408 -0.218,-0.848 -0.618,-1.641 -0.504,-1.001 -0.689,-1.194 -0.903,-2.906 -0.241,-1.93 -0.722,-1.57 -0.319,-2.215 0.52,-0.834 -0.529,-1.757 -0.595,-2.637 -0.03,-0.399 -6.345,-6.139 -7.85,-7.136 -0.728,-0.482 -7.502,-7.411 -7.502,-7.674 0,-0.518 -4.613,-6.201 -4.613,-8.257 0,-1.63 -0.206,-1.487 0.633,-0.699 1.537,1.444 -0.202,1.321 4.891,7.823 2.669,3.407 2.442,3.459 2.668,3.459 0.316,0 3.443,3.424 6.671,5.95 3.028,2.37 4.177,3.539 4.719,3.843 0.612,0.342 -0.147,1.068 0.458,0.836 0.493,-0.189 1.419,1.097 0.979,0.711 -0.789,-0.694 -0.818,-0.289 -0.067,0.942 0.121,0.199 1.087,-0.978 1.078,-1.316 -0.02,-0.834 -14.762,-11.424 -17.607,-17.372 -0.665,-1.392 -2.63,-4.206 -2.63,-5.428 0.001,-2.728 3.397,8.045 12.334,14.765 2.964,2.229 9.194,8.373 10.918,6.582 0.502,-0.522 3.032,-0.931 3.28,-0.53 0.083,0.133 0.028,0.243 -0.121,0.243 -0.354,0 -0.383,0.849 0.049,0.704 0.176,-0.06 0.324,-0.352 0.328,-0.649 0.039,-2.753 14.801,1.828 8.422,1.318 -1.232,-0.098 -1.475,-0.038 -1.911,0.474 -0.664,0.781 -0.583,0.822 -0.252,-0.108 0.382,-1.071 -0.174,-1.16 -1.025,-0.166 -1.114,1.303 -0.791,0.035 -0.342,-0.414 0.689,-0.689 0.253,-0.677 -0.492,0.014 -0.744,0.69 -0.856,0.638 -0.412,-0.192 0.473,-0.885 -0.134,-1.117 -0.77,-0.294 -2.479,3.213 -0.861,0.984 -1.742,1.154 -0.503,0.097 -2.043,2.17 -1.796,2.418 0.666,0.666 7.083,0.095 7.987,-0.711 0.134,-0.119 0.39,-0.217 0.569,-0.217 1.12,0 3.17,-1.272 2.857,-1.773 -0.231,-0.369 -0.376,-0.426 -0.518,-0.202 -0.281,0.442 -0.266,-0.912 0.006,-0.744 0.194,0.12 1.634,-0.044 4.3,-0.49 1.709,-0.286 1.648,0.406 -0.114,1.294 -2.223,1.121 -3.794,2.173 -4.216,2.167 -0.704,-0.011 -3.251,0.924 -3.254,1.193 -0.009,1.248 7.458,0.71 9.867,-0.711 0.49,-0.289 1.353,-0.57 1.917,-0.625 3.322,-0.32 -2.506,2.586 -2.771,3.254 -0.168,0.422 -4.273,2.03 -4.737,2.217 6.717,1.476 16.185,-1.591 16.351,-1.713 0.141,-0.104 0.545,-0.199 0.897,-0.211 0.867,-0.031 -5.747,4.065 -14.501,3.356 -2.443,-0.198 -2.392,0.046 0.108,0.523 7.207,1.373 15.061,-2.108 15.824,-1.345 0.767,0.767 -7.584,3.019 -12.834,2.54 C 8.365,-9.153 5.393,-9.685 5.2,-9.948 c -0.174,-0.237 -3.513,-1.551 -3.911,-1.539 -0.742,0.021 2.188,1.97 3.284,2.184 0.149,0.029 0.756,0.287 1.348,0.573 1.502,0.726 2.973,0.744 3.891,1.199 3.569,1.769 15.497,1.195 16.04,1.738 1.03,1.03 -13.273,0.294 -16.46,-0.847 C 8.668,-6.899 8.008,-7.044 7.925,-6.961 7.712,-6.748 6.993,-7.542 6.993,-7.272 c 0,0.409 1.321,1.284 4.398,2.916 2.315,1.227 3.332,2.341 2.137,2.341 -0.51,0 -0.518,0.619 0.014,0.415 0.218,-0.084 0.344,-0.066 0.279,0.039 -0.186,0.301 0.419,0.99 1.041,1.188 0.707,0.224 4.329,4.073 3.952,4.199 C 18.54,3.917 16.021,1.99 15.639,1.398 15.367,0.975 10.28,-2.227 9.172,-3.119 8.089,-3.989 6.751,-4.638 6.354,-4.485 5.906,-4.313 5.096,-5.227 5.342,-5.626 5.465,-5.825 5.428,-5.872 5.239,-5.755 5.077,-5.654 4.944,-5.703 4.944,-5.862 4.944,-6.226 4.607,-6.462 3.406,-8.045 2,-9.897 1.611,-9.448 0.588,-10.47 c -0.877,-0.877 -4.614,-1.5 -4.614,-1.289 0,0.657 4.975,6.15 5.574,6.154 0.176,0.001 0.321,0.137 0.321,0.301 0,0.528 -0.187,-0.328 1.304,0.613 1.406,0.887 1.17,0.468 1.751,0.99 0.611,0.551 0.963,0.347 1.551,0.899 0.508,0.476 0.731,-0.314 0.252,-0.891 -0.204,-0.246 -0.215,-0.372 -0.032,-0.372 0.711,0 4.756,5.125 5.389,5.125 0.845,0 4.532,6.108 0.32,1.836 C 6.144,-3.455 8.284,0.53 8.645,0.467 9.037,0.398 8.675,1.09 9.032,0.996 9.356,0.911 11.863,3.6 11.863,4.033 c 0,0.616 2.112,2.187 1.864,2.881 -0.084,0.233 -0.058,0.339 0.057,0.235 0.587,-0.532 1.888,2.004 -0.352,0.089 C 12.842,6.734 12.633,6.388 12.776,6.15 12.945,5.87 12.911,5.862 12.604,6.11 11.926,6.659 12.319,5.603 9.256,2.228 8.194,1.058 7.668,1.129 8.52,2.326 c 0.665,0.933 2.318,4.117 2.318,4.463 0,0.687 1.984,3.753 1.298,3.753 C 11.88,10.542 8.52,3.431 7.25,2.213 5.956,0.974 6.866,1.098 4.735,-1.237 4.408,-1.594 3.98,-2.19 3.783,-2.561 2.997,-4.039 1.218,-5.09 1.516,-3.899 1.82,-2.688 0.942,-4.003 1.258,-3.181 1.47,-2.629 1.936,-2.723 1.74,-3.04 1.653,-3.181 1.694,-3.296 1.831,-3.296 2.759,-3.296 7.382,9.699 6.256,10.395 5.332,10.966 5.589,5.918 1.671,-1.213 0.787,-2.822 0.718,-2.601 0.683,1.977"
                   style="fill:#aaabab;fill-opacity:1;fill-rule:nonzero;stroke:none"
                   id="path1838" />
              </g>
            </g>
          </g>
        </g>
      </g>
    </g>
  </g>
</svg>
