<?xml version="1.0" encoding="UTF-8" standalone="no"?>
<!-- Created with Inkscape (http://www.inkscape.org/) -->

<svg
   version="1.1"
   id="svg2"
   width="175.58932"
   height="243.92966"
   viewBox="0 0 175.58932 243.92966"
   sodipodi:docname="(수정가능)채원파벨_청첩장_최종_3종.ai"
   xmlns:inkscape="http://www.inkscape.org/namespaces/inkscape"
   xmlns:sodipodi="http://sodipodi.sourceforge.net/DTD/sodipodi-0.dtd"
   xmlns="http://www.w3.org/2000/svg"
   xmlns:svg="http://www.w3.org/2000/svg">
  <defs
     id="defs6">
    <clipPath
       clipPathUnits="userSpaceOnUse"
       id="clipPath52">
      <path
         d="M 289.094,0 H 583.937 V 583.937 H 289.094 Z"
         id="path50" />
    </clipPath>
    <clipPath
       clipPathUnits="userSpaceOnUse"
       id="clipPath720">
      <path
         d="M 283.652,228.89 H 415.344 V 45.9424 H 283.652 Z"
         id="path718" />
    </clipPath>
  </defs>
  <sodipodi:namedview
     id="namedview4"
     pagecolor="#ffffff"
     bordercolor="#999999"
     borderopacity="1"
     inkscape:showpageshadow="0"
     inkscape:pageopacity="0"
     inkscape:pagecheckerboard="0"
     inkscape:deskcolor="#d1d1d1"
     showgrid="false" />
  <g
     id="g10"
     inkscape:groupmode="layer"
     inkscape:label="Page 1"
     transform="matrix(1.3333333,0,0,-1.3333333,-378.20267,305.18622)">
    <g
       id="g46"
       style="display:inline">
      <g
         id="g48"
         clip-path="url(#clipPath52)">
        <g
           id="g714">
          <g
             id="g716" />
          <g
             id="g864">
            <g
               clip-path="url(#clipPath720)"
               id="g862">
              <g
                 transform="translate(411.4137,157.2286)"
                 id="g724">
                <path
                   d="M 0,0 C 0.308,-0.055 1.157,0.385 1.45,0.524 0.717,-0.782 0.601,-0.948 0.816,-1.141 1.182,-1.469 2.2,0.291 2.12,1.113 2.08,1.531 2.117,2.155 2.202,2.499 2.505,3.711 1.815,2.957 1.698,5.081 1.668,5.62 1.501,6.126 1.289,6.316 0.802,6.751 0.757,6.633 1.099,5.819 1.575,4.685 0.784,4.601 0.833,3.7 0.846,3.474 0.786,3.352 0.7,3.429 0.509,3.6 -0.018,3.033 -0.096,2.573 -0.169,2.139 0.244,2.105 0.348,2.701 0.441,3.238 0.552,3.385 0.639,3.089 0.675,2.967 0.825,3.003 0.973,3.168 1.714,3.995 1.779,2.93 1.065,1.673 0.025,-0.156 -0.73,-0.296 -0.409,1.401 -0.108,2.987 -1.071,3.252 -0.964,2.023 -0.875,0.992 -1.355,1.066 -1.123,0.859 -0.896,0.656 -2.085,0.2 -2.036,-0.353 c 0.052,-0.583 1.078,0.675 1.189,0.297 0.095,-0.322 -0.319,-0.052 -0.428,-1.027 -0.17,-1.508 -1.35,-1.219 -1.251,-3.027 0.08,-1.455 -0.353,-1.167 -0.23,-1.584 0.114,-0.387 -1.684,-1.79 -1.473,-2.16 0.155,-0.271 -0.62,-1.195 -0.724,-0.842 -0.107,0.363 -1.604,2.175 -0.781,0.448 0.465,-0.976 -0.587,-2.712 -1.819,-3 -0.311,-0.072 -0.647,-0.239 -0.747,-0.369 -0.322,-0.42 0.091,0.183 0.87,-0.006 0.575,-0.141 1.572,0.615 1.905,1.442 0.131,0.327 0.425,0.597 0.941,0.865 0.963,0.5 1.037,0.898 2.032,2.064 0.42,0.492 0.594,0.875 0.573,1.26 -0.036,0.656 0.312,1.105 0.841,1.085 0.88,-0.033 2.08,1.899 1.668,2.687 -0.497,0.948 -0.69,1.192 -0.825,1.041 -0.076,-0.086 -0.052,-0.233 0.053,-0.328 0.622,-0.556 -0.568,-2.943 -1.492,-2.994 -0.351,-0.019 -0.551,1.068 -0.281,1.525 0.471,0.798 0.734,1.042 0.667,0.621 -0.078,-0.495 0.858,0.406 0.879,1.421 0.017,0.831 0.102,1 0.469,0.934"
                   style="fill:#aaabab;fill-opacity:1;fill-rule:nonzero;stroke:none"
                   id="path722" />
              </g>
              <g
                 transform="translate(407.9668,153.996)"
                 id="g728">
                <path
                   d="m 0,0 c 0.15,0.168 -0.599,-1.332 0.14,-0.674 1,0.889 0.976,2.319 -0.056,3.407 -0.314,0.331 -0.293,0.4 0.303,0.978 C 1.195,4.495 1.294,6.064 0.575,6.708 0.032,7.195 0.013,7.637 0.51,8.198 2.217,10.12 0.164,11.368 0.423,10.231 0.587,9.507 0.351,8.896 -0.432,8.022 -1.104,7.271 -1.197,6.872 -0.664,7.03 0.002,7.226 0.852,5.35 0.351,4.79 0.01,4.41 0.64,4.127 0.316,4.032 -0.126,3.901 -1.264,2.59 -0.946,2.578 -0.442,2.559 -0.428,1.734 -0.222,2.274 0.196,3.371 0.387,1.416 0,0"
                   style="fill:#aaabab;fill-opacity:1;fill-rule:nonzero;stroke:none"
                   id="path726" />
              </g>
              <g
                 transform="translate(406.1196,156.3323)"
                 id="g732">
                <path
                   d="M 0,0 C -0.087,-0.097 0.622,-1.065 0.925,-0.727 1.034,-0.605 1.073,-0.462 1.012,-0.41 0.746,-0.18 0.08,0.089 0,0"
                   style="fill:#aaabab;fill-opacity:1;fill-rule:nonzero;stroke:none"
                   id="path730" />
              </g>
              <g
                 transform="translate(414.5844,164.2076)"
                 id="g736">
                <path
                   d="M 0,0 C -0.129,0.407 -0.173,0.894 -0.098,1.082 0.111,1.605 0.152,2.637 -0.03,2.8 -0.368,3.102 1.113,5.059 0.68,5.447 0.378,5.717 0.841,5.754 0.454,6.222 0.28,6.433 0.284,6.809 0.468,7.308 0.794,8.195 0.818,9.263 0.518,9.532 0.2,9.817 0.389,10.314 0.029,10.379 -0.12,10.405 -0.17,9.934 -0.097,9.192 0.014,8.059 -0.03,7.892 -0.648,7.075 -1.333,6.17 -1.366,5.81 -0.73,6.185 0.426,6.867 0.117,4.082 -0.717,3.835 -1.067,3.732 -0.392,1.88 -0.898,0.998 -1.317,0.265 -1.321,-0.16 -0.91,-0.345 -0.547,-0.509 -0.57,-1.283 -0.955,-1.888 -1.875,-3.332 0.656,-2.067 0,0"
                   style="fill:#aaabab;fill-opacity:1;fill-rule:nonzero;stroke:none"
                   id="path734" />
              </g>
              <g
                 transform="translate(406.463,161.6105)"
                 id="g740">
                <path
                   d="M 0,0 C 0.348,0.179 0.985,1.899 0.867,2.342 0.796,2.609 -0.105,3.493 -0.198,3.388 -0.452,3.104 -0.431,2.655 -0.151,2.404 0.579,1.751 -0.028,0.109 -1.039,0.003 -1.946,-0.093 -0.997,-0.511 0,0"
                   style="fill:#aaabab;fill-opacity:1;fill-rule:nonzero;stroke:none"
                   id="path738" />
              </g>
              <g
                 transform="translate(412.0193,178.1677)"
                 id="g744">
                <path
                   d="M 0,0 C -0.162,-0.181 0.064,0.377 -0.571,0.946 -1.129,1.445 -1.146,0.943 -0.592,0.335 -0.177,-0.121 -0.36,-1.267 -0.994,-2.176 -2.178,-3.873 -0.247,-2.911 0.059,-1.656 0.188,-1.126 0.143,0.159 0,0"
                   style="fill:#aaabab;fill-opacity:1;fill-rule:nonzero;stroke:none"
                   id="path742" />
              </g>
              <g
                 transform="translate(413.8458,174.6025)"
                 id="g748">
                <path
                   d="m 0,0 c 1.334,1.745 -0.088,2.879 -0.14,4.916 -0.038,1.474 -0.971,2.003 -0.908,2.999 0.047,0.724 -0.345,1.048 -1.371,2.174 0.158,-0.978 0.229,-1.234 0.311,-1.23 0.061,0.004 0.18,-0.301 0.265,-0.678 C -1.666,7.393 -1.907,7.227 -2.126,7.987 -2.298,8.587 -2.477,8.63 -2.842,8.883 -3.727,9.496 -2.18,7.276 -2.374,7.06 -2.535,6.88 -1.618,6.372 -1.3,6.466 -0.805,6.612 -0.523,4.867 -0.919,4.114 -1.257,3.472 -0.806,3.531 -1.093,3.212 -1.351,2.922 -1.06,2.661 -0.801,2.95 -0.22,3.6 0.143,1.428 -0.35,0.246 -0.562,-0.263 -0.608,-0.289 -0.796,-0.006 -1.19,0.59 -1.621,0.468 -1.34,-0.16 c 0.248,-0.554 0.415,-1.741 0.266,-1.893 -0.091,-0.093 -1.25,-1.389 -1.35,-1.501 l 0.959,-1.776 -0.601,-0.617 c -1.408,-1.446 -0.096,-1.8 -0.356,-1.041 -0.178,0.52 0.282,0.538 0.354,0.293 0.033,-0.113 0.127,-0.132 0.207,-0.042 0.181,0.202 0.711,-0.396 0.749,-0.845 0.056,-0.656 0.489,-0.565 -0.311,-1.407 -0.9,-0.947 -0.488,-1.497 -0.922,-0.854 -0.162,0.239 -0.471,0.474 -0.687,0.523 -0.34,0.076 -0.341,0.009 -0.008,-0.501 0.554,-0.846 1.983,-0.633 1.733,0.259 -0.034,0.123 0.051,0.257 0.188,0.297 0.332,0.098 0.878,1.076 0.693,1.242 -0.08,0.071 -0.155,0.316 -0.167,0.543 -0.052,0.941 -0.891,0.525 -0.523,1.777 0.367,1.251 -0.654,1.599 -0.251,2.286 0.963,1.635 0.958,1.349 0.954,2.17 C -0.415,-0.849 -0.237,-0.31 0,0"
                   style="fill:#aaabab;fill-opacity:1;fill-rule:nonzero;stroke:none"
                   id="path746" />
              </g>
              <g
                 transform="translate(409.8824,161.0225)"
                 id="g752">
                <path
                   d="M 0,0 C 0.198,-0.209 0.314,-0.432 0.258,-0.495 0.134,-0.633 0.474,-0.96 0.726,-0.947 1.041,-0.929 0.949,-0.268 0.587,0.056 0.268,0.342 0.293,0.424 0.902,1.104 2.367,2.74 1.361,3.259 1.198,2.726 1.138,2.528 0.758,1.991 0.355,1.533 -0.478,0.587 -0.494,0.522 0,0"
                   style="fill:#aaabab;fill-opacity:1;fill-rule:nonzero;stroke:none"
                   id="path750" />
              </g>
              <g
                 transform="translate(406.7963,165.9252)"
                 id="g756">
                <path
                   d="M 0,0 C 1.34,-0.327 2.108,2.571 0.813,3.064 0.435,3.208 0.368,2.842 0.714,2.531 1.057,2.225 0.6,0.921 -0.013,0.454 -0.43,0.136 -0.429,0.105 0,0"
                   style="fill:#aaabab;fill-opacity:1;fill-rule:nonzero;stroke:none"
                   id="path754" />
              </g>
              <g
                 transform="translate(409.0089,164.8446)"
                 id="g760">
                <path
                   d="M 0,0 C -0.013,0.213 -0.938,0.704 -1.063,0.565 -1.352,0.241 0.019,-0.322 0,0"
                   style="fill:#aaabab;fill-opacity:1;fill-rule:nonzero;stroke:none"
                   id="path758" />
              </g>
              <g
                 transform="translate(410.6509,179.9809)"
                 id="g764">
                <path
                   d="M 0,0 C -0.353,-0.926 0.834,-0.224 0.915,0.75 0.958,1.27 0.268,0.705 0,0"
                   style="fill:#aaabab;fill-opacity:1;fill-rule:nonzero;stroke:none"
                   id="path762" />
              </g>
              <g
                 transform="translate(410.2786,186.2106)"
                 id="g768">
                <path
                   d="M 0,0 C -0.563,1.549 -1.196,0.465 -1.041,2.787 -0.915,4.665 -2.499,6.404 -3.976,6.011 -4.711,5.815 -4.652,5.508 -3.883,5.527 -2.475,5.56 -1.504,4.058 -1.834,2.358 -1.986,1.579 -1.925,1.324 -1.536,1.087 -0.887,0.692 -0.242,-1.459 -0.641,-1.904 -0.726,-2 -0.789,-2.227 -0.778,-2.41 c 0.081,-1.481 1.386,1.07 0.97,1.443 -0.171,0.153 0.161,0.661 0.189,0.145 C 0.435,-1.803 1.24,-0.915 0.992,-0.447 0.691,0.123 1.085,0.156 0.41,0.62 -0.213,1.048 -0.118,1.088 0.162,0.385 0.464,-0.374 0.2,-0.549 0,0"
                   style="fill:#aaabab;fill-opacity:1;fill-rule:nonzero;stroke:none"
                   id="path766" />
              </g>
              <g
                 transform="translate(286.0359,49.3707)"
                 id="g772">
                <path
                   d="m 0,0 c -0.362,0.138 -1.539,-1.068 -1.704,-1.745 v 0 C -1.925,-2.654 -0.826,-1.889 -0.372,-0.82 -0.241,-0.511 0.489,-0.186 0,0"
                   style="fill:#aaabab;fill-opacity:1;fill-rule:nonzero;stroke:none"
                   id="path770" />
              </g>
              <g
                 transform="translate(356.4155,184.1525)"
                 id="g776">
                <path
                   d="M 0,0 C 0.554,2.519 -0.516,3.048 -0.426,1.41 -0.369,0.378 -0.583,0.296 -0.586,-0.72 -0.589,-2.054 0.199,-1.628 -0.122,-1.34 -0.201,-1.269 -0.147,-0.666 0,0"
                   style="fill:#aaabab;fill-opacity:1;fill-rule:nonzero;stroke:none"
                   id="path774" />
              </g>
              <g
                 transform="translate(350.4625,186.0657)"
                 id="g780">
                <path
                   d="m 0,0 c -0.437,-1.949 -0.424,-4.729 -0.228,-4.912 0.086,-0.081 0.191,-0.413 0.232,-0.739 0.338,-2.669 0.747,3.363 0.385,3.428 C 0.116,-2.174 0.032,-0.408 0,0"
                   style="fill:#aaabab;fill-opacity:1;fill-rule:nonzero;stroke:none"
                   id="path778" />
              </g>
              <g
                 transform="translate(352.8978,182.374)"
                 id="g784">
                <path
                   d="M 0,0 C 0.144,0.596 0.111,3.381 -0.043,3.519 -0.549,3.972 -0.501,-2.063 0,0"
                   style="fill:#aaabab;fill-opacity:1;fill-rule:nonzero;stroke:none"
                   id="path782" />
              </g>
              <g
                 transform="translate(354.0346,183.3477)"
                 id="g788">
                <path
                   d="M 0,0 C -0.18,0.667 0.161,1.845 -0.025,2.026 -0.096,2.095 -0.177,2.368 -0.205,2.632 -0.343,3.949 -0.664,2.479 -0.621,0.725 -0.564,-1.566 -0.685,-1.411 -0.656,-1.409 -0.782,-1.723 0.102,-1.475 0.436,-1.102 1.031,-0.438 1.357,2.111 0.9,2.521 0.687,2.711 0.504,2.037 0.509,1.081 0.515,-0.176 0.218,-0.808 0,0"
                   style="fill:#aaabab;fill-opacity:1;fill-rule:nonzero;stroke:none"
                   id="path786" />
              </g>
              <g
                 transform="translate(354.2514,175.186)"
                 id="g792">
                <path
                   d="M 0,0 C 0.504,-0.451 0.248,2.163 -0.032,0.551 -0.075,0.302 -0.061,0.054 0,0"
                   style="fill:#aaabab;fill-opacity:1;fill-rule:nonzero;stroke:none"
                   id="path790" />
              </g>
              <g
                 transform="translate(372.9469,165.0725)"
                 id="g796">
                <path
                   d="M 0,0 C 0.447,0.466 0.237,0.756 -0.273,0.376 -1.101,-0.242 -1.992,-1.115 -1.983,-1.3 -1.973,-1.52 -0.587,-0.611 0,0"
                   style="fill:#aaabab;fill-opacity:1;fill-rule:nonzero;stroke:none"
                   id="path794" />
              </g>
              <g
                 transform="translate(351.7102,185.5771)"
                 id="g800">
                <path
                   d="m 0,0 c -0.351,-0.2 0.123,-2.967 -0.085,-2.789 -0.119,0.102 -0.019,-0.221 -0.03,-0.233 0.385,-1.407 0.78,1.164 0.602,0.965 C 0.297,-2.269 0.382,0.218 0,0"
                   style="fill:#aaabab;fill-opacity:1;fill-rule:nonzero;stroke:none"
                   id="path798" />
              </g>
              <g
                 transform="translate(328.2191,184.2424)"
                 id="g804">
                <path
                   d="M 0,0 C 1.183,-1.275 0.606,-0.245 -0.05,0.366 -1.01,1.259 0.109,0.914 -1.518,2.152 -2.341,2.778 -2.608,3.09 -2.846,3.708 -3.01,4.133 -3.195,4.424 -3.256,4.356 -3.406,4.189 -2.554,2.509 -2.296,1.84 -2.091,1.31 -1.668,1.143 -1.839,0.953 -2.159,0.595 0.739,-1.958 1.027,-1.873 1.562,-1.716 -1.525,0.13 -1.05,0.661 -0.866,0.866 -0.717,0.773 0,0"
                   style="fill:#aaabab;fill-opacity:1;fill-rule:nonzero;stroke:none"
                   id="path802" />
              </g>
              <g
                 transform="translate(327.0031,201.7996)"
                 id="g808">
                <path
                   d="M 0,0 C 0.551,-1.628 1.038,-3.348 1.261,-3.577 1.549,-3.873 1.69,-3.505 1.447,-3.093 0.905,-2.175 0.31,0.738 0.221,0.98 -0.14,1.95 -0.348,1.027 0,0"
                   style="fill:#aaabab;fill-opacity:1;fill-rule:nonzero;stroke:none"
                   id="path806" />
              </g>
              <g
                 transform="translate(328.259,202.5419)"
                 id="g812">
                <path
                   d="M 0,0 C -0.205,-0.229 0.842,-2.521 0.569,-1.418 0.405,-0.758 0.07,0.078 0,0"
                   style="fill:#aaabab;fill-opacity:1;fill-rule:nonzero;stroke:none"
                   id="path810" />
              </g>
              <g
                 transform="translate(326.5113,183.1423)"
                 id="g816">
                <path
                   d="m 0,0 c 3.103,-2.593 2.898,-2.648 3.806,-2.279 0.754,0.306 1.309,0.32 1.295,0.58 -0.016,0.292 -1.311,0.212 -1.588,-0.097 -0.16,-0.179 -0.342,-0.168 -0.56,0.034 -1.413,1.301 -3.479,2.3 -4.25,4.342 -0.265,0.703 -0.715,0.631 -0.148,-0.747 v 0 C -1.131,1.071 -0.839,0.701 0,0"
                   style="fill:#aaabab;fill-opacity:1;fill-rule:nonzero;stroke:none"
                   id="path814" />
              </g>
              <g
                 transform="translate(329.1465,203.4594)"
                 id="g820">
                <path
                   d="M 0,0 C -0.299,0.605 0.126,0.565 -0.146,1.026 -0.447,1.536 -0.5,4.76 -0.981,4.733 -1.193,4.722 -0.978,3.708 -0.803,2.549 -0.518,0.668 -0.515,0.239 -0.007,-0.227 0.112,-0.336 0.115,-0.234 0,0"
                   style="fill:#aaabab;fill-opacity:1;fill-rule:nonzero;stroke:none"
                   id="path818" />
              </g>
              <g
                 transform="translate(330.2372,183.0405)"
                 id="g824">
                <path
                   d="M 0,0 C -0.601,0.211 -0.801,0.168 -0.782,-0.171 -0.763,-0.511 1.717,-0.603 0,0"
                   style="fill:#aaabab;fill-opacity:1;fill-rule:nonzero;stroke:none"
                   id="path822" />
              </g>
              <g
                 transform="translate(319.0989,195.25)"
                 id="g828">
                <path
                   d="M 0,0 C 0.027,0.715 -0.596,-0.046 -0.548,1.156 -0.526,1.705 -1.4,5.187 -1.028,5.59 -0.792,5.847 -1.046,5.426 -0.618,4.953 -0.25,4.546 0.135,4.894 -0.149,5.376 -0.258,5.561 -0.299,5.842 -0.239,5.999 0.212,7.183 0.247,3.574 0.076,4.093 0.03,4.233 -0.095,4.321 -0.2,4.29 -0.492,4.204 -0.32,2.955 0.001,2.832 0.508,2.639 -0.53,2.441 -0.151,2.102 0.212,1.776 0.205,-0.653 0.785,-0.006 0.971,0.202 1.091,0.002 0.579,-0.337 0.544,-0.305 -0.034,-0.902 0,0 m -2.143,3.281 c -0.303,-0.148 0.217,0.208 0.052,0.907 -0.193,0.818 0.418,0.201 0.283,-0.354 0.011,-0.01 -0.139,-0.458 -0.335,-0.553 M -0.99,5.986 C -1.324,5.795 -1.328,11.874 -0.947,7.642 -0.935,7.632 -0.826,6.08 -0.99,5.986 m 0.408,5.761 c 0.563,1.438 0.442,-3.351 0.285,-3.211 -0.207,0.186 -0.44,2.815 -0.285,3.211 m 0.829,2.092 c -0.034,2.93 -0.587,1.125 -0.48,1.988 0.089,0.723 0.639,-0.562 0.53,2.9 -0.016,0.529 0.294,0.572 0.086,0.759 -0.652,0.583 -0.275,-2.474 -0.774,0.602 -0.167,1.024 -0.406,2.171 -0.531,2.55 -0.306,0.922 -0.143,1.363 0.279,0.753 1.029,-1.485 0.55,-2.54 0.868,-2.737 C 0.933,20.217 0.764,13.459 0.576,13.25 0.497,13.162 0.473,12.838 0.522,12.53 0.626,11.882 0.277,11.238 0.247,13.839 m -0.78,-0.755 c 0.184,0.601 0.459,0.485 0.309,-0.13 -0.243,-0.996 -0.503,-0.506 -0.309,0.13 M -0.904,12.01 c -0.492,-0.145 -0.821,0.723 -0.437,1.152 0.35,0.392 0.523,0.174 0.367,-0.464 -0.175,-0.721 0.423,-0.584 0.07,-0.688 m 2.331,8.549 C 1.788,20.579 1.995,16.18 1.518,18.533 1.281,19.7 1.243,20.549 1.427,20.559 m 0.86,-4.47 C 2.33,15.626 2.347,15.227 2.324,15.202 2.148,15.005 2.029,15.537 2.11,16.165 2.245,17.219 2.185,17.18 2.287,16.089 M 1.806,12.152 C 1.616,10.86 1.852,11.974 2.097,8.691 2.66,1.106 3.646,3.556 3.083,5.052 2.397,6.876 3.16,8.119 3.347,6.464 3.466,5.407 3.605,3.82 3.834,3.08 4.247,1.75 3.66,1.269 3.443,3.005 3.359,3.679 2.476,3.784 3.386,0.844 3.79,-0.46 3.53,-0.407 3.737,-0.593 4.045,-0.868 4.174,-2.247 3.976,-3.135 3.75,-4.145 3.363,-4.131 3.362,-3.114 3.36,-1.838 2.297,0.854 2.386,1.725 2.452,2.378 2.074,2.766 1.912,4.31 1.769,5.675 1.362,5.623 1.6,5.889 1.699,6 1.713,6.346 1.63,6.658 1.466,7.272 1.15,13.683 1.269,13.972 c 0.203,0.494 0.653,-1.03 0.537,-1.82 m 0.872,0.398 c -0.01,-0.012 -0.112,-0.272 -0.2,-0.174 -0.251,0.279 -0.31,0.598 -0.147,0.781 0.224,0.25 0.494,-0.223 0.347,-0.607 m 0.583,1.206 C 3.473,12.685 3.338,10.958 3.16,12.615 3.056,13.576 3.13,14.413 3.261,13.756 M 4.805,13.352 C 4.912,11.755 5.249,9.622 5.352,8.586 5.413,7.968 5.629,8.253 5.732,7.129 5.841,5.926 6.304,4.591 6.523,3.027 6.865,0.573 7.377,0.184 7.382,-0.716 7.383,-1 7.434,-1.278 7.495,-1.332 7.893,-1.689 8.914,-5.887 8.668,-6.161 8.413,-6.446 7.335,-4.077 7.067,-2.687 6.853,-1.576 6.582,-1.786 6.561,-0.889 6.539,0.009 6.515,-1.124 5.221,4.92 4.665,7.514 4.202,13.779 4.538,14.154 4.665,14.297 4.761,14.01 4.805,13.352 m 0.593,0.774 c 0.181,0.011 0.239,-1.972 0.117,-1.863 -0.157,0.142 -0.264,1.855 -0.117,1.863 m 0.187,-2.198 c 0.22,-0.186 0.211,-1.494 0.102,-1.397 -0.164,0.148 -0.266,1.536 -0.102,1.397 M 2.851,8.491 C 2.629,8.478 2.438,9.668 2.661,9.68 2.883,9.693 3.074,8.503 2.851,8.491 M 4.355,-0.126 C 4.124,-0.384 3.993,0.061 3.991,0.448 3.983,1.931 4.556,0.098 4.355,-0.126 M 5.897,-2.885 C 5.856,-2.368 5.362,-1.055 5.532,-0.865 5.723,-0.652 5.141,-0.552 5.048,0.4 4.94,1.503 3.866,5.411 3.639,7.782 3.572,8.482 3.475,9.092 3.426,9.139 3.228,9.322 3.224,11.498 3.421,11.556 3.537,11.59 3.636,11.814 3.641,12.053 3.745,16.811 4.459,1.65 5.673,0.563 5.755,0.489 5.823,0.192 5.824,-0.098 c 0.004,-0.73 0.448,-0.82 0.265,-1.025 -0.17,-0.19 0.111,-0.129 0.438,-1.378 0.383,-1.463 1.179,-2.963 0.956,-3.22 -0.4,-0.457 -1.477,1.47 -1.586,2.836 M 3.32,-4.947 C 3.184,-5.709 2.142,-2.316 2.642,-2.764 2.826,-2.929 3.149,-4.112 3.043,-4.23 2.893,-4.398 3.379,-4.619 3.32,-4.947 M 2.087,-0.69 C 1.535,-0.196 -0.277,9.796 0.583,9.843 0.662,9.848 0.708,9.661 0.685,9.43 0.626,8.83 0.987,9.004 0.875,8.012 0.701,6.454 2.781,-1.312 2.087,-0.69 m -4.743,15.024 c 0.188,0.21 0.37,-0.297 0.284,-0.792 -0.21,-1.207 -0.369,0.697 -0.284,0.792 m 9.218,7.065 C 6.053,23.837 6.675,23.33 6.65,22.671 6.643,22.461 6.698,22.234 6.774,22.166 7.057,21.913 7.177,18.457 6.562,21.399 M 4.53,27.858 C 4.471,28.307 4.136,28.073 4.029,28.718 3.938,29.263 3.871,29.34 5.206,27.363 5.587,26.797 5.984,25.688 5.891,25.445 5.732,25.027 6.267,25.175 6.028,24.908 5.773,24.623 6.199,24.952 6.232,24.334 6.28,23.471 4.669,26.805 4.53,27.858 m -0.553,2.198 c 0.236,0.619 1.093,-0.8 0.287,-0.493 -0.415,0.159 -0.415,0.158 -0.287,0.493 m 6.214,-4.606 c 0.178,0.199 0.723,-0.716 0.776,-1.304 0.122,-1.346 -0.896,1.171 -0.776,1.304 m 3.231,-3.261 c 0.188,0.01 0.792,-2.217 0.646,-2.381 -0.157,-0.174 -0.138,-0.218 -0.482,1.16 -0.166,0.667 -0.24,1.217 -0.164,1.221 m -2.866,-7.224 c 0.592,0.032 0.375,-1.784 0.182,-1.594 -0.187,0.184 -0.347,1.584 -0.182,1.594 M 3.988,-11.034 c 0.054,-0.048 -0.294,-0.353 -0.206,0.137 0.054,0.302 -0.708,1.129 -0.558,1.297 0.152,0.169 0.872,-1.184 0.764,-1.434 m 3.366,-2.239 c 0.465,-0.378 1.381,-0.996 1.623,-1.487 0.249,-0.505 0.269,-0.439 -0.129,-0.145 -2.422,1.791 -1.745,1.837 -1.494,1.632 m 0.791,-22.885 c 0.331,0.019 -0.588,-4.105 -0.727,-3.979 -0.195,0.174 0.499,3.967 0.727,3.979 m -1.738,-9.209 c -1.437,-5.509 0.421,4.308 0.783,4.711 0.398,0.445 0.109,-1.296 -0.783,-4.711 m -2.335,-9.935 c 0.194,0.217 -0.869,-2.262 -0.317,0.041 0.524,2.183 0.587,0.982 0.317,-0.041 m -6.873,-25.173 c 0.014,-0.266 -0.041,-0.109 -0.441,-1.422 -0.422,-1.386 -0.66,-1.141 -0.392,-0.451 0.15,0.387 0.792,2.611 0.833,1.873 m -0.957,-2.755 c 0.361,0.02 -0.255,-1.566 -0.452,-1.39 -0.134,0.12 0.276,1.381 0.452,1.39 m -11.777,-35.111 c 0.537,-0.481 -0.874,-0.871 -0.621,-0.582 0.291,0.334 0.282,0.885 0.621,0.582 m -2.229,-5.884 c -0.114,-0.261 -0.662,-1.246 -0.873,-1.056 -0.127,0.114 1.216,1.845 0.873,1.056 m -1.006,-1.497 c 0.642,0.466 -3.14,-6.725 -11.737,-17.887 -2.434,-3.16 -0.151,0.691 4.811,7.183 0.382,0.499 6.494,10.39 6.926,10.704 M -0.883,-1.466 c 0.251,-0.195 0.061,-0.822 0.347,-1.078 0.288,-0.257 -0.128,-0.411 0.081,-0.598 0.966,-0.865 2.169,-9.205 7.851,-11.734 2.409,-1.073 1.62,-1.572 1.656,-4.924 0,-0.028 -1.039,-12.444 -2.769,-19.584 -0.504,-2.08 0.165,-1.504 -0.092,-2.019 -0.328,-0.653 0.169,0.911 -0.361,-0.026 -0.008,-0.014 -4.527,-23.461 -5.802,-27.024 -0.368,-1.026 -0.475,-1.414 -0.408,-1.473 0.044,-0.04 -0.053,-0.484 -0.217,-0.985 -0.403,-1.231 -0.007,-1.027 -0.293,-1.345 -0.347,-0.388 0.513,-0.308 0.179,-0.681 -0.426,-0.475 -0.198,1.059 -0.782,-0.835 -5.36,-17.363 -6.25,-20.212 -6.458,-20.444 -0.248,-0.276 -0.137,-1.164 0.146,-1.171 0.125,-0.003 0.045,-0.041 -0.177,-0.083 -0.567,-0.109 -3.359,-9.101 -4.741,-12.388 -0.757,-1.802 -1.685,-4.512 -1.605,-4.691 0.12,-0.267 -0.966,-3.647 -1.286,-4.004 -0.428,-0.478 -0.114,-0.781 -0.365,-0.855 -0.262,-0.077 -1.008,-2.059 -1.703,-3.213 -14.115,-23.405 -18.567,-25.659 -17.65,-26.48 0.093,-0.083 0.761,0.633 1.871,2.002 1.391,1.716 2.829,3.006 1.721,1.544 -1.241,-1.64 -1.45,-2.075 -0.996,-2.073 0.712,0.004 0.691,-0.115 -0.188,-1.069 -1.995,-2.166 -1.589,-2.554 -1.696,-2.421 -0.431,-1.998 14.367,18.565 14.36,19.13 -0.004,0.362 7.808,14.558 7.535,15.091 -0.163,0.317 0.038,1.072 0.114,1.423 -0.917,-1.506 -0.737,-1.396 -0.687,-0.567 0.151,2.473 5.311,12.41 7.328,19.966 0.005,0.02 3.892,9.927 3.76,10.816 -0.031,0.207 0.033,0.476 0.142,0.598 1.429,1.595 9.246,32.912 8.441,32.003 -0.392,-0.44 -1.646,-7.246 -1.714,-5.92 -0.049,0.957 1.595,7.01 2.026,8.429 0.491,1.618 0.988,4.534 1.352,5.751 0.345,1.158 0.233,1.769 0.472,3.253 0.833,5.185 1.073,4.915 1.071,6.317 -0.004,4.388 1.557,9.183 1.318,15.742 -0.072,1.975 0.218,1.049 0.645,1.526 0.164,0.183 0.064,0.246 -0.562,0.358 -0.642,0.115 -1.064,0.391 -2.692,1.762 -3.396,2.86 -4.016,4.674 -4.003,3.97 0.006,-0.284 1.247,-2.228 1.549,-2.425 0.446,-0.291 1.015,-0.987 0.906,-1.108 -0.294,-0.328 -2.045,1.786 -3.036,3.667 -0.238,0.45 -0.574,0.934 -0.748,1.075 -0.497,0.404 -1.843,4.224 -1.588,4.509 0.161,0.18 -0.268,0.775 -0.55,0.76 -0.331,-0.019 -0.768,0.701 -0.564,0.929 0.229,0.255 0.62,0.075 0.787,-0.361 0.348,-0.909 0.226,1.644 1.004,-1.382 0.496,-1.929 0.744,-1.561 0.796,-1.981 0.131,-1.042 1.489,-2.283 1.943,-1.776 0.182,0.203 0.292,0.191 0.416,-0.048 0.297,-0.573 0.108,0.619 0.031,0.688 -0.192,0.172 -0.78,2.597 -0.798,3.287 -0.039,1.585 0.345,2.726 0.599,1.775 C 5.115,-2.172 5.227,-2.377 5.281,-2.317 5.496,-2.077 4.78,-4.522 6.967,-6.592 7.885,-7.46 7.89,-7.462 7.608,-6.83 7.174,-5.861 7.52,-5.78 8.023,-6.733 8.264,-7.19 8.411,-7.619 8.351,-7.687 8.188,-7.869 8.759,-7.818 8.548,-8.054 8.333,-8.293 8.921,-8.224 8.716,-8.452 8.522,-8.669 9.21,-9.045 9.74,-10.022 c 1.536,-2.828 -2.022,5.213 -0.585,3.159 0.361,-0.515 0.624,-0.392 0.383,0.18 -0.547,1.305 -0.511,5.362 0.049,5.393 0.172,0.009 0.295,-0.353 0.346,-1.017 0.126,-1.638 0.925,-4.34 1.195,-4.039 0.155,0.173 -0.908,6.123 -1.135,6.352 C 9.551,0.45 9.198,0.054 8.842,-1.285 8.382,-3.01 8.215,-2.56 8.351,-2.409 8.576,-2.157 7.807,-0.945 7.848,-0.634 7.887,-0.341 6.724,4.085 7.136,4.108 7.312,4.118 7.624,2.492 7.812,2.324 8.006,2.151 8.119,0.883 8.32,0.894 8.496,0.904 8.67,1.819 8.521,1.952 8.478,1.99 5.54,10.934 6.143,14.679 6.704,18.167 6.577,10.058 7.525,8.262 7.63,8.062 7.708,7.951 7.699,8.016 7.06,12.38 6.878,18.643 7.099,18.655 7.435,18.673 7.353,14.271 7.734,12.738 8.375,10.156 8.52,8.669 8.813,9.439 c 0.168,0.44 -0.463,0.616 -0.3,1.045 0.06,0.156 -0.024,0.638 -0.185,1.071 -0.386,1.033 -0.698,5.918 -0.491,7.689 0.04,0.342 -0.497,2.146 -0.361,2.297 0.156,0.175 -0.837,3.751 -1.394,5.014 -0.798,1.815 -0.298,1.378 0.809,-0.706 2.813,-5.296 2.3,-11.191 2.941,-10.475 0.122,0.136 -0.229,4.602 0.043,4.485 0.553,-0.24 0.877,-3.363 0.934,-3.956 0.072,-0.738 -0.23,-1.056 -0.303,-0.363 -0.112,1.065 -0.287,0.211 -0.254,-1.24 0.019,-0.824 0.031,-1.72 0.026,-1.993 -0.017,-1.01 0.993,-4.755 1.029,-3.814 0.008,0.223 -0.048,0.462 -0.125,0.531 -0.328,0.294 -0.894,5.245 -0.118,3.473 0.331,-0.756 -0.08,-0.422 0.259,-1.195 0.619,-1.412 0.045,2.546 -0.048,2.63 -0.139,0.124 -0.137,1.728 0.003,1.883 0.506,0.565 1.043,-4.851 0.722,1.415 -0.087,1.689 -0.102,3.074 -0.034,3.078 0.168,0.009 0.648,-1.534 0.522,-1.675 -0.148,-0.166 0.434,-1.738 0.193,-2.273 -0.25,-0.555 0.188,-0.402 0.21,-1.356 0.022,-0.905 0.716,-2.247 0.391,0.403 -0.159,1.297 -0.153,2.906 -0.262,3.003 -0.329,0.295 -1.079,4.993 -2.164,7.198 -0.507,1.028 -0.336,2.658 0.289,1.04 0.621,-1.606 2.492,-4.759 3.254,-12.464 0.144,-1.457 0.324,-1.005 0.367,-1.797 0.041,-0.741 0.518,-1.071 0.985,-2.098 0.528,-1.161 0.549,-0.686 0.036,0.795 -0.511,1.476 -1.634,6.573 -1.221,6.596 0.101,0.006 0.254,-0.253 0.34,-0.574 0.255,-0.959 0.275,-0.053 0.353,-1.042 0.187,-2.398 2.806,-7.29 3.037,-7.277 0.628,0.034 -1.174,3.038 -1.532,4.21 -0.11,0.361 -0.29,0.853 -0.399,1.094 -0.416,0.915 0.15,0.878 0.604,-0.04 0.613,-1.236 2.464,-3.383 2.519,-4.366 0.038,-0.706 0.666,-0.968 0.48,-1.176 C 19.686,8.194 20.938,8.175 20.462,4.243 20.221,2.245 19.978,1.997 19.887,3.655 19.81,5.044 19.238,7.961 19.044,7.95 18.856,7.94 19.68,3.198 19.555,2.406 c -0.228,-1.448 0.152,-4.451 -0.976,-5.71 -0.48,-0.536 -0.398,-0.593 -0.233,0.301 0.145,0.785 0.097,2.468 -0.523,-0.901 -0.816,-4.434 -0.795,0.332 -0.534,0.623 0.076,0.085 0.207,0.562 0.291,1.058 0.162,0.957 0.586,1.692 0.62,1.074 0.064,-1.161 0.667,0.29 0.259,0.363 -0.319,0.057 0.317,0.431 0.235,0.98 -10e-4,0.003 0.279,1.804 -0.245,4.327 -0.428,2.06 -0.452,-0.257 -0.209,-0.328 0.27,-0.08 0.132,-3.979 -0.146,-4.121 -0.409,-0.21 -0.556,0.02 -0.453,0.704 0.241,1.587 -0.464,4.998 -0.327,1.633 0.076,-1.871 -0.272,-2.387 0.028,-2.502 0.45,-0.171 -1.593,-2.273 -1.174,-1.164 0.194,0.514 0.174,4.345 -0.023,4.523 -0.096,0.086 -0.248,-1.189 -0.239,-2.011 0.045,-4.471 -1.043,-6.158 -0.959,-5.3 0.04,0.397 0.027,2.764 0.318,3.239 0.31,0.507 -0.291,1.046 -0.013,1.588 0.275,0.539 -0.827,4.152 -0.608,1.233 0.113,-1.509 -0.283,-1.625 -0.233,-1.025 0.049,0.598 -0.6,1.843 -0.753,1.443 -0.055,-0.146 -0.05,-0.31 0.013,-0.366 0.545,-0.489 0.357,-3.429 -0.276,-4.315 -0.668,-0.934 -1.286,-0.753 -0.899,0.263 0.154,0.406 -0.377,0.556 -0.407,1.069 -0.033,0.554 -0.303,-0.32 -0.179,-0.431 0.058,-0.052 0.07,-0.808 0.028,-1.68 -0.118,-2.405 -0.049,-2.946 0.43,-3.401 0.571,-0.541 0.395,-0.695 0.566,0.701 0.143,1.166 0.105,2.51 1.071,3.423 0.753,0.712 0.644,0.875 0.292,-0.736 -0.434,-1.989 -0.163,-4.243 0.487,-4.051 0.177,0.052 0.652,1.66 0.71,2.403 0.02,0.251 0.884,2.151 1.077,2.366 0.244,0.273 0.32,-0.131 0.154,-0.82 -0.28,-1.164 -0.115,-3.948 0.22,-3.693 0.15,0.114 0.334,0.154 0.409,0.087 0.593,-0.532 1.388,3.065 1.979,3.676 0.898,0.93 1.575,2.486 1.01,2.319 -0.131,-0.039 -0.025,0.659 0.235,1.551 0.956,3.284 0.934,5.387 -0.086,8.026 -0.58,1.501 -2.535,5.164 -2.958,5.543 -0.762,0.682 -3.474,10.583 -4.856,10.92 -0.861,0.21 -0.87,2.089 -1.699,2.831 -0.222,0.199 -0.343,0.19 -0.427,-0.032 -0.14,-0.367 -0.725,0.334 -1.107,1.325 -0.456,1.184 -1.356,0.861 -0.53,-0.487 2.303,-3.762 0.616,-2.677 0.695,-2.235 0.05,0.281 -0.409,0.734 -0.936,1.898 -0.585,1.294 -0.69,1.439 -0.883,1.223 -0.098,-0.11 0.044,-0.611 0.315,-1.114 0.755,-1.399 0.123,-1.004 0.443,-1.291 1.22,-1.093 3.736,-11.329 2.797,-11.38 -0.107,-0.006 -0.185,0.157 -0.173,0.363 0.127,2.164 -2.499,8.289 -2.59,8.895 C 8.522,25.694 7.68,25.888 7.065,26.975 6.336,28.263 4.183,30.881 3.958,30.752 3.69,30.599 3.19,31.083 2.43,32.23 1.417,33.757 0.563,34.2 1.383,32.773 c 0.242,-0.42 0.279,-0.715 0.113,-0.9 -0.469,-0.524 2.745,-4.696 3.176,-7.158 0.076,-0.436 0.498,-2.099 0.78,-3.073 0.401,-1.381 0.185,-6.846 0.047,-7 C 5.27,14.386 5.114,15.061 5.228,15.823 5.283,16.195 5.29,16.46 5.245,16.409 5.017,16.159 5.053,20.574 3.931,23.154 3.594,23.929 3.5,24.31 3.217,24.564 2.89,24.856 2.797,25.843 2.464,25.902 2.333,25.926 2.287,26.012 2.361,26.094 2.549,26.304 2.242,27.062 1.723,27.67 1.101,28.4 0.924,27.881 1.502,27.019 2.883,24.961 5.039,16.91 4.325,16.888 4.194,16.883 3.012,21.366 3.088,21.579 3.213,21.931 2.932,21.335 2.435,22.621 1.976,23.81 1.165,24.759 0.881,24.442 0.573,24.098 0.567,24.678 0.465,24.564 0.371,24.459 1.182,22.139 1.044,21.984 0.868,21.788 1.678,21.05 1.184,22.72 0.69,24.393 1.423,23.722 1.556,23.041 1.675,22.425 2.25,22.451 2.047,22.225 1.831,21.984 2.249,22.164 2.396,20.622 2.571,18.779 2.974,18.568 2.777,18.347 2.717,18.281 2.762,18.142 2.876,18.04 3.086,17.852 3.216,16.674 3.181,15.279 3.156,14.301 3.214,14.309 3.021,15.101 2.763,16.153 2.624,16.565 2.451,18.014 2.227,19.887 1.26,22.659 1.341,21.197 1.369,20.679 1.155,20.586 0.989,21.043 0.78,21.618 0.61,21.129 0.671,21.499 c 0.12,0.742 -1.859,4.494 -2.359,4.471 -0.235,-0.01 -0.256,0.028 -0.082,0.152 0.314,0.224 -0.205,0.743 -0.755,2.074 -0.417,1.008 -0.537,1.037 -1.018,0.242 -0.337,-0.555 -0.306,-0.742 0.444,-2.675 3.024,-7.797 1.226,-10.657 1.452,-11.603 0.064,-0.268 -0.304,-0.545 -0.211,0.518 0.606,6.925 -3.624,13.566 -1.856,8.593 1.888,-5.314 1.275,-10.324 1.066,-7.902 -0.104,1.211 -0.402,0.677 -0.557,-0.999 -0.245,-2.646 0.544,-12.121 0.878,-12.42 0.087,-0.078 1.116,-4.184 1.371,-3.898 0.195,0.215 -0.195,0.69 0.073,0.482"
                   style="fill:#aaabab;fill-opacity:1;fill-rule:nonzero;stroke:none"
                   id="path826" />
              </g>
              <g
                 transform="translate(318.9883,221.2237)"
                 id="g832">
                <path
                   d="M 0,0 C -0.204,-0.228 0.091,-0.401 0.407,-0.239 0.56,-0.16 0.823,-0.218 0.991,-0.368 1.399,-0.733 1.523,-0.225 0.956,0.073 0.348,0.393 0.942,0.351 0.386,1.018 -0.083,1.581 -0.387,1.337 -0.082,0.641 0.036,0.37 0.073,0.082 0,0"
                   style="fill:#aaabab;fill-opacity:1;fill-rule:nonzero;stroke:none"
                   id="path830" />
              </g>
              <g
                 transform="translate(349.5848,175.0317)"
                 id="g836">
                <path
                   d="M 0,0 C -0.796,-0.119 -0.718,0.63 -0.235,0.445 0.305,0.24 0.4,0.059 0,0 M -1.973,6.89 C -2.23,7.763 -0.791,6.527 -1.512,6.557 -1.741,6.567 -1.914,6.692 -1.973,6.89 m 0.117,1.595 C -1.599,8.772 -0.613,7.371 -1.632,7.69 -2.079,7.83 -2.167,8.138 -1.856,8.485 M -16.147,6.044 c 0.448,-0.08 3.158,2.011 3.886,2.998 2.26,3.063 2.145,6.35 2.297,6.52 0.181,0.201 -0.165,1.561 -0.408,1.604 -0.67,0.12 -0.187,-2.855 -0.626,-3.346 -0.099,-0.109 -0.154,-0.364 -0.124,-0.567 0.51,-3.431 -6.584,-7.508 -6.846,-7.8 -0.615,-0.687 0.755,-6.756 -3.912,-34.659 -2.282,-13.641 -10.563,-41.472 -11.241,-42.911 -1.314,-2.786 -2.693,-6.995 -1.63,-4.975 0.167,0.317 0.294,0.393 0.44,0.262 0.195,-0.174 0.032,-0.547 -0.825,-1.888 -0.36,-0.563 -1.972,-4.563 -2.887,-6.082 -1.009,-1.676 -2.12,-5.424 -2.267,-5.482 -0.531,-1.528 0.656,-0.647 1.541,1.143 8.876,17.953 25.114,43.972 27.411,46.104 1.684,1.563 5.253,8.381 6.022,9.241 0.975,1.088 -0.119,0.633 0.753,2.45 0.709,1.477 1.451,4.41 1.867,4.874 0.162,0.18 0.233,0.448 0.158,0.595 -0.127,0.246 0.573,3.153 0.826,3.436 0.199,0.222 -0.071,1.026 0.397,2.606 0.416,1.402 0.119,1.779 0.398,2.103 0.638,0.74 2.564,13.866 2.198,14.486 -0.234,0.397 0.327,1.07 0.594,0.711 C 2.66,-3.589 2.229,2.558 1.956,-0.314 1.804,-1.919 1.389,-0.25 0.837,-1.297 0.596,-1.755 0.589,-1.754 0.521,-1.243 0.45,-0.709 1.048,-0.289 1.42,-0.611 1.502,-0.682 1.482,-0.425 1.375,-0.04 1.176,0.678 0.342,1.261 0.023,0.905 -0.164,0.697 -1.154,1.474 -0.153,1.53 0.418,1.561 -0.076,1.833 -1.14,2.072 -3.117,2.517 -1.47,2.981 -0.679,2.66 -0.424,2.557 -0.241,2.845 -1.037,3.128 -2.705,3.72 -2.712,4.216 -1.05,4.068 2.272,3.771 -2.423,4.865 -2.544,5.091 c -0.131,0.243 0.741,0.343 1.102,0.126 0.35,-0.21 2.139,-0.194 1.904,0.017 -0.268,0.24 -1.242,0.27 -1.955,0.504 -0.823,0.269 -0.497,0.425 0.43,0.205 1.045,-0.247 1.426,-0.042 0.708,0.382 -0.418,0.246 -0.485,0.362 -0.318,0.549 0.117,0.13 0.278,0.178 0.358,0.106 0.183,-0.163 0.491,0.065 0.095,0.326 -0.421,0.278 -0.716,3.873 -1.02,2.125 -0.15,-0.865 -0.912,-0.758 -0.863,0.121 0.107,1.902 -0.919,-0.673 -0.647,-0.916 0.201,-0.18 0.238,-0.883 0.058,-1.084 -0.635,-0.71 -0.47,3.554 -0.794,3.844 -0.173,0.155 -0.387,-0.11 -0.307,-0.381 0.036,-0.122 -0.033,-0.333 -0.152,-0.47 -0.293,-0.336 0.263,-2.136 0.41,-3.11 0.114,-0.76 0.547,-0.8 0.281,-1.097 C -3.555,6.002 -3.297,4.284 -3.557,2.746 -3.605,2.46 -2.705,1.99 -3.022,2.125 -3.389,2.28 -3.536,1.985 -3.229,1.71 -3.078,1.576 -2.961,1.307 -2.968,1.115 -2.99,0.53 -1.475,-1.448 -1.051,-1.519 c 0.198,-0.033 0.244,0.003 0.134,0.104 -0.126,0.116 -0.03,0.225 0.387,0.442 0.807,0.419 0.648,-0.253 0.265,-0.274 -0.665,-0.037 -0.593,-0.801 0.119,-1.25 0.624,-0.394 0.816,-1.447 0.357,-1.959 -0.729,-0.814 -1.558,-21.037 -8.353,-31.469 -4.276,-6.564 0.642,0.719 -11.361,-16.493 -13.272,-19.031 -13.86,-24.086 -14.631,-24.129 -0.371,-0.02 -0.193,0.13 0.491,1.746 0.697,1.646 1.272,2.276 1.099,2.431 -0.06,0.054 2.13,6.205 2.19,6.404 8.613,28.919 8.974,37.341 9.985,40.879 0.097,0.339 0.35,3.324 0.518,3.512 0.183,0.203 0.111,1.852 0.237,2.011 0.726,0.924 2.231,20.881 2.229,20.902 -0.214,2.808 0.329,4.868 1.238,4.706"
                   style="fill:#aaabab;fill-opacity:1;fill-rule:nonzero;stroke:none"
                   id="path834" />
              </g>
              <g
                 transform="translate(357.5975,154.0652)"
                 id="g840">
                <path
                   d="M 0,0 C 0.192,-0.172 -1.503,-2.068 -1.697,-1.895 -1.89,-1.722 -0.194,0.173 0,0 M 0.768,0.954 C 2.235,2.075 0.601,0.25 0.395,0.434 0.314,0.507 0.472,0.728 0.768,0.954 m -8.382,-9.631 c -0.121,0.108 1.069,1.555 1.368,1.664 0.44,0.16 -1.3,-1.725 -1.368,-1.664 m 18.859,20.148 c -0.716,0.747 0.182,2.214 0.088,1.493 -0.039,-0.305 -0.019,-0.324 0.148,-0.142 0.292,0.319 0.304,-0.52 0.014,-1.003 0.011,0.012 -0.227,-0.373 -0.25,-0.348 m 0.366,2.477 c -0.305,-0.149 0.319,0.435 0.457,1.002 0.164,0.675 0.545,0.011 0.418,-0.13 -0.244,-0.273 0.503,-0.318 -0.033,-0.917 -0.57,-0.637 -0.399,0.26 -0.842,0.045 m 3.316,5.132 c 0.716,0.546 0.992,-1.556 0.026,-0.691 -0.38,0.341 -0.384,0.419 -0.026,0.691 m -0.939,-1.402 c -0.175,0.156 0.006,0.735 0.234,0.748 0.463,0.025 0.127,-1.071 -0.234,-0.748 m 2.956,2.999 c 0.501,-0.09 0.97,1.367 0.985,-0.62 0.011,-1.317 0.434,-1.025 -0.202,-1.723 -0.852,-0.934 -0.228,0.139 -0.538,0.416 -0.271,0.243 0.182,1.393 -0.387,0.446 -0.377,-0.627 -0.903,-0.562 -0.94,0.117 -0.026,0.472 0.732,1.427 1.082,1.364 m 2.202,0.772 c 0.158,-0.164 -0.212,-2.348 -0.4,-2.359 0.01,0.012 -0.565,0.034 -0.232,0.407 0.098,0.109 0.124,0.468 0.058,0.798 -0.107,0.542 0.325,1.412 0.574,1.154 m 1.681,0.733 c 0.178,0.468 1.54,-0.063 1.768,-0.689 0.248,-0.68 -0.252,-0.792 -0.029,-0.992 0.186,-0.166 -0.169,-0.636 -0.465,-0.372 -0.33,0.296 0.127,0.295 -0.185,0.824 -0.302,0.512 0.204,0.348 0.103,0.692 -0.037,0.123 -0.132,0.151 -0.212,0.061 -0.081,-0.089 -0.175,-0.065 -0.211,0.055 -0.16,0.544 -0.239,-0.367 -0.084,-0.973 0.198,-0.775 0.158,-0.87 -0.361,-0.85 -0.299,0.011 -0.403,0.149 -0.527,0.702 -0.199,0.881 -0.484,1.147 -0.444,0.413 0.046,-0.834 0.477,-0.462 0.005,-1.072 -0.366,-0.408 -0.618,-0.517 -0.829,0.39 -0.166,0.708 0.584,1.169 0.349,1.379 -0.259,0.232 0.95,-0.021 1.122,0.432 m 2.552,0.48 c 0.208,-0.186 0.232,-2.196 0.026,-2.207 -0.957,-0.053 -0.362,2.508 -0.026,2.207 m 1.104,0.605 c 0.183,-0.501 0.48,-0.412 0.296,-0.45 -0.212,-0.044 -0.23,-1.329 -0.474,-1.343 -0.257,-0.014 -0.583,0.318 -0.454,0.462 0.061,0.068 0.115,0.393 0.12,0.721 0.013,0.786 0.317,1.148 0.512,0.61 m -1.919,-3.868 c 0.176,-0.236 0.074,-0.42 -0.655,-1.178 -1,-1.04 -1.132,-1.087 -1.201,-0.432 -0.079,0.753 -0.258,0.743 -0.344,-0.019 -0.114,-1.024 -0.747,-1.409 -0.877,-0.533 -0.042,0.282 -0.093,0.203 -0.202,-0.31 -0.231,-1.087 -0.685,-0.923 -0.787,0.283 -0.1,1.189 0.176,1.664 0.602,1.034 0.329,-0.486 0.398,-0.448 0.508,0.281 0.153,1.005 0.541,0.158 1.072,0.75 0.233,0.26 1.385,0.373 1.043,-0.008 -0.299,-0.334 0.301,-0.158 0.038,-0.603 -0.254,-0.427 0.348,-0.291 0.317,0.264 -0.031,0.563 0.229,0.814 0.486,0.471 m 1.081,0.398 c 0.329,-0.295 0.321,-0.34 -0.078,-0.456 -0.469,-0.136 -0.609,-0.089 -0.626,0.211 -0.023,0.42 0.36,0.553 0.704,0.245 m 2.202,1.64 c -0.117,-0.298 0.556,-0.172 0.512,0.637 -0.059,1.065 0.381,1.234 0.742,0.285 0.274,-0.723 0.169,-1.014 -0.547,-1.513 -0.746,-0.521 -0.195,-0.065 -0.403,0.121 -0.2,0.179 -0.676,-0.735 -0.985,-0.609 -0.247,0.101 -0.133,1.138 0.162,1.468 0.24,0.268 0.654,-0.043 0.519,-0.389 M 35.23,32.44 c 0.474,-0.924 0.312,1.668 0.674,2.073 0.165,0.184 0.195,0.143 0.159,-0.218 -0.063,-0.63 0.504,-0.516 0.486,0.43 -0.018,0.916 0.183,1.718 0.387,1.536 0.278,-0.249 0.939,0.72 -0.03,0.667 -0.587,-0.033 -0.175,0.455 0.494,0.585 0.476,0.092 0.592,-0.085 0.698,-1.064 0.098,-0.911 0.271,0 0.236,-1.13 -0.022,-0.712 -0.648,-1.779 -0.78,-1.33 -0.105,0.357 -0.461,0.104 -0.403,-0.287 0.065,-0.437 -0.36,-0.989 -0.597,-0.776 -0.1,0.089 -0.196,-0.075 -0.249,-0.425 -0.115,-0.757 -0.431,-1.102 -0.638,-0.698 -0.174,0.338 -0.284,0.063 -0.302,-0.751 -0.013,-0.577 -0.477,-0.73 -0.56,-0.184 -0.053,0.349 -0.073,0.34 -0.176,-0.078 -0.178,-0.724 0.114,-0.799 -0.24,-1.194 0.013,-0.012 -0.27,-0.268 -0.387,-0.163 -0.234,0.21 0.134,1.689 0.469,1.887 0.525,0.31 0.368,1.883 0.759,1.12 m 3.086,7.111 c -0.638,-0.058 -0.656,-0.379 -0.682,-0.356 -0.316,-0.83 -0.675,1.082 -0.096,0.978 0.441,-0.078 0.274,0.438 0.618,0.377 0.534,-0.095 0.842,0.624 0.476,1.113 -0.291,0.388 -0.293,0.553 -0.014,0.865 0.315,0.352 0.379,0.343 0.705,-0.092 0.203,-0.271 0.415,-0.418 0.487,-0.337 0.186,0.207 -0.185,0.147 0.05,0.898 0.262,0.838 0.236,0.152 0.594,-0.169 0.206,-0.184 -1.578,-1.916 -1.574,-2.726 0.002,-0.473 -0.028,-0.503 -0.564,-0.551 m 2.851,4.14 c 1.325,1.098 2.906,-1.87 2.141,-2.262 -0.483,-0.248 0.829,-0.735 1.225,-1.828 0.461,-1.274 0.601,-0.893 1.33,0.246 1.077,-1.085 1.21,-1.103 0.953,-1.843 -0.281,-0.807 -0.355,-0.894 -0.512,-0.605 -0.152,0.279 -1.07,0.543 -1.61,0.463 -0.306,-0.046 -0.408,0.021 -0.448,0.291 -0.15,1.006 -0.515,-0.484 -1.363,-1.292 -1.04,-0.991 0.846,-0.35 0.869,0.254 0.018,0.478 0.477,0.621 1.259,0.391 1.956,-0.574 0.391,-2.295 0.538,-2.793 0.131,-0.444 0.619,0.095 0.868,0.959 0.45,1.561 1.138,1.702 1.775,0.363 0.528,-1.107 -0.219,-2.831 -0.944,-2.182 -0.717,0.642 -2.213,0.722 -0.696,-0.302 0.905,-0.611 0.974,-0.931 0.419,-1.929 -0.289,-0.518 -0.397,-0.587 -0.699,-0.452 -0.486,0.22 -1.976,0.077 -2.444,-0.234 -0.498,-0.331 -0.385,-0.394 -0.374,0.284 0.019,1.231 1.416,0.423 1.948,2.09 0.337,1.051 0.526,1.054 -0.802,-0.237 -1.036,-1.008 -1.077,-1.027 -2.37,-1.094 v 0 c -2.352,-0.123 -1.174,-0.103 -0.207,1.482 0.691,1.133 1.59,1.713 2.309,1.488 0.586,-0.183 0.958,0.133 0.567,0.483 -0.477,0.428 -1.306,0.328 -1.873,-0.226 -0.451,-0.441 -1.152,-0.48 -0.76,-0.042 0.161,0.179 -0.064,0.515 -0.422,0.115 -0.143,-0.16 -0.187,-0.357 -0.097,-0.438 0.113,-0.101 0.047,-0.164 -0.214,-0.202 -0.502,-0.075 -0.79,0.186 -0.292,0.261 0.249,0.037 0.324,0.104 0.219,0.198 -0.255,0.229 0.48,0.265 0.23,0.754 -0.215,0.419 -0.91,0.285 -1.173,-0.226 -0.26,-0.506 -0.187,-0.529 -0.227,0.196 -0.048,0.87 0.678,0.851 0.559,1.254 -0.171,0.581 1.414,1.849 2.379,1.902 0.649,0.035 0.835,0.426 0.274,0.571 -1.938,0.501 -1.734,-0.822 -2.611,-0.789 -0.451,0.017 -0.371,0.127 0.499,0.684 1.493,0.956 1.419,3.509 -0.1,3.426 -0.663,-0.037 -0.718,0.328 -0.123,0.821 m 3.01,-15.045 C 43.002,28.18 44.021,28.332 41.8,27.773 c -2.052,-0.517 -1.829,-0.653 -0.477,0.618 1.693,1.593 2.379,1.631 2.789,2.089 0.177,0.197 1.383,0.215 1.597,0.024 0.237,-0.212 -0.92,-1.616 -1.532,-1.858 m -0.986,-1.932 c 0.006,-0.253 -0.049,-0.309 -0.234,-0.236 -0.292,0.117 -0.753,-0.354 -0.66,-0.672 0.099,-0.333 -2.347,-2.227 -2.592,-2.008 -0.058,0.053 -0.216,-0.087 -0.351,-0.311 -0.278,-0.463 -0.771,-0.465 -0.796,-0.004 -0.01,0.17 -0.088,0.367 -0.175,0.44 -0.241,0.203 0.152,-0.987 -0.263,-1.199 -0.083,0.074 -0.457,-0.637 -0.537,1.007 -0.048,0.998 0.22,1.286 0.634,0.68 l 0.255,-0.374 c 0.038,2.214 0.783,1.683 0.935,0.817 0.166,-0.948 0.259,-0.861 0.201,0.187 -0.059,1.064 0.162,1.406 1.06,1.642 0.626,0.165 0.627,0.164 0.63,-0.369 0.003,-0.713 0.28,-0.683 0.276,-0.008 -0.003,0.612 0.492,1.039 0.813,0.701 0.127,-0.133 0.245,-0.158 0.263,-0.057 0.058,0.321 0.533,0.113 0.541,-0.236 m -1.498,-2.557 c 0.996,0.867 3.271,0.973 4.14,0.194 0.872,-0.781 -1.908,-2.431 -3.773,-2.239 -0.691,0.071 -1.618,0.055 -2.06,-0.036 -3.022,-0.619 0.454,1.005 1.693,2.081 M 40.348,19.2 c -2.055,-0.51 -2.591,-0.748 -2.821,-0.542 -0.102,0.091 -0.414,0.134 -0.695,0.097 -0.629,-0.084 -0.63,-0.083 -0.768,0.803 -0.113,0.724 0.451,1.452 0.58,0.749 0.141,-0.763 0.439,-1.002 0.373,-0.299 -0.062,0.664 0.316,1.187 0.645,0.893 0.071,-0.064 0.209,-0.028 0.305,0.079 0.247,0.275 1.155,0.116 1.425,0.418 0.224,0.25 0.557,0.247 2.463,-0.025 2.222,-0.318 1.442,-1.441 -1.507,-2.173 m -2.06,14.273 c 0.437,-0.391 0.33,-3.185 -0.128,-3.319 -0.844,-0.25 -0.395,3.788 0.128,3.319 M 35.535,22.751 c -0.138,3.2 1.414,-0.674 0.583,-1.1 -0.439,-0.225 -0.533,-0.046 -0.583,1.1 m -1.067,-0.75 c -0.04,1.003 0.15,1.364 0.535,1.019 0.366,-0.328 0.453,-1.692 0.119,-1.863 -0.369,-0.19 -0.595,-0.649 -0.654,0.844 m -0.82,0.632 c 0.51,0.144 0.77,-1.793 0.288,-2.14 -0.303,-0.219 -0.303,-0.252 0.004,-0.198 0.631,0.11 -0.132,-0.145 -0.403,-0.449 -0.227,-0.253 -0.328,0.077 -0.385,1.257 -0.06,1.241 -0.013,1.386 0.496,1.53 m 1.049,3.847 c 0.23,-2.922 -0.281,-2.147 0.004,-2.402 0.196,-0.175 -0.345,-1.369 -0.522,1.518 -0.056,0.917 -0.149,1.71 -0.207,1.762 -0.08,0.071 0.402,3.205 0.725,-0.878 m 0.762,2.698 c 0.004,-0.698 0.21,-0.325 0.326,-1.999 0.149,-2.158 0.592,-1.198 -0.066,-2.108 -0.143,-0.197 -0.309,-0.314 -0.371,-0.259 -0.199,0.178 -0.484,4.727 -0.308,4.923 0.246,0.276 0.416,0.05 0.419,-0.557 m 1.34,0.901 c -0.181,0.162 -0.049,1.273 0.182,1.531 0.21,0.234 0.457,-0.375 0.489,-1.207 0.035,-0.884 0.006,-0.951 -0.433,-0.997 -0.722,-0.076 -0.437,-0.563 -0.68,-0.835 0.011,-0.01 -0.307,-0.446 -0.487,1.055 -0.144,1.192 0.318,1.861 0.556,0.805 0.171,-0.76 0.266,-0.903 0.457,-0.69 0.072,0.08 0.034,0.232 -0.084,0.338 M 35.752,19.272 c 0.098,-0.681 0.236,-0.685 -0.299,-0.714 -0.555,-0.031 -0.694,0.109 -0.697,0.698 -0.005,0.968 0.857,0.982 0.996,0.016 m 0.915,3.383 c 0.007,1.185 -0.407,2.383 0.042,2.613 0.668,0.342 0.368,-0.215 0.669,-1.826 0.278,-1.483 -0.717,-1.86 -0.711,-0.787 m 4.723,7.337 c 0.031,0.164 -0.02,0.443 -0.115,0.62 -0.174,0.328 0.069,0.777 0.39,0.72 0.39,-0.07 0.278,-1.592 0.161,-1.487 -0.213,-0.452 -0.53,-0.345 -0.436,0.147 m -2.229,-0.279 c -0.024,0.448 0.705,1.131 0.814,0.761 0.037,-0.126 0.087,-0.121 0.111,0.012 0.077,0.433 0.598,0.56 0.791,0.192 0.386,-0.735 0.351,-1.594 -0.077,-1.921 -0.501,-0.381 -0.459,-0.416 -0.576,0.477 -0.135,1.024 -0.393,0.903 -0.3,-0.141 0.138,-1.555 -0.358,-0.902 -1.01,-1.63 -0.38,-0.424 -0.824,-0.349 -0.649,0.11 0.063,0.166 0.018,0.388 -0.1,0.494 -0.279,0.251 -0.168,1.158 0.163,1.328 0.141,0.073 0.281,0.05 0.311,-0.05 0.102,-0.348 0.544,-0.036 0.522,0.368 m -1.633,-1.085 c 0.427,-0.409 0.417,-1.871 -0.016,-2.118 -0.934,-0.532 -1.034,-1.809 -1.318,0.386 -0.089,0.693 -0.045,1.163 0.115,1.21 0.761,0.224 0.444,-1.331 0.806,-1.306 0.261,0.017 -0.307,2.516 0.413,1.828 m 2.846,5.995 c 0.147,0.385 0.703,-0.021 0.228,-0.302 -0.211,-0.124 -0.279,-0.301 -0.185,-0.483 0.118,-0.23 0.196,-0.195 0.39,0.173 0.536,1.019 1.28,-0.103 0.706,-0.001 -0.447,0.08 -0.612,-1.207 -0.733,-0.798 -0.203,0.688 -0.326,-0.951 -0.452,-1.091 -0.011,0.01 -0.384,-0.306 -0.55,0.825 -0.049,0.334 -0.127,0.725 -0.173,0.869 -0.148,0.462 0.296,1.215 0.491,0.834 0.122,-0.237 0.195,-0.244 0.278,-0.026 m -1.136,2.31 c -0.354,1.541 -0.029,2.814 0.647,2.538 0.329,-0.134 0.299,0.203 -0.051,0.567 -0.495,0.516 0.792,2.164 1.584,2.028 1.001,-0.173 -0.134,-2.717 -1.24,-2.777 -0.539,-0.03 0.388,-3.568 -0.827,-3.2 -0.465,0.14 0.091,-0.266 -0.231,-0.625 -0.261,-0.292 0.185,-0.294 0.271,-1.216 0.114,-1.217 0.504,-2.794 -0.083,-3.095 -0.556,-0.285 -0.847,2.298 -0.341,3.025 0.21,0.302 0.196,0.467 -0.053,0.648 -0.518,0.378 -0.519,3.25 -0.723,3.367 -0.14,0.079 0.469,1.572 0.709,-0.692 0.153,-1.441 0.464,-1.111 0.338,-0.568 m 3.564,-17.598 c 1.384,0.782 2.825,0.527 3.13,-0.554 0.245,-0.866 -3.116,-1.971 -3.889,-1.279 -0.361,0.324 -5.792,0.188 -5.941,-0.148 -0.052,-0.119 -7.622,-2.118 -1.501,-0.935 5.544,1.072 8.818,0.97 7.734,-0.24 -0.528,-0.588 -4.189,-1.228 -4.653,-0.812 -0.283,0.253 -9.446,-1.116 -3.061,-0.651 3.72,0.271 6.883,-0.529 8.147,0.947 0.678,0.792 2.725,0.358 2.413,-0.512 -0.07,-0.194 -0.022,-0.232 0.221,-0.176 0.251,0.058 0.287,0.01 0.187,-0.252 -0.143,-0.377 0.553,-0.933 0.749,-0.597 0.509,0.873 1.648,-0.75 1.252,-1.782 -0.373,-0.97 -1.996,-0.162 -2.096,1.043 -0.034,0.415 -0.237,0.484 -0.514,0.174 -0.294,-0.328 -1.775,-0.777 -2.417,-0.202 -0.389,0.349 -0.809,0.316 -0.633,-0.049 0.189,-0.392 -0.442,0.73 -1.087,0.695 -0.242,-0.013 -0.482,0.013 -0.534,0.059 -0.211,0.19 -2.605,0.143 -2.64,-0.052 -0.021,-0.116 -0.202,-0.126 -0.403,-0.023 -0.323,0.166 -2.84,-0.188 -3.057,-0.43 -0.067,-0.075 -0.429,-0.127 -1.378,-0.219 0.751,-0.139 1.028,-0.172 1.091,-0.102 0.578,0.646 7.036,0.279 8.272,-0.47 0.381,-0.231 0.821,-0.302 1.231,-0.198 1.664,0.423 3.474,-1.165 2.36,-2.07 -1.386,-1.128 -4.862,-0.318 -3.634,0.847 0.807,0.766 0.072,0.235 -0.855,0.666 -0.836,0.388 -0.752,-0.909 -1.814,-0.559 -2.961,0.976 -7.543,0.447 -8.828,1.051 -1.152,0.542 -4.605,0.083 -4.426,-0.077 -0.846,-0.324 -0.914,-0.309 -0.909,0.2 0.004,0.372 1.344,0.82 2.22,0.742 0.667,-0.059 0.669,0.459 1.172,0.486 0.605,0.034 1.775,1.775 1.451,2.16 -0.308,0.365 -0.576,3.273 -0.356,3.851 0.071,0.186 0.064,0.397 -0.016,0.468 -0.241,0.216 -0.267,2.248 -0.037,2.903 0.475,1.351 -0.835,0.823 -0.701,0.367 0.042,-0.144 -0.058,-0.33 -0.224,-0.415 -0.273,-0.14 -0.307,-0.107 -0.37,0.363 -0.081,0.614 0.158,0.943 0.572,0.785 0.223,-0.085 0.386,0.032 0.647,0.463 0.434,0.715 0.741,0.532 0.56,-0.335 -0.179,-0.857 0.209,-2.152 0.097,-3.17 -0.051,-0.468 -0.006,-0.633 0.133,-0.478 0.201,0.225 0.222,0.845 0.131,3.972 -0.082,2.806 0.589,1.23 1.005,1.695 0.115,0.128 0.489,0.322 0.831,0.43 0.785,0.249 0.795,0.661 0.013,0.535 -0.719,-0.115 -0.65,0.192 0.229,1.012 0.558,0.52 1.06,0.554 0.605,0.041 -0.109,-0.123 -0.064,-0.336 0.102,-0.485 0.353,-0.316 0.668,-4.665 0.364,-5.005 -0.349,-0.389 -0.733,-0.165 -0.704,0.408 0.101,2.047 -0.566,-1.288 -0.384,-1.669 0.04,-0.082 0.135,-0.973 0.212,-1.981 0.182,-2.39 0.251,-2.578 0.754,-2.056 0.399,0.413 0.361,0.713 -0.061,0.488 -0.286,-0.153 -0.363,0.975 -0.087,1.283 0.42,0.469 0.964,0.214 0.977,-0.459 0.017,-0.933 -0.368,-0.701 0.029,-1.056 0.561,-0.503 -0.519,0.273 3.763,0.23 1.212,-0.013 3.56,0.572 4.556,1.134 m 2.094,-2.37 c 0.616,0.318 0.478,0.705 0.707,0.5 0.099,-0.088 0.249,-0.003 0.353,0.2 0.508,0.989 2.279,-0.31 1.803,-1.323 -0.501,-1.065 -1.552,-1.233 -2.328,-0.371 -0.966,1.075 -0.009,-0.432 -0.672,0.153 -0.427,0.377 -0.396,0.566 0.137,0.841 M 46.44,8.573 C 47.281,7.819 47.265,8.093 46.595,7.581 45.445,6.702 44.644,6.241 44.497,6.373 44.394,6.465 44.347,6.402 44.359,6.19 44.377,5.856 42.952,5.655 42.627,5.947 42.447,6.108 41.991,5.729 42.351,5.406 42.651,5.137 42.724,4.591 42.493,4.333 42.367,4.192 40.089,4.627 39.802,4.847 39.759,4.88 39.476,5.002 39.174,5.118 38.374,5.426 38.161,5.844 37.887,5.763 37.608,5.681 36.125,6.55 35.846,6.468 35.742,6.437 35.539,6.517 35.396,6.645 35.167,6.851 34.281,6.894 34.114,6.708 34.083,6.674 36.177,5.202 36.609,5.677 c 0.175,0.192 0.254,0.2 0.224,0.022 -0.051,-0.308 1.371,-1.163 1.763,-1.061 0.32,0.083 0.025,-0.435 0.317,-0.488 0.487,-0.087 2.451,-2.072 2.689,-2.718 0.084,-0.229 0.322,-0.524 0.529,-0.656 0.523,-0.335 0.1,-0.406 -0.267,-1.131 -0.359,-0.709 -2.88,0.687 -3.897,1.102 -0.335,0.137 -3.243,2.95 -2.26,1.284 0.254,-0.431 -0.084,-0.58 -0.491,-0.216 -0.16,0.144 -0.192,0.291 -0.07,0.327 0.246,0.072 0.53,0.76 -0.106,0.354 C 34.471,2.132 34.501,2.087 34.959,2.637 35.308,3.056 34.508,4.216 34.148,3.814 34.057,3.712 33.967,3.789 33.871,4.053 33.625,4.727 33.458,4.082 33.4,5.145 c -0.032,0.58 -0.12,0.737 -0.458,0.82 -0.528,0.128 -0.664,0.246 -0.38,0.33 0.439,0.13 -0.777,0.948 -1.846,1.241 -1.135,0.312 -4.208,0.099 -4.949,-0.343 -0.448,-0.267 -0.922,0.017 -0.61,0.366 0.154,0.172 -0.042,0.254 -0.813,0.339 0.014,0.008 -2.163,0.338 -2.05,0.97 0.043,0.241 1.22,0.522 1.769,0.422 0.186,-0.034 0.628,-0.046 0.982,-0.027 0.994,0.055 0.68,-0.266 1.487,-0.334 0.703,-0.058 0.704,-0.428 1.31,-0.311 0.858,0.166 -0.301,-0.32 0.276,-0.539 0.356,-0.136 0.598,0.083 0.347,0.313 -0.615,0.565 -0.45,0.734 1.593,1.63 1.02,0.449 0.125,1.095 -0.284,0.639 -0.527,-0.588 -4.498,-1.148 -5.98,-0.843 -0.331,0.068 0.735,0.499 1.563,0.633 0.631,0.102 0.523,0.339 -0.149,0.326 -1.501,-0.029 -0.385,0.795 1.577,1.165 3.194,0.602 3.608,-0.861 4.148,-0.297 0.462,0.482 8.457,-0.441 4.072,-0.423 -0.792,0.003 -1.436,-0.084 -1.431,-0.195 0.027,-0.65 6.758,0.401 8.546,-1.431 C 42.445,9.263 42.635,9.2 42.849,9.353 43.008,9.467 42.822,9.185 42.437,8.727 40.947,6.953 39.338,8.274 37.141,8.762 36.677,8.865 35.849,9.12 35.301,9.328 34.332,9.696 31.972,9.876 31.988,9.58 32.006,9.263 35.522,9.159 36.826,7.99 37.74,7.172 39.765,7.446 39.591,7.252 39.464,7.11 42.92,5.947 41.991,6.779 c -0.161,0.144 0.014,0.425 0.798,1.278 1.283,1.397 2.479,1.566 3.651,0.516 M 42.631,-2.239 c 0.824,-0.815 1.597,-0.718 0.894,-0.83 -0.236,-0.037 -0.483,-0.23 -0.585,-0.457 -0.229,-0.508 -1.193,-0.771 -1.573,-0.43 -0.159,0.142 -0.363,0.177 -0.454,0.078 -0.132,-0.143 -0.156,-0.122 -0.118,0.104 0.365,0.02 -1.153,1.166 -1.241,1.231 -1.858,1.368 -1.08,1.107 -2.626,2.668 -1.181,1.192 -1.133,1.129 -0.981,1.299 0.192,0.213 0.799,-0.575 0.99,-0.361 0.188,0.209 0.561,-0.178 0.454,-0.472 -0.06,-0.167 -0.036,-0.196 0.073,-0.09 0.089,0.087 0.251,0.027 0.36,-0.134 0.516,-0.76 3.86,-1.67 4.807,-2.606 M 33.288,3.324 C 33.337,3.597 33.635,3.045 34.05,3.32 34.316,3.496 34.323,3.487 34.12,3.229 33.755,2.767 34.575,2.824 34.37,2.595 34.22,2.428 33.245,3.084 33.288,3.324 m -0.816,1.58 C 32.184,4.97 31.86,5.099 31.752,5.19 30.947,5.873 26.364,6.552 26.091,6.029 25.937,5.732 26.085,6.306 25.34,6.207 v 0 c -0.651,-0.086 -0.749,-0.004 -0.454,0.381 0.441,0.573 0.405,-0.65 0.681,0.073 0.078,0.204 0.146,0.287 0.151,0.185 0.015,-0.256 0.728,-0.194 0.979,0.086 0.287,0.321 0.73,-0.358 0.918,-0.148 0.072,0.081 0.065,0.205 -0.016,0.278 -0.577,0.516 1.707,0.352 3.225,-0.232 1.27,-0.489 2.706,-2.167 1.648,-1.926 m -9.958,12.617 c 0.357,0.191 0.361,0.186 0.253,-0.258 -0.237,-0.975 -1.161,-0.23 -0.253,0.258 m 1.181,0.91 c 0.306,-0.29 0.334,-1.04 0.047,-1.258 -0.419,-0.318 -0.86,0.036 -0.788,0.632 0.065,0.544 0.468,0.884 0.741,0.626 m 0.626,-0.552 c -0.13,0.116 -0.178,0.277 -0.106,0.357 0.245,0.274 -0.648,0.555 -0.155,0.808 0.783,0.402 0.707,-1.565 0.261,-1.165 m 2.747,1.899 c 0.244,-0.478 0.549,0.927 1.073,0.457 0.419,-0.375 -0.131,-0.18 -0.046,-0.749 0.063,-0.421 -0.356,-0.992 -0.58,-0.791 -0.343,0.307 -1.537,-2.116 -1.397,0.205 0.062,1.011 0.618,1.525 0.95,0.878 m 1.406,1.429 c 0.087,0.732 0.128,0.794 0.544,0.817 0.411,0.023 0.432,0.004 0.24,-0.209 -0.306,-0.342 0.214,-0.642 -0.253,-1.163 -0.515,-0.575 0.242,-0.61 -0.089,-0.979 -0.389,-0.435 -0.592,0.27 -0.442,1.534 M 27.121,17.07 c 0.089,-0.299 -0.692,-0.555 -0.959,-0.315 -0.129,0.116 -0.34,0.051 -0.532,-0.165 -0.741,-0.826 -0.958,0.203 -0.344,0.237 0.169,0.009 0.429,0.152 0.576,0.317 0.291,0.324 1.157,0.273 1.259,-0.074 m 2.087,1.579 c 0.214,-0.418 0.409,-1.641 0.309,-1.94 -0.201,-0.598 -0.87,-0.07 -0.963,0.76 -0.098,0.875 0.374,1.727 0.654,1.18 m -1.075,-2.064 v 0 c -0.521,-0.153 -1.233,0.978 -0.307,1.174 0.5,0.106 0.796,-1.029 0.307,-1.174 m -0.219,7.006 c 0.178,-0.16 0.174,-1.323 -0.005,-1.523 -0.579,-0.647 -0.515,1.989 0.005,1.523 m -2.152,-4.114 c 0.256,-0.23 0.014,-1.833 -0.301,-1.994 -0.412,-0.212 -0.57,0.122 -0.548,1.157 0.021,0.96 0.35,1.284 0.849,0.837 m -1.281,-6.344 c -0.128,-0.243 -0.286,-0.395 -0.35,-0.338 -0.256,0.23 -3.231,0.078 -3.953,-0.201 0.022,0.001 -1.474,-0.654 -0.406,0.232 0.272,0.225 0.382,0.363 0.245,0.305 -0.421,-0.176 -0.535,0.115 -0.195,0.495 1.087,1.213 -3.092,-0.251 -1.1,1.278 0.871,0.67 0.439,-0.021 0.742,-0.292 0.069,-0.063 0.116,0.082 0.103,0.32 -0.03,0.535 0.279,0.887 0.88,1.004 0.71,0.139 0.336,0.561 0.977,0.224 0.687,-0.362 0.732,0.353 1.214,0.169 0.161,-0.061 0.377,-0.018 0.479,0.096 0.281,0.313 0.759,0.045 0.786,-0.44 0.051,-0.921 -1.75,-1.658 -2.58,-2.053 -2.286,-1.093 2.666,-0.252 3.471,0.174 0.366,0.194 0.253,0.38 -0.215,0.354 -0.304,-0.017 -0.507,0.684 -0.274,0.945 0.394,0.44 1.459,0.638 1.516,0.281 0.053,-0.333 0.083,-0.335 0.206,-0.02 0.187,0.48 1.095,0.611 1.161,0.167 0.034,-0.23 0.112,-0.194 0.316,0.146 0.253,0.42 0.299,0.419 0.656,-0.01 0.27,-0.324 0.412,-0.39 0.477,-0.22 0.111,0.292 0.97,0.116 1.15,-0.235 0.156,-0.304 -0.479,-0.774 -0.853,-0.631 -0.171,0.065 -0.358,-0.071 -0.553,-0.402 -0.601,-1.018 -3.407,-0.412 -3.9,-1.348 m -7.226,1.189 c -1.181,-0.729 -2.007,0.063 -1.109,1.064 0.301,0.337 -0.381,0.458 0.238,0.55 0.341,0.051 0.394,-0.032 0.445,-0.708 0.058,-0.754 0.407,-1.077 0.433,-0.399 0.019,0.497 0.513,0.328 0.104,0.483 -0.516,0.197 -0.114,2.599 0.419,2.504 0.345,-0.062 0.52,-1.758 0.216,-2.107 -0.163,-0.188 -0.201,-0.358 -0.085,-0.379 0.412,-0.074 0.113,-0.53 -0.661,-1.008 m -0.813,2.864 c -0.598,-0.456 -0.513,-0.529 -0.357,0.152 0.206,0.895 1.342,0.599 0.357,-0.152 m -1.664,-1.787 c 0.046,-0.473 -0.032,-0.988 -0.172,-1.145 -0.714,-0.798 -0.795,0.579 -0.626,0.767 0.082,0.092 0.069,0.242 -0.029,0.334 -0.411,0.387 0.143,2.294 0.726,1.307 0.196,-0.332 0.223,-0.323 0.298,0.107 0.055,0.32 -0.036,0.531 -0.285,0.654 -0.846,0.42 1.206,-0.005 0.881,-0.835 -0.193,-0.493 0.14,-1.1 -0.149,-1.423 -0.144,-0.161 -0.221,-0.138 -0.261,0.076 -0.154,0.84 -0.46,0.967 -0.383,0.158 m 35.396,15.104 c 0.872,-1.136 1.105,-1.238 0.504,-2.823 -0.226,-0.597 -0.235,-0.89 -0.03,-1.004 1.237,-0.684 0.357,-3.103 0.222,-2.982 -0.459,-0.755 -1.106,-0.851 -0.979,-0.145 0.04,0.224 -1.198,1.189 -1.467,1.411 0.67,0.984 1.274,1.655 0.809,3.416 -0.248,0.939 -0.148,0.911 0.941,2.127 M 1.217,28.225 c 0.273,0.518 -0.33,1.886 -0.712,1.616 -0.336,-0.237 -0.264,0.609 0.086,1.019 0.263,0.308 0.25,3.847 -0.015,4.084 -0.364,0.327 -0.73,-1.184 -0.766,-3.161 -0.008,-0.422 -0.894,-2.969 -0.764,-3.086 0.234,-0.21 0.892,-0.009 1.013,0.309 0.157,0.413 0.558,-3.647 0.007,-2.614 -0.157,0.294 -0.21,-0.933 -0.094,-2.157 0.074,-0.778 -0.402,-0.735 -0.167,-0.946 0.097,-0.086 -0.228,-2.047 -0.3,0.347 -0.099,3.292 -0.45,0.063 -0.355,-0.022 0.289,-0.259 -0.643,-3.884 -0.663,-2.034 -0.007,0.709 -0.224,2.773 -0.191,1.077 0.03,-1.59 -0.55,-2.159 -0.617,-0.606 -0.052,1.176 -0.243,0.81 -0.227,-0.434 0.024,-1.942 -0.73,-2.619 -0.672,-1.433 0.104,2.11 -0.805,-3.152 -0.785,-0.639 0.008,1.124 -0.371,1.079 -0.161,1.326 0.218,0.255 0.275,1.13 0.073,1.119 -0.231,-0.012 -0.43,-0.931 -0.314,-1.444 0.141,-0.621 -0.316,-0.718 -0.133,-1.055 0.141,-0.261 -0.17,-0.631 -0.287,0.75 -0.046,0.556 -0.159,1.007 -0.249,1.003 -0.226,-0.013 -0.136,-1.866 0.1,-2.077 0.267,-0.24 -0.125,-0.286 -0.107,-1.07 0.018,-0.787 -0.643,-1.36 -0.559,-1.702 0.028,-0.113 -1.476,-8.704 -1.246,-8.91 0.2,-0.183 -0.315,-0.187 -0.257,-1.24 C -7.124,5.865 -7.186,5.466 -7.283,5.358 -7.38,5.25 -7.406,5.056 -7.341,4.926 -7.172,4.586 -7.722,2.519 -7.793,1.208 -7.862,-0.051 -8.05,0.617 -8.438,-1.503 c -1.156,-6.308 -4.894,-13.348 -4.49,-13.709 0.091,-0.082 1.431,1.65 1.921,2.482 0.365,0.62 3.002,3.806 2.91,3.516 -0.098,-0.307 -1.438,-2.396 -1.733,-2.863 4.808,5.127 11.561,14.431 19.271,19.374 1.704,1.092 1.928,1.695 2.12,1.522 0.076,-0.067 0.283,0.072 0.462,0.31 0.26,0.346 0.253,0.483 -0.038,0.69 -0.199,0.143 -0.273,0.285 -0.165,0.317 0.109,0.032 0.136,0.177 0.062,0.323 -0.206,0.402 0.245,1.703 0.696,2.008 0.273,0.185 0.379,0.428 0.341,0.788 -0.079,0.75 0.531,0.965 0.189,1.271 -0.309,0.277 -0.291,1.25 0.029,1.607 0.347,0.388 0.688,-2.44 0.344,-2.861 -0.136,-0.167 -0.14,-0.25 -0.01,-0.186 0.444,0.218 0.36,-0.284 -0.141,-0.843 -0.969,-1.082 -1.83,-2.84 0.075,-0.693 1.441,1.625 1.277,0.736 1.635,1.136 0.289,0.322 0.099,-0.207 1.294,0.333 1.693,0.764 3.135,0.582 2.386,-0.302 -1.771,-2.09 -1.757,-2.076 -3.089,-2.932 -1.799,-1.16 0.681,-0.865 2.46,0.88 1.85,1.814 4.185,1.701 6.768,1.63 C 22.222,9.612 19.587,8.991 19.124,9.104 18.567,9.24 17.698,8.683 16.176,8.508 13.987,8.256 15.735,7.803 17.511,8.26 18.847,8.604 20.437,8.559 21.738,8.141 24.152,7.365 24.636,6.881 23.343,6.536 22.608,6.34 22.404,5.851 22.316,6.147 22.28,6.268 22.151,6.255 22.027,6.118 21.638,5.683 16.174,5.583 18.17,6.341 c 0.814,0.31 0.522,0.495 -0.771,0.49 -1.804,-0.008 -1.951,0.95 -2.751,0.579 -0.839,-0.389 -0.9,0.837 -1.531,0.719 -2.158,-0.405 -12.831,-8.886 -19.873,-18.626 -2.656,-3.673 -3.473,-4.67 -8.255,-10.073 -9.505,-10.737 -8.602,-10.776 -10.62,-13.47 -6.075,-8.11 -23.523,-41.947 -23.53,-41.964 -1.049,-2.696 -11.489,-18.995 -11.492,-19.048 -0.029,-0.458 -6.002,-8.536 -6.416,-9.172 -7.493,-11.522 5.1,4.647 14.354,20.503 0.817,1.4 4.679,7.947 5.413,9.502 5.277,11.199 13.591,25.812 13.857,26.337 0.646,1.276 8.128,12.987 8.133,13.018 0.01,0.055 3.299,5.338 11.004,14.059 7.77,8.793 10.316,13.861 18.696,21.752 4.486,4.225 7.081,5.116 7.618,5.717 0.342,0.378 0.235,-0.194 0.607,-0.003 0.452,0.232 2.454,-1.769 4.931,-1.73 1.403,0.022 1.572,-0.067 4.871,0.448 1.832,0.286 5.913,0.447 5.723,0.226 -0.056,-0.064 0.013,-0.087 0.152,-0.05 0.206,0.055 2.361,-0.418 2.685,-0.59 0.69,-0.364 1.501,-0.863 1.567,-0.963 0.129,-0.199 0.27,0.282 0.484,-0.136 0.398,-0.775 -1.118,0.279 1.456,-2.132 2.085,-1.952 2.425,-2.335 2.213,-2.491 -0.21,-0.155 0.708,-1.6 1.114,-1.755 0.173,-0.066 0.218,-0.146 0.101,-0.18 -1.073,-0.317 5.833,-6.547 5.062,-5.342 -0.232,0.362 -0.146,0.345 0.559,-0.108 0.878,-0.565 0.92,-0.211 0.069,0.59 -0.514,0.485 -0.304,0.686 0.459,0.438 0.838,-0.272 0.728,0.094 1.01,-0.159 0.439,-0.393 1.86,0.829 0.479,0.753 -0.632,-0.034 -0.647,0.346 -0.91,0.053 -0.285,-0.318 -2.232,0.998 -1.788,0.453 0.244,-0.3 0.058,-1.093 -0.26,-1.11 -0.283,-0.016 -3.558,3.393 -3.569,3.404 -0.345,0.337 -0.189,0.72 0.165,0.404 0.357,-0.32 0.601,0.485 0.701,-0.024 0.074,-0.383 1.49,-1.546 2.047,-1.681 0.295,-0.072 0.649,0.091 1.174,0.541 0.923,0.791 2.486,0.373 2.819,-0.755 0.086,-0.292 0.653,-0.342 0.704,-0.061 0.07,0.393 -0.741,1.308 -1.405,1.585 -0.701,0.292 -0.789,0.772 -0.147,0.808 0.556,0.03 1.003,0.351 1.206,0.865 0.172,0.434 0.132,0.437 -0.725,0.05 -1.69,-0.762 -3.633,0.32 -2.959,1.648 0.377,0.742 0.971,0.975 1.433,0.561 0.315,-0.282 1.747,-0.426 1.431,-0.78 -0.15,-0.167 0.163,-0.529 0.316,-0.128 0.125,0.329 0.547,0.066 0.482,-0.3 -0.066,-0.368 0.254,-0.528 0.383,-0.192 0.162,0.426 0.952,0.362 0.865,0.265 -0.043,-0.048 0.124,-0.138 0.372,-0.198 1.556,-0.379 0.895,-1.886 -0.903,-2.061 -0.791,-0.077 -0.777,0.011 -0.168,-0.281 0.48,-0.229 1.413,-0.164 1.675,0.118 0.084,0.09 0.278,0.116 0.431,0.057 0.844,-0.321 0.677,1.667 -0.205,2.461 -0.46,0.412 -0.461,0.74 -10e-4,0.658 0.124,-0.022 0.426,0.183 0.671,0.457 0.58,0.647 0.127,0.868 -0.516,0.251 -0.631,-0.607 -0.743,-0.191 -1.01,-0.489 -0.271,-0.302 -0.513,0.307 -0.878,-0.101 -0.186,-0.207 -0.46,-0.19 -0.997,0.063 -0.877,0.412 -0.938,0.632 -0.258,0.93 0.751,0.329 0.979,0.963 1.674,1.036 0.347,0.037 0.481,0.137 0.47,0.349 C 47.843,2.785 46.769,2.656 46.315,2.15 44.88,0.548 43.347,1.671 43.141,1.131 43.003,0.766 42.152,1.021 42.316,1.205 c 0.421,0.47 -3.44,3.375 -0.267,2.509 0.374,-0.102 0.529,-0.004 1.061,0.675 0.848,1.08 3.385,0.235 3.461,-1.153 0.03,-0.542 1.791,0.211 2.204,0.941 0.421,0.746 -0.039,0.773 -0.717,0.042 -1.119,-1.206 -0.443,0.05 -2.805,1.39 -0.769,0.436 -0.824,0.273 0.357,0.544 0.515,0.119 1.086,0.15 1.268,0.071 0.182,-0.078 0.405,-0.061 0.495,0.04 0.328,0.366 2.445,-2.198 1.931,-0.786 -0.63,1.733 -3.357,0.674 -2.165,2.228 0.516,0.673 0.506,0.714 -0.358,1.441 -1.083,0.912 -0.3,0.866 -0.736,0.944 -0.163,0.03 -0.136,0.116 0.076,0.246 0.933,0.572 1.125,0.929 1.594,0.509 0.319,-0.286 0.357,-0.276 0.336,0.092 -0.037,0.686 -0.609,0.653 -0.092,1.069 0.562,0.452 0.428,1.915 -0.229,2.503 -0.713,0.639 1.981,2.413 -0.156,3.66 -0.625,0.365 -0.907,0.64 -1.134,1.108 -0.309,0.633 -1.213,1.204 -1.981,1.25 -0.88,0.053 -0.572,0.935 0.46,1.323 0.326,0.122 0.781,0.434 1.013,0.693 1.06,1.182 2.785,-1 0.779,-1.956 -0.84,-0.4 -0.712,-0.624 0.235,-0.411 1.556,0.35 1.889,2.471 0.471,2.999 -0.619,0.23 -0.793,0.434 -0.576,0.675 0.549,0.614 -1.274,1.706 -2.781,1.667 -1.292,-0.033 -1.15,-0.19 -0.482,0.556 0.287,0.32 0.513,0.745 0.503,0.945 -0.03,0.603 0.877,1.374 1.257,1.069 0.169,-0.136 1.117,-0.245 1.13,-0.472 0.004,-0.087 0.151,-0.164 0.325,-0.17 0.386,-0.015 0.131,-1.152 -0.389,-1.741 -0.265,-0.3 -0.265,-0.361 0,-0.288 1.481,0.404 1.302,3.155 -0.189,2.9 -0.614,-0.105 -0.64,0.179 -0.108,1.165 0.422,0.78 0.597,0.978 0.905,1.024 0.495,0.074 0.885,0.809 0.966,1.823 0.121,1.506 0.67,1.623 1.472,0.312 0.715,-1.168 -0.332,-3.424 -1.385,-2.985 -1.154,0.481 -0.674,-0.499 -0.336,-0.121 0.122,0.136 0.161,0.101 0.175,-0.156 0.027,-0.482 0.767,-0.753 0.856,-1.717 0.13,-1.391 -1.487,-2.76 -0.925,-3.019 0.656,-0.303 1.747,-1.251 1.612,-1.401 -0.079,-0.088 -0.01,-0.28 0.153,-0.426 0.464,-0.415 -0.143,-2 -1.065,-2.783 -0.48,-0.407 -0.666,-0.657 -0.559,-0.752 0.225,-0.202 0.219,0.117 0.836,0.152 0.477,0.026 1.365,-0.655 1.157,-0.887 -0.072,-0.08 -0.035,-0.231 0.081,-0.335 0.203,-0.182 -0.21,-1.27 -0.684,-1.802 -0.301,-0.339 -0.17,-0.677 0.191,-0.492 1.461,0.75 1.578,2.989 0.195,3.747 -0.392,0.215 -0.29,0.65 0.314,1.333 0.154,0.174 0.234,0.643 0.177,1.042 -0.152,1.075 0.514,1.192 1.31,0.23 1.613,-1.949 -1.269,-3.207 -0.23,-3.15 1.056,0.059 1.226,-2.38 0.239,-3.439 -0.68,-0.728 -0.78,-1.11 -0.242,-0.926 0.375,0.128 0.477,0.035 0.942,-0.866 0.318,-0.617 0.221,-1.176 -0.375,-2.159 -0.704,-1.161 0.26,-0.859 1.019,0.319 1.059,1.647 -1.176,2.893 -0.483,3.666 0.672,0.75 0.755,2.179 0.197,3.373 -0.161,0.344 -0.213,0.715 -0.116,0.823 0.6,0.67 0.11,2.513 -0.816,3.069 -0.308,0.186 -0.357,0.314 -0.191,0.499 0.782,0.873 0.724,2.507 -0.116,3.259 -0.216,0.193 -0.281,0.403 -0.165,0.533 0.748,0.835 0.609,2.221 -0.305,3.039 -1.089,0.976 0.479,0.956 -1.381,3.214 -0.984,1.195 0.085,1.316 -0.613,2.531 -0.512,0.89 0.118,0.817 -0.505,0.969 -0.608,0.148 -1.05,0.606 -0.826,0.857 0.106,0.118 0.051,0.582 -0.122,1.031 -0.392,1.014 -0.106,0.765 -1.125,1.013 -1.198,0.291 -1.953,1.054 -2.096,2.116 -0.574,4.291 -6.765,1.506 -6.4,0.269 0.165,-0.553 -1.273,-0.57 -1.179,-1.602 0.073,-0.81 -0.663,-0.982 -0.449,-1.174 0.134,-0.119 -0.179,-2.295 -0.35,-2.437 -0.347,-0.286 -0.411,-1.432 -0.071,-1.255 0.888,0.463 -1.729,-1.753 -1.864,-3.199 -0.135,-1.435 -3.807,-6.141 -5.635,-7.22 -1.798,-1.062 -2.025,-1.868 -1.474,-0.677 0.663,1.434 -0.32,1.458 -1.797,0.043 -1.449,-1.388 -1.907,-0.873 -1.89,-1.18 0.009,-0.155 -0.591,-0.295 -1.623,-0.379 -0.605,-0.05 -3.185,-1.014 -3.425,-1.279 -0.28,-0.31 -1.65,-0.739 -2.164,-1.079 C 15.493,20.588 12.694,18.147 12.675,17.635 12.656,17.143 12.073,17.214 11.732,16.238 11.604,15.872 11.414,15.524 11.308,15.465 10.691,15.117 9.926,10.956 10.399,10.522 11.258,9.734 9.361,9.349 2.642,3.807 c -6.018,-4.964 -13.868,-16.332 -12.974,-14.073 5.005,12.654 4.258,24.893 5.76,26.569 1.35,1.508 -0.299,1.001 2.417,2.8 1.855,1.229 2.196,1.571 2.874,2.881 0.563,1.089 0.782,2.404 0.367,2.2 -0.132,-0.066 -0.093,0.056 0.087,0.27 0.596,0.707 -0.368,2.989 0.044,3.771"
                   style="fill:#aaabab;fill-opacity:1;fill-rule:nonzero;stroke:none"
                   id="path838" />
              </g>
              <g
                 transform="translate(387.9187,174.4271)"
                 id="g844">
                <path
                   d="M 0,0 C -0.069,-0.077 -0.032,-0.332 0.084,-0.567 0.38,-1.168 0.482,-3.562 0.693,-3.751 0.807,-3.853 0.728,0.812 0,0"
                   style="fill:#aaabab;fill-opacity:1;fill-rule:nonzero;stroke:none"
                   id="path842" />
              </g>
              <g
                 transform="translate(389.5124,172.5376)"
                 id="g848">
                <path
                   d="M 0,0 C -0.232,0.564 -0.036,-1.322 0.079,-1.425 0.238,-1.568 0.175,-0.426 0,0"
                   style="fill:#aaabab;fill-opacity:1;fill-rule:nonzero;stroke:none"
                   id="path846" />
              </g>
              <g
                 transform="translate(391.9949,162.0234)"
                 id="g852">
                <path
                   d="M 0,0 C -0.385,-0.146 -0.351,-0.165 0.315,-0.176 4.021,-0.237 0.942,0.356 0,0"
                   style="fill:#aaabab;fill-opacity:1;fill-rule:nonzero;stroke:none"
                   id="path850" />
              </g>
              <g
                 transform="translate(389.5017,174.9362)"
                 id="g856">
                <path
                   d="M 0,0 C -0.258,4.975 0.106,5.092 -0.105,5.281 -0.789,5.893 -0.401,2.011 -0.487,0.386 -0.539,-0.598 0.164,-3.148 0,0"
                   style="fill:#aaabab;fill-opacity:1;fill-rule:nonzero;stroke:none"
                   id="path854" />
              </g>
              <g
                 transform="translate(390.1885,178.9193)"
                 id="g860">
                <path
                   d="M 0,0 C -0.047,-0.786 -0.033,-0.822 0.208,-0.553 0.489,-0.239 0.531,1.964 0.255,1.949 -0.066,1.931 0.064,1.074 0,0"
                   style="fill:#aaabab;fill-opacity:1;fill-rule:nonzero;stroke:none"
                   id="path858" />
              </g>
            </g>
          </g>
        </g>
      </g>
    </g>
  </g>
</svg>
